<?xml version="1.0" encoding="utf-8"?>
<!-- Generator: Adobe Illustrator 15.0.0, SVG Export Plug-In . SVG Version: 6.00 Build 0)  -->
<!DOCTYPE svg PUBLIC "-//W3C//DTD SVG 1.1//EN" "http://www.w3.org/Graphics/SVG/1.1/DTD/svg11.dtd">
<svg version="1.1" id="Layer_1" xmlns="http://www.w3.org/2000/svg" xmlns:xlink="http://www.w3.org/1999/xlink" x="0px" y="0px"
	 width="300px" height="1200px" viewBox="0 0 300 1200" enable-background="new 0 0 300 1200" xml:space="preserve">
<rect x="304" y="900.2" fill="none" stroke="#2C2C2C" stroke-miterlimit="10" width="300" height="300"/>
<rect x="304" y="-0.5" fill="none" stroke="#2C2C2C" stroke-miterlimit="10" width="300" height="300"/>
<rect x="304.3" y="297.7" fill="none" stroke="#2C2C2C" stroke-miterlimit="10" width="300" height="300"/>
<rect x="304" y="599.3" fill="none" stroke="#2C2C2C" stroke-miterlimit="10" width="300" height="300"/>
<g>
	<g>
		<path fill="#FFFFFF" d="M53.904,121.151c0.395,3.632,3.461,6.462,7.197,6.477h0c0.013,0,0.024,0.01,0.024,0.024
			c0,0.013-0.011,0.023-0.024,0.023c0,0,0,0,0,0l0,0c-3.995,0.016-7.227,3.253-7.242,7.247v0.001c0,0.013-0.01,0.023-0.024,0.023
			c-0.012,0-0.023-0.01-0.023-0.023v-0.001c-0.014-3.998-3.251-7.237-7.253-7.246v-0.001c-0.014,0-0.024-0.01-0.024-0.023
			c0-0.014,0.011-0.025,0.024-0.025l0,0c3.86-0.008,7.008-3.022,7.239-6.824V97.661H23.261v23.49h-23.49v30.537h23.49v23.489h30.537
			v-10.045c0,0,0,0,0-0.001l0,0c-0.025-7.365-5.989-13.33-13.36-13.346v-0.001c-0.024,0-0.044-0.02-0.044-0.045
			c0-0.024,0.021-0.045,0.044-0.045v0c7.37-0.016,13.334-5.98,13.36-13.346l0,0c0.001-0.023,0.021-0.042,0.044-0.042
			s0.043,0.019,0.044,0.042l0,0v0.001v0.001c0.027,7.289,5.869,13.201,13.132,13.339h10.271v-30.537H53.904z M50.271,139.231
			L50.271,139.231L50.271,139.231c-3.997,0.016-7.228,3.252-7.242,7.247v0.001c0,0.013-0.01,0.023-0.024,0.023
			c-0.013,0-0.024-0.011-0.024-0.023v0c-0.014-4-3.252-7.238-7.253-7.247v-0.001c-0.014,0-0.025-0.011-0.025-0.024
			s0.011-0.024,0.025-0.025l0,0c4.001-0.009,7.239-3.248,7.253-7.246l0,0c0-0.013,0.011-0.023,0.024-0.023s0.023,0.01,0.024,0.023
			c0,0,0,0,0,0.001l0,0c0.015,3.994,3.246,7.23,7.241,7.246h0.001c0.012,0,0.023,0.011,0.023,0.024S50.283,139.231,50.271,139.231z
			 M71.933,139.231L71.933,139.231L71.933,139.231c-3.996,0.016-7.228,3.252-7.242,7.247v0.001c0,0.013-0.01,0.023-0.023,0.023
			s-0.024-0.011-0.024-0.023v0c-0.014-4-3.251-7.238-7.254-7.247v-0.001c-0.013,0-0.025-0.011-0.025-0.024s0.012-0.024,0.025-0.025
			l0,0c4.001-0.009,7.24-3.248,7.254-7.246l0,0c0.001-0.013,0.011-0.023,0.024-0.023s0.023,0.01,0.023,0.023c0,0,0,0,0,0.001l0,0
			c0.015,3.994,3.246,7.23,7.242,7.246l0,0c0.014,0,0.024,0.011,0.024,0.024S71.947,139.231,71.933,139.231z"/>
		<g>
			<path fill="#FFFFFF" d="M88.983,176.542c-1.665,0-3.081-0.237-4.248-0.711c-1.168-0.474-2.076-1.046-2.722-1.716
				c-0.394-0.394-0.676-0.77-0.85-1.128c-0.173-0.359-0.259-0.664-0.259-0.92c0-0.183,0.051-0.346,0.155-0.485
				c0.104-0.138,0.214-0.254,0.33-0.346c0.115-0.093,0.23-0.157,0.346-0.191c0.115-0.035,0.185-0.04,0.208-0.017
				c0.23,0.508,0.543,1,0.936,1.472c0.393,0.475,0.872,0.903,1.44,1.284c0.566,0.383,1.236,0.688,2.011,0.919
				c0.774,0.232,1.647,0.347,2.618,0.347c1.85,0,3.3-0.411,4.353-1.23c1.052-0.821,1.578-1.936,1.578-3.347
				c0-0.808-0.179-1.486-0.538-2.028c-0.359-0.544-0.832-0.994-1.422-1.353c-0.589-0.358-1.271-0.647-2.046-0.868
				c-0.775-0.22-1.59-0.434-2.445-0.642c-0.856-0.207-1.7-0.445-2.531-0.71c-0.833-0.266-1.578-0.625-2.237-1.077
				c-0.659-0.449-1.186-1.022-1.578-1.716c-0.394-0.693-0.59-1.571-0.59-2.635c0-0.879,0.185-1.688,0.555-2.428
				c0.37-0.74,0.884-1.375,1.543-1.908c0.659-0.531,1.428-0.947,2.307-1.248c0.878-0.3,1.838-0.451,2.878-0.451
				c1.525,0,2.814,0.219,3.867,0.658c1.052,0.44,1.866,0.938,2.445,1.492c0.646,0.693,0.971,1.296,0.971,1.804
				c0,0.185-0.052,0.353-0.157,0.503c-0.103,0.15-0.213,0.265-0.329,0.346c-0.116,0.082-0.231,0.146-0.347,0.19
				c-0.116,0.047-0.185,0.059-0.208,0.037c-0.208-0.463-0.491-0.909-0.85-1.336c-0.358-0.428-0.797-0.803-1.317-1.126
				c-0.521-0.324-1.117-0.585-1.787-0.781c-0.67-0.196-1.422-0.294-2.254-0.294c-0.81,0-1.561,0.104-2.254,0.311
				c-0.694,0.208-1.29,0.51-1.787,0.901c-0.498,0.395-0.884,0.868-1.162,1.422c-0.278,0.555-0.416,1.179-0.416,1.874
				c0,0.762,0.155,1.393,0.468,1.89c0.312,0.498,0.74,0.913,1.283,1.248c0.542,0.336,1.184,0.608,1.924,0.815
				c0.74,0.208,1.548,0.417,2.428,0.625c0.901,0.207,1.786,0.457,2.653,0.745c0.867,0.289,1.647,0.67,2.341,1.145
				c0.694,0.474,1.249,1.07,1.665,1.786c0.417,0.717,0.625,1.619,0.625,2.705c0,0.925-0.179,1.768-0.537,2.532
				c-0.359,0.762-0.873,1.411-1.543,1.942c-0.671,0.533-1.469,0.948-2.393,1.249C91.18,176.39,90.139,176.542,88.983,176.542z"/>
			<path fill="#FFFFFF" d="M107.399,176.542c-1.226,0-2.354-0.219-3.382-0.658c-1.029-0.438-1.913-1.042-2.652-1.804
				c-0.74-0.763-1.318-1.666-1.734-2.706s-0.625-2.174-0.625-3.399s0.208-2.358,0.625-3.398s0.994-1.941,1.734-2.704
				c0.74-0.764,1.624-1.358,2.652-1.786c1.028-0.428,2.156-0.642,3.382-0.642c1.225,0,2.346,0.219,3.364,0.658
				c1.017,0.439,1.896,1.041,2.636,1.803c0.74,0.764,1.317,1.671,1.734,2.722c0.416,1.053,0.624,2.192,0.624,3.417
				c0,1.203-0.208,2.324-0.624,3.364c-0.417,1.042-0.995,1.942-1.734,2.706c-0.74,0.762-1.619,1.358-2.636,1.786
				C109.745,176.328,108.623,176.542,107.399,176.542z M107.399,175.084c0.971,0,1.86-0.179,2.67-0.537
				c0.809-0.358,1.515-0.85,2.116-1.475c0.601-0.623,1.069-1.37,1.404-2.236c0.335-0.867,0.502-1.797,0.502-2.792
				c0-1.017-0.167-1.96-0.502-2.826c-0.335-0.867-0.797-1.618-1.387-2.254c-0.589-0.636-1.295-1.139-2.116-1.509
				c-0.821-0.369-1.716-0.555-2.687-0.555c-0.971,0-1.868,0.181-2.688,0.539c-0.821,0.358-1.532,0.855-2.133,1.49
				c-0.602,0.636-1.07,1.382-1.404,2.237c-0.335,0.855-0.503,1.792-0.503,2.808c0,0.995,0.167,1.925,0.503,2.792
				c0.334,0.866,0.803,1.625,1.404,2.272c0.601,0.647,1.312,1.15,2.133,1.509C105.531,174.906,106.427,175.084,107.399,175.084z"/>
			<path fill="#FFFFFF" d="M125.501,176.542c-1.087,0-2.041-0.173-2.86-0.521c-0.822-0.346-1.504-0.843-2.047-1.49
				c-0.543-0.647-0.954-1.417-1.231-2.308c-0.277-0.89-0.416-1.89-0.416-3v-8.739c0-0.324,0.069-0.538,0.208-0.642
				c0.138-0.104,0.312-0.157,0.52-0.157h0.208c0.208,0,0.382,0.053,0.521,0.157c0.138,0.104,0.208,0.318,0.208,0.642v8.634
				c0,1.803,0.427,3.231,1.283,4.284c0.854,1.052,2.092,1.578,3.71,1.578c1.388,0,2.572-0.347,3.555-1.041s1.729-1.618,2.237-2.773
				v-10.682c0-0.324,0.069-0.538,0.208-0.642c0.139-0.104,0.312-0.157,0.521-0.157h0.208c0.208,0,0.381,0.053,0.52,0.157
				c0.139,0.104,0.208,0.318,0.208,0.642v15.64c0,0.023-0.058,0.058-0.173,0.104c-0.116,0.046-0.255,0.07-0.417,0.07
				c-0.277,0-0.52-0.11-0.728-0.33c-0.208-0.219-0.312-0.664-0.312-1.336v-1.492c-0.556,0.973-1.335,1.781-2.341,2.428
				C128.085,176.216,126.888,176.542,125.501,176.542z"/>
			<path fill="#FFFFFF" d="M142.806,176.542c-1.457,0-2.538-0.417-3.243-1.249s-1.058-2.115-1.058-3.85v-10.162h-2.011
				c-0.324,0-0.538-0.057-0.642-0.173c-0.104-0.116-0.156-0.278-0.156-0.486v-0.172c0-0.208,0.052-0.37,0.156-0.486
				c0.104-0.115,0.317-0.174,0.642-0.174h2.011v-3.19c0-0.323,0.07-0.543,0.208-0.658c0.139-0.117,0.312-0.173,0.521-0.173h0.208
				c0.208,0,0.376,0.057,0.504,0.173c0.126,0.115,0.19,0.335,0.19,0.658v3.19h4.751c0.324,0,0.543,0.059,0.659,0.174
				c0.116,0.117,0.173,0.278,0.173,0.486v0.172c0,0.208-0.057,0.371-0.173,0.486c-0.116,0.116-0.335,0.173-0.659,0.173h-4.751v9.988
				c0,1.364,0.214,2.347,0.642,2.947c0.428,0.603,1.127,0.902,2.098,0.902c0.601,0,1.122-0.127,1.562-0.38
				c0.438-0.255,0.808-0.603,1.108-1.042c0.047-0.022,0.15,0.03,0.312,0.155c0.162,0.128,0.243,0.353,0.243,0.678
				c0,0.139-0.042,0.3-0.122,0.485c-0.081,0.184-0.225,0.37-0.433,0.554c-0.254,0.277-0.606,0.51-1.057,0.694
				C144.036,176.449,143.476,176.542,142.806,176.542z"/>
			<path fill="#FFFFFF" d="M148.872,176.142c-0.138-0.103-0.207-0.317-0.207-0.642v-22.645c0-0.023,0.052-0.058,0.157-0.104
				c0.103-0.046,0.236-0.069,0.397-0.069c0.3,0,0.562,0.104,0.78,0.312c0.22,0.208,0.33,0.649,0.33,1.318v8.706
				c0.485-1.064,1.237-1.925,2.254-2.585c1.018-0.658,2.208-0.987,3.572-0.987c1.11,0,2.074,0.172,2.896,0.52
				c0.82,0.347,1.509,0.844,2.062,1.491c0.555,0.647,0.971,1.417,1.249,2.306c0.277,0.892,0.417,1.891,0.417,3v8.739
				c0,0.325-0.07,0.539-0.209,0.642c-0.139,0.105-0.312,0.157-0.521,0.157h-0.207c-0.208,0-0.384-0.052-0.521-0.157
				c-0.139-0.103-0.208-0.317-0.208-0.642v-8.635c0-1.826-0.434-3.26-1.301-4.3c-0.867-1.04-2.121-1.561-3.762-1.561
				c-0.833,0-1.596,0.139-2.288,0.416c-0.695,0.278-1.296,0.666-1.805,1.163c-0.51,0.498-0.907,1.098-1.196,1.803
				c-0.29,0.706-0.434,1.498-0.434,2.375v8.739c0,0.325-0.068,0.539-0.208,0.642c-0.139,0.105-0.312,0.157-0.521,0.157h-0.207
				C149.187,176.299,149.012,176.247,148.872,176.142z"/>
			<path fill="#FFFFFF" d="M168.138,170.975c0.335,0.844,0.803,1.572,1.404,2.185c0.601,0.612,1.312,1.087,2.133,1.422
				c0.82,0.334,1.717,0.502,2.688,0.502c0.854,0,1.602-0.098,2.238-0.296c0.635-0.194,1.188-0.45,1.663-0.761
				c0.475-0.314,0.867-0.666,1.18-1.059s0.572-0.797,0.78-1.214c0.023-0.022,0.088-0.022,0.19,0c0.104,0.022,0.214,0.075,0.33,0.156
				c0.114,0.082,0.22,0.186,0.312,0.312c0.092,0.127,0.139,0.295,0.139,0.503c0,0.185-0.08,0.433-0.241,0.746
				c-0.164,0.312-0.43,0.652-0.799,1.022c-0.51,0.51-1.254,0.978-2.237,1.406s-2.167,0.642-3.555,0.642
				c-1.248,0-2.393-0.214-3.433-0.642c-1.041-0.428-1.926-1.017-2.653-1.77c-0.729-0.75-1.296-1.647-1.698-2.687
				c-0.406-1.041-0.608-2.174-0.608-3.399c0-1.225,0.208-2.364,0.625-3.417c0.417-1.051,0.988-1.958,1.717-2.722
				c0.728-0.763,1.589-1.364,2.583-1.803s2.081-0.658,3.26-0.658c1.132,0,2.163,0.19,3.088,0.572
				c0.923,0.38,1.717,0.925,2.375,1.629c0.658,0.706,1.166,1.55,1.524,2.532c0.358,0.983,0.539,2.075,0.539,3.278v0.172
				c0,0.256-0.059,0.417-0.174,0.486s-0.301,0.104-0.554,0.104H167.6C167.622,169.212,167.803,170.13,168.138,170.975z
				 M179.946,166.796c-0.023-0.878-0.184-1.676-0.484-2.393s-0.699-1.335-1.197-1.855c-0.497-0.52-1.097-0.924-1.803-1.214
				c-0.705-0.289-1.475-0.433-2.307-0.433c-0.855,0-1.647,0.145-2.375,0.433c-0.729,0.291-1.377,0.695-1.943,1.214
				c-0.566,0.521-1.033,1.145-1.403,1.874c-0.37,0.728-0.613,1.521-0.729,2.375H179.946z"/>
			<path fill="#FFFFFF" d="M184.941,175.5v-15.64c0-0.022,0.052-0.057,0.157-0.104c0.103-0.046,0.235-0.069,0.397-0.069
				c0.3,0,0.555,0.111,0.764,0.331c0.208,0.22,0.311,0.664,0.311,1.334v2.081c0.348-1.388,0.908-2.398,1.684-3.035
				c0.773-0.635,1.717-0.953,2.825-0.953c0.671,0,1.225,0.126,1.665,0.381c0.438,0.255,0.66,0.59,0.66,1.005
				c0,0.325-0.07,0.556-0.209,0.694s-0.231,0.197-0.277,0.174c-0.23-0.185-0.514-0.342-0.851-0.468
				c-0.336-0.128-0.711-0.192-1.127-0.192c-1.479,0-2.573,0.671-3.276,2.011c-0.706,1.342-1.058,3.123-1.058,5.341v7.109
				c0,0.301-0.069,0.51-0.208,0.625s-0.312,0.174-0.521,0.174h-0.174C185.195,176.299,184.941,176.033,184.941,175.5z"/>
			<path fill="#FFFFFF" d="M196.175,176.142c-0.139-0.103-0.208-0.317-0.208-0.642v-15.64c0-0.022,0.053-0.057,0.157-0.104
				c0.104-0.046,0.237-0.069,0.398-0.069c0.3,0,0.556,0.111,0.764,0.331c0.207,0.22,0.312,0.664,0.312,1.334v1.492
				c0.53-0.971,1.3-1.78,2.306-2.427c1.005-0.647,2.202-0.971,3.59-0.971c1.086,0,2.04,0.172,2.861,0.52s1.508,0.844,2.062,1.491
				c0.556,0.647,0.972,1.417,1.25,2.306c0.276,0.892,0.415,1.891,0.415,3v8.739c0,0.325-0.069,0.539-0.208,0.642
				c-0.138,0.105-0.312,0.157-0.521,0.157h-0.207c-0.208,0-0.382-0.052-0.521-0.157c-0.139-0.103-0.208-0.317-0.208-0.642v-8.635
				c0-1.803-0.428-3.23-1.283-4.282c-0.855-1.052-2.092-1.579-3.71-1.579c-1.388,0-2.572,0.347-3.555,1.04
				c-0.982,0.694-1.729,1.619-2.237,2.775V175.5c0,0.325-0.069,0.539-0.208,0.642c-0.138,0.105-0.312,0.157-0.521,0.157h-0.206
				C196.488,176.299,196.315,176.247,196.175,176.142z"/>
			<path fill="#FFFFFF" d="M230.509,176.542c-1.665,0-3.181-0.283-4.545-0.85c-1.364-0.566-2.53-1.358-3.503-2.375
				c-0.971-1.018-1.722-2.23-2.253-3.642c-0.533-1.411-0.798-2.959-0.798-4.647c0-1.687,0.271-3.243,0.814-4.665
				c0.543-1.421,1.306-2.646,2.289-3.676c0.982-1.028,2.156-1.831,3.52-2.41c1.364-0.578,2.866-0.867,4.509-0.867
				c1.757,0,3.225,0.272,4.405,0.815c1.178,0.543,2.103,1.15,2.773,1.821c0.394,0.393,0.688,0.786,0.885,1.179
				c0.196,0.393,0.295,0.705,0.295,0.936c0,0.23-0.048,0.417-0.139,0.554c-0.092,0.139-0.203,0.248-0.33,0.329
				c-0.127,0.082-0.243,0.133-0.347,0.157c-0.104,0.024-0.168,0.024-0.19,0c-0.602-1.249-1.556-2.276-2.861-3.087
				c-1.307-0.809-2.826-1.212-4.561-1.212c-1.364,0-2.613,0.249-3.745,0.746c-1.133,0.498-2.11,1.196-2.931,2.098
				c-0.821,0.901-1.456,1.972-1.908,3.208c-0.449,1.236-0.675,2.583-0.675,4.04c0,1.458,0.226,2.798,0.675,4.024
				c0.452,1.225,1.087,2.283,1.908,3.172c0.82,0.891,1.809,1.589,2.964,2.097c1.157,0.51,2.429,0.764,3.817,0.764
				c1.039,0,1.975-0.133,2.808-0.398c0.832-0.265,1.567-0.624,2.203-1.075c0.635-0.452,1.167-0.965,1.595-1.543
				s0.745-1.18,0.953-1.804c0.023-0.022,0.093-0.022,0.208,0c0.116,0.024,0.244,0.069,0.382,0.139
				c0.139,0.069,0.265,0.179,0.382,0.329c0.115,0.151,0.172,0.331,0.172,0.539c0,0.253-0.119,0.637-0.363,1.145
				c-0.242,0.508-0.631,1.017-1.161,1.525c-0.671,0.671-1.62,1.277-2.845,1.82C233.687,176.27,232.218,176.542,230.509,176.542z"/>
			<path fill="#FFFFFF" d="M242.576,175.5v-15.64c0-0.022,0.052-0.057,0.157-0.104c0.103-0.046,0.236-0.069,0.397-0.069
				c0.3,0,0.555,0.111,0.764,0.331c0.208,0.22,0.311,0.664,0.311,1.334v2.081c0.348-1.388,0.909-2.398,1.684-3.035
				c0.773-0.635,1.717-0.953,2.825-0.953c0.671,0,1.225,0.126,1.665,0.381c0.439,0.255,0.66,0.59,0.66,1.005
				c0,0.325-0.069,0.556-0.209,0.694c-0.139,0.139-0.231,0.197-0.277,0.174c-0.23-0.185-0.514-0.342-0.85-0.468
				c-0.336-0.128-0.711-0.192-1.128-0.192c-1.479,0-2.572,0.671-3.276,2.011c-0.706,1.342-1.057,3.123-1.057,5.341v7.109
				c0,0.301-0.07,0.51-0.209,0.625s-0.312,0.174-0.521,0.174h-0.174C242.83,176.299,242.576,176.033,242.576,175.5z"/>
			<path fill="#FFFFFF" d="M260.61,176.542c-1.227,0-2.353-0.219-3.382-0.658c-1.027-0.438-1.912-1.042-2.652-1.804
				c-0.739-0.763-1.317-1.666-1.733-2.706c-0.417-1.04-0.625-2.174-0.625-3.399s0.208-2.358,0.625-3.398
				c0.416-1.041,0.994-1.941,1.733-2.704c0.74-0.764,1.625-1.358,2.652-1.786c1.029-0.428,2.155-0.642,3.382-0.642
				c1.226,0,2.346,0.219,3.364,0.658c1.018,0.439,1.896,1.041,2.636,1.803c0.741,0.764,1.318,1.671,1.735,2.722
				c0.415,1.053,0.622,2.192,0.622,3.417c0,1.203-0.207,2.324-0.622,3.364c-0.417,1.042-0.994,1.942-1.735,2.706
				c-0.74,0.762-1.618,1.358-2.636,1.786C262.955,176.328,261.835,176.542,260.61,176.542z M260.61,175.084
				c0.972,0,1.861-0.179,2.671-0.537c0.809-0.358,1.515-0.85,2.115-1.475c0.602-0.623,1.068-1.37,1.404-2.236
				c0.335-0.867,0.503-1.797,0.503-2.792c0-1.017-0.168-1.96-0.503-2.826c-0.336-0.867-0.797-1.618-1.386-2.254
				c-0.591-0.636-1.296-1.139-2.117-1.509c-0.82-0.369-1.716-0.555-2.688-0.555c-0.971,0-1.868,0.181-2.687,0.539
				c-0.821,0.358-1.532,0.855-2.134,1.49c-0.602,0.636-1.069,1.382-1.404,2.237s-0.503,1.792-0.503,2.808
				c0,0.995,0.168,1.925,0.503,2.792c0.335,0.866,0.803,1.625,1.404,2.272c0.602,0.647,1.312,1.15,2.134,1.509
				C258.741,174.906,259.639,175.084,260.61,175.084z"/>
			<path fill="#FFFFFF" d="M277.569,176.542c-1.457,0-2.666-0.191-3.624-0.572c-0.961-0.382-1.694-0.828-2.203-1.336
				c-0.3-0.3-0.508-0.554-0.625-0.763c-0.115-0.208-0.172-0.404-0.172-0.59c0-0.183,0.044-0.333,0.139-0.45
				c0.092-0.115,0.19-0.208,0.295-0.278c0.103-0.07,0.201-0.115,0.294-0.139c0.092-0.021,0.15-0.033,0.174-0.033
				c0.507,0.786,1.23,1.444,2.168,1.975c0.937,0.533,2.144,0.798,3.622,0.798c1.503,0,2.666-0.3,3.486-0.901
				c0.821-0.601,1.23-1.364,1.23-2.289c0-0.555-0.12-1.011-0.363-1.369c-0.242-0.358-0.589-0.652-1.039-0.886
				c-0.453-0.23-0.989-0.426-1.614-0.589c-0.623-0.161-1.316-0.322-2.08-0.486c-0.671-0.139-1.353-0.294-2.046-0.467
				c-0.693-0.173-1.318-0.422-1.874-0.746c-0.554-0.323-1.011-0.74-1.369-1.248s-0.537-1.167-0.537-1.978
				c0-0.693,0.149-1.334,0.451-1.923c0.3-0.591,0.717-1.093,1.247-1.51c0.533-0.416,1.175-0.739,1.925-0.971
				c0.751-0.23,1.591-0.346,2.516-0.346c1.294,0,2.38,0.179,3.26,0.538c0.877,0.358,1.561,0.779,2.046,1.265
				c0.416,0.417,0.623,0.821,0.623,1.214c0,0.163-0.046,0.307-0.139,0.433c-0.092,0.128-0.188,0.225-0.295,0.295
				c-0.103,0.069-0.202,0.116-0.294,0.139c-0.092,0.023-0.15,0.023-0.172,0c-0.417-0.716-1.064-1.312-1.943-1.786
				c-0.88-0.474-1.907-0.711-3.086-0.711c-1.435,0-2.549,0.296-3.348,0.884c-0.797,0.59-1.195,1.335-1.195,2.238
				c0,0.508,0.114,0.936,0.347,1.283c0.23,0.346,0.56,0.636,0.988,0.867c0.427,0.23,0.948,0.428,1.56,0.589
				c0.613,0.163,1.288,0.325,2.03,0.486c0.692,0.139,1.397,0.3,2.113,0.486c0.717,0.185,1.364,0.445,1.943,0.781
				c0.578,0.334,1.052,0.761,1.421,1.282c0.37,0.521,0.556,1.185,0.556,1.995c0,1.435-0.572,2.596-1.717,3.484
				C281.122,176.097,279.556,176.542,277.569,176.542z"/>
			<path fill="#FFFFFF" d="M292.585,176.542c-1.457,0-2.665-0.191-3.624-0.572c-0.961-0.382-1.694-0.828-2.203-1.336
				c-0.3-0.3-0.508-0.554-0.625-0.763c-0.115-0.208-0.172-0.404-0.172-0.59c0-0.183,0.045-0.333,0.14-0.45
				c0.091-0.115,0.189-0.208,0.294-0.278c0.103-0.07,0.201-0.115,0.294-0.139c0.092-0.021,0.15-0.033,0.174-0.033
				c0.508,0.786,1.23,1.444,2.168,1.975c0.937,0.533,2.144,0.798,3.622,0.798c1.503,0,2.666-0.3,3.486-0.901
				c0.821-0.601,1.23-1.364,1.23-2.289c0-0.555-0.121-1.011-0.363-1.369s-0.589-0.652-1.039-0.886
				c-0.453-0.23-0.989-0.426-1.614-0.589c-0.623-0.161-1.316-0.322-2.08-0.486c-0.671-0.139-1.353-0.294-2.046-0.467
				c-0.693-0.173-1.318-0.422-1.874-0.746c-0.554-0.323-1.011-0.74-1.369-1.248s-0.537-1.167-0.537-1.978
				c0-0.693,0.149-1.334,0.451-1.923c0.3-0.591,0.717-1.093,1.247-1.51c0.533-0.416,1.175-0.739,1.925-0.971
				c0.752-0.23,1.591-0.346,2.516-0.346c1.294,0,2.38,0.179,3.26,0.538c0.877,0.358,1.561,0.779,2.046,1.265
				c0.416,0.417,0.623,0.821,0.623,1.214c0,0.163-0.046,0.307-0.139,0.433c-0.092,0.128-0.188,0.225-0.294,0.295
				c-0.104,0.069-0.203,0.116-0.295,0.139c-0.092,0.023-0.15,0.023-0.173,0c-0.416-0.716-1.063-1.312-1.942-1.786
				c-0.879-0.474-1.907-0.711-3.086-0.711c-1.435,0-2.549,0.296-3.348,0.884c-0.797,0.59-1.195,1.335-1.195,2.238
				c0,0.508,0.115,0.936,0.347,1.283c0.23,0.346,0.56,0.636,0.987,0.867c0.429,0.23,0.949,0.428,1.561,0.589
				c0.613,0.163,1.289,0.325,2.03,0.486c0.692,0.139,1.397,0.3,2.113,0.486c0.717,0.185,1.364,0.445,1.943,0.781
				c0.578,0.334,1.052,0.761,1.421,1.282c0.369,0.521,0.556,1.185,0.556,1.995c0,1.435-0.572,2.596-1.717,3.484
				C296.139,176.097,294.573,176.542,292.585,176.542z"/>
		</g>
		<g>
			<path fill="#FFFFFF" d="M80.98,196.861v-13.152c0-1.136,0.555-1.691,1.565-1.691H83.1c1.061,0,1.616,0.556,1.616,1.691v4.973
				h7.068v-4.973c0-1.136,0.555-1.691,1.565-1.691h0.53c1.085,0,1.641,0.556,1.641,1.691v13.152c0,1.111-0.555,1.691-1.641,1.691
				h-0.53c-1.01,0-1.565-0.581-1.565-1.691v-5.023h-7.068v5.023c0,1.111-0.555,1.691-1.616,1.691h-0.555
				C81.535,198.553,80.98,197.972,80.98,196.861z"/>
			<path fill="#FFFFFF" d="M104.203,196.18c1.868,0,2.903-0.833,3.483-1.817c0.025-0.05,1.717,0.177,1.717,1.616
				c0,1.312-1.894,2.802-5.326,2.802c-4.014,0-6.664-2.499-6.664-6.386c0-3.761,2.701-6.538,6.437-6.538
				c3.635,0,6.134,2.55,6.134,6.159v0.252c-0.025,0.631-0.202,0.984-0.858,0.984h-8.481
				C100.897,195.094,102.285,196.18,104.203,196.18z M106.677,191.182c-0.076-1.716-1.161-2.852-2.877-2.852
				c-1.666,0-2.928,1.186-3.155,2.852H106.677z"/>
			<path fill="#FFFFFF" d="M116.876,188.531c-1.717,0-2.6,0.934-3.055,1.893c0,0.051-2.297,0.126-2.297-1.515
				c0-1.54,1.817-3.054,5.579-3.054c3.887,0,5.806,1.767,5.806,5.074v7.295c0,0.177-0.656,0.404-1.338,0.404
				c-1.111,0-1.893-0.606-2.095-1.969c-0.883,1.287-2.423,2.07-4.266,2.07c-2.575,0-4.14-1.464-4.14-3.56
				c0-2.827,2.524-4.114,7.926-4.19h0.404C119.4,189.39,118.517,188.531,116.876,188.531z M119.4,193.63v-0.707l-0.656,0.025
				c-2.802,0.076-4.266,0.631-4.266,1.969c0,0.909,0.732,1.489,1.918,1.489C118.163,196.407,119.4,195.246,119.4,193.63z"/>
			<path fill="#FFFFFF" d="M125.332,196.861v-15.55c0-0.126,0.631-0.404,1.338-0.404c1.06,0,2.221,0.555,2.221,2.853v13.101
				c0,1.288-0.656,1.691-1.565,1.691h-0.378C126.014,198.553,125.332,198.174,125.332,196.861z"/>
			<path fill="#FFFFFF" d="M131.921,188.91c-1.01,0-1.489-0.429-1.489-1.237v-0.227c0-0.858,0.479-1.312,1.489-1.312h0.606v-1.565
				c0-1.162,0.605-1.717,1.615-1.717h0.303c0.959,0,1.59,0.404,1.59,1.717v1.565h2.146c1.01,0,1.438,0.429,1.438,1.262v0.202
				c0,0.858-0.454,1.312-1.489,1.312h-2.171v5.251c0,1.211,0.404,1.817,1.363,1.817c0.732,0,1.212-0.354,1.59-0.833
				c0.05-0.076,0.858,0.404,0.858,1.388c0,1.237-1.237,2.247-3.256,2.247c-2.727,0-3.988-1.439-3.988-4.215v-5.655H131.921z"/>
			<path fill="#FFFFFF" d="M148.834,185.855c3.23,0,4.594,2.322,4.594,5.2v5.806c0,1.288-0.656,1.691-1.564,1.691h-0.379
				c-0.959,0-1.615-0.379-1.615-1.691v-5.301c0-1.717-0.858-2.727-2.272-2.727c-1.666,0-2.726,1.111-2.726,2.878v5.149
				c0,1.288-0.656,1.691-1.565,1.691h-0.379c-0.959,0-1.615-0.379-1.615-1.691v-15.55c0-0.126,0.631-0.404,1.338-0.404
				c1.06,0,2.221,0.555,2.221,2.853v4.316C145.654,186.79,146.941,185.855,148.834,185.855z"/>
			<path fill="#FFFFFF" d="M159.083,195.498c0-1.035,1.287-1.969,1.413-1.868c0.984,1.187,2.853,2.247,4.872,2.247
				c1.943,0,2.979-0.732,2.979-1.994c0-1.464-1.641-1.691-3.56-2.121c-2.625-0.581-5.301-1.59-5.301-4.922
				c0-3.029,2.449-5.049,6.361-5.049c3.963,0,5.882,1.59,5.882,2.979c0,1.161-1.414,2.02-1.489,1.944
				c-0.959-1.136-2.601-2.02-4.342-2.02c-1.792,0-2.827,0.757-2.827,1.944c0,1.414,1.464,1.54,3.483,1.994
				c2.953,0.656,5.528,1.893,5.528,4.973c0,3.256-2.373,5.175-6.689,5.175C161.052,198.78,159.083,196.988,159.083,195.498z"/>
			<path fill="#FFFFFF" d="M173.219,192.318c0-3.812,2.701-6.462,6.614-6.462c3.887,0,6.537,2.65,6.537,6.487
				s-2.65,6.437-6.588,6.437C175.869,198.78,173.219,196.18,173.219,192.318z M183.24,192.343c0-2.146-1.438-3.71-3.433-3.71
				s-3.458,1.54-3.458,3.686c0,2.12,1.464,3.66,3.458,3.66C181.777,195.978,183.24,194.438,183.24,192.343z"/>
			<path fill="#FFFFFF" d="M187.507,192.318c0-3.761,2.727-6.437,6.487-6.437s5.25,2.171,5.25,3.332
				c0,1.439-1.893,1.691-1.969,1.565c-0.479-1.187-1.388-2.044-3.13-2.044c-1.943,0-3.357,1.489-3.357,3.584
				c0,2.095,1.414,3.609,3.357,3.609c1.691,0,2.65-0.858,3.13-2.044c0.051-0.126,1.969,0.076,1.969,1.59
				c0,1.161-1.564,3.307-5.25,3.307C190.183,198.78,187.507,196.104,187.507,192.318z"/>
			<path fill="#FFFFFF" d="M200.785,182.271c0-1.11,0.757-1.792,1.994-1.792c1.236,0,1.969,0.656,1.969,1.792
				c0,1.136-0.732,1.818-1.969,1.818C201.542,184.088,200.785,183.407,200.785,182.271z M200.987,196.861v-9.138
				c0-1.288,0.682-1.717,1.591-1.717h0.379c0.959,0,1.59,0.404,1.59,1.717v9.138c0,1.288-0.656,1.691-1.565,1.691h-0.378
				C201.668,198.553,200.987,198.174,200.987,196.861z"/>
			<path fill="#FFFFFF" d="M213.204,196.18c1.868,0,2.903-0.833,3.483-1.817c0.025-0.05,1.717,0.177,1.717,1.616
				c0,1.312-1.894,2.802-5.326,2.802c-4.014,0-6.664-2.499-6.664-6.386c0-3.761,2.701-6.538,6.437-6.538
				c3.635,0,6.134,2.55,6.134,6.159v0.252c-0.024,0.631-0.201,0.984-0.857,0.984h-8.482
				C209.898,195.094,211.286,196.18,213.204,196.18z M215.678,191.182c-0.075-1.716-1.161-2.852-2.877-2.852
				c-1.666,0-2.929,1.186-3.156,2.852H215.678z"/>
			<path fill="#FFFFFF" d="M221.152,188.91c-1.01,0-1.489-0.429-1.489-1.237v-0.227c0-0.858,0.479-1.312,1.489-1.312h0.605v-1.565
				c0-1.162,0.606-1.717,1.616-1.717h0.303c0.959,0,1.59,0.404,1.59,1.717v1.565h2.146c1.01,0,1.439,0.429,1.439,1.262v0.202
				c0,0.858-0.455,1.312-1.489,1.312h-2.171v5.251c0,1.211,0.403,1.817,1.362,1.817c0.732,0,1.212-0.354,1.591-0.833
				c0.051-0.076,0.858,0.404,0.858,1.388c0,1.237-1.237,2.247-3.257,2.247c-2.726,0-3.988-1.439-3.988-4.215v-5.655H221.152z"/>
			<path fill="#FFFFFF" d="M232.685,202.314l2.045-4.645c-0.581-0.076-0.935-0.277-1.161-0.782l-4.241-9.845
				c-0.075-0.202,0.858-1.035,1.944-1.035c0.833,0,1.539,0.379,1.994,1.767l2.676,7.043l2.372-7.018
				c0.43-1.389,1.187-1.792,1.969-1.792c1.01,0,1.995,0.808,1.919,0.985l-5.604,14.565c-0.53,1.338-1.237,1.742-2.02,1.742
				C233.543,203.298,232.584,202.491,232.685,202.314z"/>
		</g>
	</g>
	<path fill="#FFFFFF" d="M155.739,412.846c0.273,2.516,2.397,4.476,4.984,4.486l0,0c0.01,0,0.018,0.007,0.018,0.017
		c0,0.009-0.008,0.016-0.018,0.016l0,0l0,0c-2.768,0.012-5.005,2.253-5.015,5.019v0c0,0.01-0.008,0.017-0.017,0.017
		s-0.017-0.007-0.017-0.017v0c-0.009-2.769-2.252-5.012-5.023-5.018v-0.001c-0.01,0-0.017-0.007-0.017-0.016
		c0-0.01,0.007-0.018,0.017-0.018l0,0c2.673-0.005,4.854-2.093,5.013-4.726v-16.027h-21.147v16.268h-16.268v21.148h16.268v16.268
		h21.147v-6.958c0,0,0,0,0,0l0,0c-0.017-5.101-4.147-9.232-9.251-9.243v-0.001c-0.017,0-0.031-0.014-0.031-0.032
		c0-0.017,0.014-0.031,0.031-0.031v0c5.104-0.011,9.235-4.141,9.251-9.243l0,0c0.002-0.017,0.015-0.029,0.031-0.029
		s0.03,0.013,0.03,0.029l0,0v0v0.001c0.019,5.048,4.063,9.142,9.095,9.238h7.112v-21.148H155.739z M153.222,425.366L153.222,425.366
		L153.222,425.366c-2.768,0.011-5.005,2.253-5.014,5.02l0,0c0,0.009-0.008,0.017-0.017,0.017c-0.008,0-0.017-0.007-0.017-0.017l0,0
		c-0.009-2.77-2.251-5.012-5.023-5.019v-0.001c-0.01,0-0.017-0.007-0.017-0.016c0-0.009,0.006-0.017,0.017-0.018l0,0
		c2.771-0.006,5.014-2.249,5.023-5.018l0,0c0.001-0.009,0.009-0.016,0.017-0.016c0.009,0,0.017,0.007,0.017,0.016v0l0,0
		c0.009,2.766,2.247,5.007,5.014,5.018l0,0c0.009,0,0.017,0.008,0.017,0.017C153.239,425.359,153.231,425.366,153.222,425.366z
		 M168.224,425.366L168.224,425.366L168.224,425.366c-2.768,0.011-5.005,2.253-5.015,5.02l0,0c0,0.009-0.008,0.017-0.017,0.017
		s-0.017-0.007-0.017-0.017l0,0c-0.01-2.77-2.251-5.012-5.023-5.019v-0.001c-0.009,0-0.017-0.007-0.017-0.016
		c0-0.009,0.008-0.017,0.017-0.018l0,0c2.771-0.006,5.014-2.249,5.023-5.018l0,0c0.001-0.009,0.008-0.016,0.017-0.016
		s0.016,0.007,0.017,0.016v0l0,0c0.01,2.766,2.248,5.007,5.015,5.018l0,0c0.01,0,0.017,0.008,0.017,0.017
		C168.24,425.359,168.234,425.366,168.224,425.366z"/>
	<g>
		<path fill="#FFFFFF" d="M62.99,472.255c-1.36,0-2.518-0.193-3.473-0.581c-0.955-0.388-1.696-0.854-2.225-1.403
			c-0.322-0.321-0.553-0.629-0.695-0.922c-0.141-0.294-0.211-0.543-0.211-0.752c0-0.15,0.042-0.283,0.127-0.396
			s0.175-0.208,0.27-0.283c0.095-0.077,0.188-0.129,0.283-0.157c0.094-0.028,0.151-0.033,0.171-0.014
			c0.188,0.416,0.444,0.817,0.765,1.204c0.322,0.389,0.714,0.738,1.178,1.049c0.462,0.313,1.01,0.563,1.644,0.752
			c0.633,0.19,1.347,0.284,2.14,0.284c1.513,0,2.698-0.336,3.559-1.006c0.859-0.671,1.29-1.583,1.29-2.736
			c0-0.661-0.147-1.215-0.439-1.659c-0.294-0.444-0.68-0.812-1.163-1.105c-0.482-0.293-1.04-0.529-1.673-0.71
			c-0.634-0.18-1.3-0.354-1.999-0.524c-0.699-0.169-1.389-0.364-2.069-0.581c-0.68-0.218-1.29-0.511-1.828-0.88
			c-0.539-0.367-0.969-0.835-1.291-1.403c-0.322-0.566-0.482-1.284-0.482-2.154c0-0.719,0.152-1.379,0.453-1.985
			c0.303-0.605,0.724-1.124,1.262-1.56c0.54-0.434,1.167-0.774,1.886-1.02c0.719-0.245,1.503-0.369,2.354-0.369
			c1.247,0,2.301,0.179,3.162,0.538c0.859,0.36,1.524,0.767,1.999,1.219c0.529,0.566,0.793,1.06,0.793,1.475
			c0,0.151-0.043,0.288-0.128,0.411c-0.084,0.123-0.175,0.217-0.269,0.283c-0.094,0.067-0.188,0.119-0.284,0.155
			c-0.095,0.039-0.151,0.048-0.17,0.03c-0.17-0.378-0.401-0.743-0.695-1.092c-0.293-0.35-0.652-0.657-1.077-0.921
			c-0.425-0.265-0.913-0.479-1.46-0.639c-0.548-0.16-1.162-0.24-1.842-0.24c-0.663,0-1.277,0.085-1.843,0.254
			c-0.568,0.17-1.055,0.417-1.461,0.737c-0.407,0.322-0.724,0.709-0.95,1.163c-0.227,0.454-0.34,0.964-0.34,1.532
			c0,0.623,0.127,1.139,0.383,1.545c0.254,0.407,0.605,0.746,1.049,1.02c0.444,0.275,0.968,0.497,1.573,0.667
			c0.605,0.17,1.266,0.341,1.985,0.511c0.738,0.169,1.461,0.373,2.169,0.609c0.709,0.236,1.347,0.547,1.914,0.935
			c0.566,0.389,1.02,0.875,1.36,1.461c0.342,0.586,0.511,1.323,0.511,2.211c0,0.756-0.147,1.445-0.439,2.07
			c-0.294,0.623-0.714,1.153-1.262,1.587c-0.549,0.436-1.2,0.775-1.957,1.021C64.786,472.133,63.935,472.255,62.99,472.255z"/>
		<path fill="#FFFFFF" d="M78.045,472.255c-1.002,0-1.924-0.179-2.765-0.538c-0.84-0.358-1.564-0.851-2.168-1.475
			c-0.605-0.624-1.077-1.362-1.418-2.212c-0.34-0.85-0.51-1.777-0.51-2.778c0-1.001,0.17-1.928,0.51-2.778
			c0.341-0.851,0.813-1.587,1.418-2.211c0.604-0.624,1.328-1.11,2.168-1.46c0.841-0.35,1.762-0.524,2.765-0.524
			c1.001,0,1.917,0.179,2.75,0.538c0.832,0.359,1.55,0.851,2.155,1.474c0.604,0.624,1.076,1.366,1.418,2.225
			c0.339,0.861,0.509,1.792,0.509,2.794c0,0.982-0.17,1.899-0.509,2.75c-0.342,0.851-0.813,1.587-1.418,2.212
			c-0.605,0.624-1.324,1.111-2.155,1.46C79.963,472.082,79.047,472.255,78.045,472.255z M78.045,471.064
			c0.794,0,1.521-0.146,2.183-0.439c0.661-0.292,1.238-0.695,1.729-1.206c0.492-0.509,0.875-1.119,1.148-1.828
			c0.275-0.709,0.411-1.469,0.411-2.282c0-0.832-0.136-1.603-0.411-2.311c-0.273-0.709-0.651-1.323-1.133-1.843
			c-0.481-0.521-1.059-0.932-1.729-1.234c-0.671-0.302-1.403-0.454-2.197-0.454c-0.793,0-1.526,0.147-2.197,0.441
			c-0.671,0.293-1.253,0.699-1.744,1.218c-0.492,0.52-0.875,1.13-1.148,1.829c-0.274,0.699-0.412,1.465-0.412,2.296
			c0,0.812,0.137,1.574,0.412,2.282c0.273,0.708,0.656,1.33,1.148,1.858c0.491,0.529,1.072,0.94,1.744,1.233
			C76.519,470.919,77.252,471.064,78.045,471.064z"/>
		<path fill="#FFFFFF" d="M92.844,472.255c-0.888,0-1.667-0.141-2.337-0.425c-0.672-0.282-1.229-0.689-1.673-1.217
			c-0.444-0.53-0.78-1.16-1.007-1.887c-0.226-0.727-0.339-1.544-0.339-2.452v-7.144c0-0.265,0.057-0.439,0.17-0.525
			c0.113-0.085,0.255-0.128,0.425-0.128h0.17c0.169,0,0.312,0.043,0.426,0.128c0.113,0.085,0.17,0.26,0.17,0.525v7.059
			c0,1.474,0.349,2.641,1.049,3.501c0.698,0.861,1.71,1.291,3.033,1.291c1.134,0,2.102-0.285,2.906-0.851
			c0.804-0.567,1.414-1.322,1.829-2.268v-8.732c0-0.265,0.056-0.439,0.17-0.525c0.113-0.085,0.254-0.128,0.425-0.128h0.17
			c0.169,0,0.312,0.043,0.424,0.128c0.113,0.085,0.17,0.26,0.17,0.525v12.786c0,0.019-0.047,0.048-0.141,0.084
			c-0.095,0.039-0.208,0.058-0.341,0.058c-0.227,0-0.424-0.089-0.594-0.27c-0.17-0.179-0.255-0.542-0.255-1.092v-1.219
			c-0.455,0.795-1.092,1.456-1.915,1.985C94.956,471.991,93.978,472.255,92.844,472.255z"/>
		<path fill="#FFFFFF" d="M106.992,472.255c-1.191,0-2.075-0.34-2.651-1.02c-0.577-0.68-0.865-1.729-0.865-3.147v-8.308h-1.644
			c-0.265,0-0.439-0.047-0.524-0.142s-0.128-0.227-0.128-0.397v-0.141c0-0.17,0.042-0.302,0.128-0.397
			c0.085-0.094,0.26-0.142,0.524-0.142h1.644v-2.608c0-0.265,0.057-0.444,0.17-0.539c0.113-0.095,0.255-0.141,0.426-0.141h0.17
			c0.17,0,0.306,0.046,0.412,0.141c0.102,0.095,0.155,0.274,0.155,0.539v2.608h3.885c0.264,0,0.444,0.048,0.538,0.142
			c0.096,0.095,0.143,0.227,0.143,0.397v0.141c0,0.17-0.047,0.303-0.143,0.397c-0.094,0.095-0.273,0.142-0.538,0.142h-3.885v8.166
			c0,1.114,0.175,1.919,0.524,2.409c0.351,0.493,0.921,0.738,1.715,0.738c0.491,0,0.917-0.104,1.277-0.312
			c0.358-0.208,0.66-0.492,0.906-0.851c0.039-0.018,0.124,0.025,0.256,0.127c0.133,0.104,0.198,0.288,0.198,0.555
			c0,0.113-0.034,0.244-0.099,0.396c-0.066,0.15-0.185,0.303-0.355,0.453c-0.208,0.227-0.495,0.417-0.864,0.568
			S107.539,472.255,106.992,472.255z"/>
		<path fill="#FFFFFF" d="M111.951,471.929c-0.113-0.084-0.17-0.26-0.17-0.524v-18.513c0-0.019,0.042-0.047,0.129-0.085
			c0.083-0.038,0.193-0.057,0.325-0.057c0.245,0,0.459,0.085,0.638,0.255c0.18,0.17,0.27,0.531,0.27,1.078v7.117
			c0.396-0.87,1.011-1.573,1.842-2.113c0.832-0.538,1.805-0.807,2.92-0.807c0.908,0,1.696,0.141,2.368,0.425
			c0.67,0.284,1.233,0.69,1.686,1.219c0.454,0.529,0.793,1.159,1.021,1.885c0.227,0.729,0.341,1.545,0.341,2.453v7.144
			c0,0.265-0.058,0.44-0.171,0.524c-0.114,0.086-0.256,0.128-0.426,0.128h-0.169c-0.17,0-0.313-0.042-0.426-0.128
			c-0.114-0.084-0.17-0.26-0.17-0.524v-7.06c0-1.493-0.354-2.665-1.063-3.515s-1.734-1.276-3.075-1.276
			c-0.681,0-1.305,0.113-1.871,0.34c-0.568,0.228-1.06,0.544-1.476,0.95c-0.417,0.407-0.742,0.897-0.978,1.474
			c-0.237,0.578-0.354,1.224-0.354,1.942v7.144c0,0.265-0.056,0.44-0.17,0.524c-0.114,0.086-0.255,0.128-0.426,0.128h-0.169
			C112.208,472.058,112.065,472.015,111.951,471.929z"/>
		<path fill="#FFFFFF" d="M127.701,467.705c0.274,0.69,0.656,1.285,1.148,1.787c0.491,0.5,1.073,0.889,1.743,1.163
			c0.671,0.273,1.404,0.41,2.198,0.41c0.698,0,1.309-0.08,1.83-0.241c0.519-0.159,0.972-0.368,1.359-0.623
			c0.388-0.256,0.709-0.543,0.965-0.865c0.255-0.321,0.468-0.651,0.638-0.992c0.019-0.019,0.072-0.019,0.156,0
			c0.085,0.018,0.175,0.061,0.27,0.127c0.093,0.066,0.179,0.152,0.254,0.255c0.075,0.104,0.113,0.241,0.113,0.412
			c0,0.151-0.065,0.354-0.197,0.61c-0.135,0.254-0.352,0.534-0.653,0.835c-0.417,0.417-1.025,0.8-1.829,1.149
			s-1.771,0.523-2.906,0.523c-1.021,0-1.956-0.174-2.807-0.523s-1.574-0.832-2.169-1.446c-0.595-0.613-1.059-1.348-1.388-2.197
			c-0.332-0.851-0.497-1.777-0.497-2.778c0-1.002,0.17-1.933,0.511-2.794c0.34-0.858,0.808-1.601,1.403-2.225
			c0.595-0.624,1.299-1.115,2.112-1.474c0.812-0.359,1.701-0.538,2.665-0.538c0.925,0,1.769,0.155,2.524,0.468
			c0.754,0.311,1.404,0.756,1.942,1.332c0.538,0.577,0.953,1.267,1.246,2.07c0.293,0.804,0.44,1.696,0.44,2.679v0.141
			c0,0.209-0.047,0.342-0.142,0.397c-0.094,0.058-0.246,0.085-0.452,0.085h-10.917C127.28,466.265,127.427,467.015,127.701,467.705z
			 M137.354,464.289c-0.019-0.718-0.15-1.371-0.396-1.957c-0.246-0.586-0.571-1.091-0.979-1.517
			c-0.406-0.425-0.896-0.755-1.474-0.993c-0.576-0.236-1.205-0.354-1.886-0.354c-0.699,0-1.347,0.118-1.941,0.354
			c-0.596,0.238-1.126,0.568-1.589,0.993c-0.463,0.426-0.845,0.936-1.147,1.532c-0.302,0.595-0.501,1.243-0.595,1.942H137.354z"/>
		<path fill="#FFFFFF" d="M141.438,471.405v-12.787c0-0.018,0.042-0.046,0.128-0.085c0.084-0.037,0.192-0.057,0.325-0.057
			c0.245,0,0.454,0.091,0.625,0.271c0.17,0.179,0.254,0.543,0.254,1.091v1.701c0.284-1.134,0.742-1.96,1.376-2.481
			c0.632-0.519,1.404-0.778,2.31-0.778c0.548,0,1.001,0.103,1.361,0.311c0.359,0.209,0.54,0.482,0.54,0.822
			c0,0.266-0.058,0.454-0.171,0.567s-0.188,0.162-0.227,0.143c-0.188-0.151-0.42-0.28-0.695-0.383
			c-0.274-0.104-0.581-0.157-0.921-0.157c-1.21,0-2.104,0.548-2.679,1.644c-0.577,1.097-0.865,2.553-0.865,4.367v5.812
			c0,0.246-0.057,0.417-0.17,0.511s-0.256,0.142-0.426,0.142h-0.142C141.645,472.058,141.438,471.841,141.438,471.405z"/>
		<path fill="#FFFFFF" d="M150.622,471.929c-0.113-0.084-0.17-0.26-0.17-0.524v-12.787c0-0.018,0.043-0.046,0.128-0.085
			c0.085-0.037,0.194-0.057,0.326-0.057c0.246,0,0.454,0.091,0.624,0.271c0.169,0.179,0.255,0.543,0.255,1.091v1.22
			c0.434-0.794,1.062-1.456,1.885-1.985c0.821-0.529,1.801-0.793,2.936-0.793c0.888,0,1.667,0.141,2.339,0.425
			s1.232,0.69,1.687,1.219c0.454,0.529,0.794,1.159,1.021,1.885c0.227,0.729,0.34,1.545,0.34,2.453v7.144
			c0,0.265-0.058,0.44-0.17,0.524c-0.113,0.086-0.257,0.128-0.427,0.128h-0.17c-0.17,0-0.312-0.042-0.425-0.128
			c-0.112-0.084-0.17-0.26-0.17-0.524v-7.06c0-1.474-0.351-2.641-1.051-3.5c-0.698-0.86-1.709-1.291-3.03-1.291
			c-1.136,0-2.104,0.283-2.907,0.85c-0.803,0.567-1.413,1.324-1.829,2.269v8.732c0,0.265-0.056,0.44-0.17,0.524
			c-0.113,0.086-0.255,0.128-0.426,0.128h-0.169C150.877,472.058,150.737,472.015,150.622,471.929z"/>
		<path fill="#FFFFFF" d="M178.692,472.255c-1.361,0-2.601-0.231-3.716-0.694c-1.114-0.463-2.068-1.11-2.864-1.942
			c-0.792-0.832-1.407-1.823-1.843-2.977s-0.65-2.42-0.65-3.8c0-1.379,0.221-2.651,0.666-3.813c0.444-1.162,1.066-2.164,1.871-3.005
			c0.803-0.841,1.763-1.497,2.878-1.97c1.114-0.472,2.342-0.708,3.684-0.708c1.438,0,2.638,0.222,3.604,0.667
			c0.962,0.444,1.718,0.94,2.268,1.489c0.32,0.321,0.562,0.642,0.723,0.964c0.159,0.321,0.241,0.577,0.241,0.765
			s-0.04,0.341-0.113,0.453c-0.076,0.113-0.166,0.203-0.271,0.269c-0.104,0.067-0.199,0.109-0.284,0.128
			c-0.085,0.02-0.137,0.02-0.154,0c-0.492-1.021-1.272-1.861-2.339-2.524c-1.069-0.662-2.311-0.991-3.729-0.991
			c-1.117,0-2.137,0.203-3.062,0.609c-0.926,0.407-1.725,0.978-2.396,1.715s-1.191,1.612-1.561,2.623
			c-0.366,1.011-0.552,2.111-0.552,3.303c0,1.192,0.186,2.288,0.552,3.29c0.369,1.001,0.89,1.867,1.561,2.593
			c0.671,0.728,1.479,1.299,2.422,1.714c0.946,0.417,1.986,0.625,3.122,0.625c0.85,0,1.614-0.109,2.294-0.326
			c0.682-0.216,1.283-0.51,1.802-0.879c0.519-0.368,0.955-0.789,1.306-1.261c0.348-0.473,0.608-0.964,0.778-1.476
			c0.019-0.017,0.074-0.017,0.17,0c0.095,0.02,0.199,0.058,0.312,0.115c0.114,0.056,0.217,0.146,0.312,0.269
			c0.094,0.124,0.141,0.27,0.141,0.441c0,0.206-0.098,0.521-0.297,0.936c-0.199,0.416-0.517,0.831-0.95,1.247
			c-0.548,0.547-1.324,1.044-2.325,1.488C181.288,472.034,180.089,472.255,178.692,472.255z"/>
		<path fill="#FFFFFF" d="M188.556,471.405v-12.787c0-0.018,0.042-0.046,0.129-0.085c0.085-0.037,0.194-0.057,0.326-0.057
			c0.244,0,0.454,0.091,0.624,0.271c0.17,0.179,0.255,0.543,0.255,1.091v1.701c0.282-1.134,0.742-1.96,1.375-2.481
			c0.633-0.519,1.404-0.778,2.309-0.778c0.55,0,1.002,0.103,1.363,0.311c0.358,0.209,0.539,0.482,0.539,0.822
			c0,0.266-0.058,0.454-0.172,0.567c-0.112,0.113-0.188,0.162-0.226,0.143c-0.188-0.151-0.421-0.28-0.695-0.383
			c-0.273-0.104-0.58-0.157-0.922-0.157c-1.209,0-2.104,0.548-2.679,1.644c-0.577,1.097-0.863,2.553-0.863,4.367v5.812
			c0,0.246-0.058,0.417-0.172,0.511c-0.112,0.094-0.255,0.142-0.425,0.142h-0.142C188.764,472.058,188.556,471.841,188.556,471.405z
			"/>
		<path fill="#FFFFFF" d="M203.3,472.255c-1.004,0-1.925-0.179-2.766-0.538c-0.841-0.358-1.563-0.851-2.169-1.475
			c-0.603-0.624-1.076-1.362-1.416-2.212c-0.342-0.85-0.512-1.777-0.512-2.778c0-1.001,0.17-1.928,0.512-2.778
			c0.34-0.851,0.813-1.587,1.416-2.211c0.605-0.624,1.328-1.11,2.169-1.46c0.841-0.35,1.762-0.524,2.766-0.524
			c1,0,1.918,0.179,2.75,0.538s1.55,0.851,2.154,1.474c0.605,0.624,1.079,1.366,1.419,2.225c0.34,0.861,0.51,1.792,0.51,2.794
			c0,0.982-0.17,1.899-0.51,2.75c-0.34,0.851-0.813,1.587-1.419,2.212c-0.604,0.624-1.322,1.111-2.154,1.46
			S204.3,472.255,203.3,472.255z M203.3,471.064c0.794,0,1.521-0.146,2.183-0.439c0.661-0.292,1.238-0.695,1.729-1.206
			c0.492-0.509,0.874-1.119,1.147-1.828c0.276-0.709,0.413-1.469,0.413-2.282c0-0.832-0.137-1.603-0.413-2.311
			c-0.273-0.709-0.649-1.323-1.132-1.843c-0.483-0.521-1.06-0.932-1.73-1.234c-0.671-0.302-1.402-0.454-2.196-0.454
			s-1.529,0.147-2.196,0.441c-0.671,0.293-1.254,0.699-1.744,1.218c-0.493,0.52-0.876,1.13-1.148,1.829
			c-0.275,0.699-0.412,1.465-0.412,2.296c0,0.812,0.137,1.574,0.412,2.282c0.272,0.708,0.655,1.33,1.148,1.858
			c0.49,0.529,1.073,0.94,1.744,1.233C201.771,470.919,202.506,471.064,203.3,471.064z"/>
		<path fill="#FFFFFF" d="M217.164,472.255c-1.19,0-2.179-0.156-2.964-0.468c-0.786-0.311-1.384-0.676-1.802-1.092
			c-0.243-0.245-0.414-0.452-0.51-0.622c-0.096-0.171-0.141-0.331-0.141-0.483c0-0.149,0.037-0.272,0.113-0.368
			c0.074-0.094,0.155-0.17,0.24-0.227c0.085-0.058,0.165-0.094,0.241-0.114c0.075-0.017,0.123-0.027,0.143-0.027
			c0.414,0.642,1.005,1.18,1.771,1.614c0.767,0.436,1.753,0.653,2.961,0.653c1.229,0,2.18-0.246,2.851-0.738
			c0.673-0.491,1.006-1.114,1.006-1.871c0-0.454-0.098-0.826-0.297-1.12c-0.197-0.292-0.48-0.533-0.85-0.724
			c-0.371-0.188-0.808-0.348-1.319-0.481c-0.51-0.131-1.076-0.263-1.7-0.397c-0.55-0.113-1.106-0.24-1.674-0.382
			c-0.566-0.141-1.078-0.345-1.53-0.61c-0.454-0.263-0.827-0.604-1.12-1.02s-0.438-0.953-0.438-1.617
			c0-0.566,0.121-1.091,0.369-1.573c0.244-0.483,0.586-0.894,1.018-1.234c0.437-0.339,0.962-0.604,1.574-0.793
			c0.614-0.188,1.301-0.283,2.058-0.283c1.057,0,1.944,0.146,2.665,0.439c0.716,0.293,1.276,0.637,1.672,1.034
			c0.34,0.34,0.51,0.671,0.51,0.992c0,0.133-0.037,0.251-0.115,0.354c-0.074,0.105-0.152,0.185-0.24,0.241
			c-0.084,0.057-0.165,0.095-0.239,0.113c-0.075,0.02-0.123,0.02-0.141,0c-0.342-0.585-0.87-1.072-1.588-1.46
			c-0.722-0.387-1.561-0.581-2.523-0.581c-1.173,0-2.084,0.242-2.737,0.723c-0.651,0.483-0.978,1.091-0.978,1.83
			c0,0.416,0.094,0.765,0.282,1.049c0.189,0.283,0.46,0.52,0.809,0.708c0.35,0.188,0.776,0.35,1.275,0.481
			c0.503,0.132,1.053,0.266,1.659,0.397c0.567,0.113,1.145,0.245,1.729,0.397c0.586,0.151,1.115,0.363,1.588,0.638
			c0.474,0.274,0.862,0.622,1.164,1.049c0.302,0.425,0.452,0.968,0.452,1.63c0,1.173-0.468,2.122-1.402,2.849
			C220.069,471.892,218.787,472.255,217.164,472.255z"/>
		<path fill="#FFFFFF" d="M229.44,472.255c-1.191,0-2.178-0.156-2.961-0.468c-0.786-0.311-1.388-0.676-1.802-1.092
			c-0.246-0.245-0.416-0.452-0.512-0.622c-0.094-0.171-0.14-0.331-0.14-0.483c0-0.149,0.036-0.272,0.112-0.368
			c0.076-0.094,0.156-0.17,0.242-0.227c0.082-0.058,0.163-0.094,0.239-0.114c0.075-0.017,0.123-0.027,0.143-0.027
			c0.414,0.642,1.006,1.18,1.771,1.614c0.767,0.436,1.753,0.653,2.962,0.653c1.229,0,2.179-0.246,2.85-0.738
			c0.671-0.491,1.006-1.114,1.006-1.871c0-0.454-0.099-0.826-0.296-1.12c-0.198-0.292-0.482-0.533-0.85-0.724
			c-0.37-0.188-0.811-0.348-1.319-0.481c-0.51-0.131-1.077-0.263-1.701-0.397c-0.548-0.113-1.106-0.24-1.673-0.382
			c-0.565-0.141-1.077-0.345-1.533-0.61c-0.45-0.263-0.825-0.604-1.118-1.02s-0.44-0.953-0.44-1.617
			c0-0.566,0.123-1.091,0.369-1.573c0.247-0.483,0.586-0.894,1.021-1.234c0.436-0.339,0.959-0.604,1.572-0.793
			c0.614-0.188,1.301-0.283,2.057-0.283c1.06,0,1.947,0.146,2.665,0.439s1.275,0.637,1.673,1.034c0.342,0.34,0.51,0.671,0.51,0.992
			c0,0.133-0.038,0.251-0.113,0.354c-0.074,0.105-0.155,0.185-0.24,0.241s-0.167,0.095-0.241,0.113c-0.076,0.02-0.123,0.02-0.141,0
			c-0.342-0.585-0.87-1.072-1.59-1.46c-0.718-0.387-1.559-0.581-2.522-0.581c-1.172,0-2.084,0.242-2.736,0.723
			c-0.651,0.483-0.978,1.091-0.978,1.83c0,0.416,0.094,0.765,0.284,1.049c0.189,0.283,0.456,0.52,0.807,0.708
			c0.352,0.188,0.776,0.35,1.275,0.481c0.502,0.132,1.055,0.266,1.661,0.397c0.565,0.113,1.141,0.245,1.727,0.397
			c0.587,0.151,1.115,0.363,1.589,0.638c0.473,0.274,0.859,0.622,1.161,1.049c0.302,0.425,0.456,0.968,0.456,1.63
			c0,1.173-0.468,2.122-1.404,2.849C232.345,471.892,231.066,472.255,229.44,472.255z"/>
	</g>
	<g>
		<path fill="#FFFFFF" d="M79.632,488.868v-10.753c0-0.927,0.454-1.382,1.279-1.382h0.453c0.867,0,1.321,0.455,1.321,1.382v4.067
			h5.778v-4.067c0-0.927,0.455-1.382,1.28-1.382h0.433c0.888,0,1.342,0.455,1.342,1.382v10.753c0,0.908-0.454,1.383-1.342,1.383
			h-0.433c-0.825,0-1.28-0.475-1.28-1.383v-4.107h-5.778v4.107c0,0.908-0.454,1.383-1.321,1.383h-0.453
			C80.086,490.251,79.632,489.776,79.632,488.868z"/>
		<path fill="#FFFFFF" d="M98.617,488.311c1.527,0,2.373-0.681,2.848-1.486c0.021-0.041,1.403,0.145,1.403,1.322
			c0,1.073-1.548,2.29-4.354,2.29c-3.282,0-5.448-2.042-5.448-5.221c0-3.074,2.208-5.345,5.262-5.345
			c2.971,0,5.015,2.084,5.015,5.035v0.207c-0.021,0.516-0.166,0.805-0.703,0.805h-6.933
			C95.914,487.423,97.049,488.311,98.617,488.311z M100.639,484.225c-0.062-1.403-0.949-2.331-2.353-2.331
			c-1.362,0-2.394,0.969-2.579,2.331H100.639z"/>
		<path fill="#FFFFFF" d="M108.978,482.058c-1.404,0-2.126,0.763-2.498,1.547c0,0.042-1.877,0.104-1.877-1.238
			c0-1.259,1.485-2.497,4.561-2.497c3.177,0,4.745,1.445,4.745,4.148v5.964c0,0.145-0.537,0.331-1.093,0.331
			c-0.908,0-1.547-0.496-1.713-1.61c-0.722,1.053-1.98,1.692-3.487,1.692c-2.105,0-3.384-1.197-3.384-2.91
			c0-2.312,2.063-3.363,6.479-3.425h0.331C111.041,482.76,110.319,482.058,108.978,482.058z M111.041,486.227v-0.578l-0.537,0.021
			c-2.291,0.062-3.488,0.516-3.488,1.609c0,0.743,0.599,1.217,1.569,1.217C110.03,488.496,111.041,487.547,111.041,486.227z"/>
		<path fill="#FFFFFF" d="M115.891,488.868v-12.713c0-0.103,0.516-0.329,1.093-0.329c0.867,0,1.816,0.453,1.816,2.331v10.711
			c0,1.052-0.537,1.383-1.279,1.383h-0.31C116.448,490.251,115.891,489.941,115.891,488.868z"/>
		<path fill="#FFFFFF" d="M121.277,482.368c-0.826,0-1.217-0.351-1.217-1.011v-0.186c0-0.702,0.391-1.073,1.217-1.073h0.496v-1.279
			c0-0.95,0.495-1.404,1.32-1.404h0.249c0.784,0,1.3,0.331,1.3,1.404v1.279h1.754c0.825,0,1.176,0.352,1.176,1.032v0.166
			c0,0.701-0.372,1.073-1.218,1.073h-1.775v4.292c0,0.991,0.331,1.487,1.115,1.487c0.599,0,0.991-0.289,1.299-0.682
			c0.042-0.062,0.703,0.33,0.703,1.135c0,1.011-1.011,1.836-2.663,1.836c-2.229,0-3.26-1.176-3.26-3.446v-4.623H121.277z"/>
		<path fill="#FFFFFF" d="M135.104,479.871c2.642,0,3.756,1.898,3.756,4.251v4.746c0,1.052-0.537,1.383-1.279,1.383h-0.309
			c-0.784,0-1.321-0.31-1.321-1.383v-4.333c0-1.403-0.702-2.229-1.858-2.229c-1.362,0-2.228,0.908-2.228,2.353v4.21
			c0,1.052-0.537,1.383-1.28,1.383h-0.31c-0.784,0-1.32-0.31-1.32-1.383v-12.713c0-0.103,0.516-0.329,1.094-0.329
			c0.866,0,1.816,0.453,1.816,2.331v3.529C132.504,480.634,133.556,479.871,135.104,479.871z"/>
		<path fill="#FFFFFF" d="M143.483,487.753c0-0.846,1.052-1.609,1.155-1.526c0.805,0.969,2.332,1.836,3.983,1.836
			c1.589,0,2.435-0.598,2.435-1.63c0-1.198-1.34-1.383-2.91-1.734c-2.146-0.474-4.333-1.3-4.333-4.023
			c0-2.477,2.002-4.127,5.201-4.127c3.24,0,4.808,1.3,4.808,2.435c0,0.95-1.155,1.651-1.218,1.589
			c-0.783-0.929-2.125-1.651-3.549-1.651c-1.465,0-2.312,0.618-2.312,1.589c0,1.155,1.197,1.258,2.847,1.63
			c2.416,0.537,4.52,1.547,4.52,4.065c0,2.662-1.94,4.229-5.469,4.229C145.093,490.436,143.483,488.972,143.483,487.753z"/>
		<path fill="#FFFFFF" d="M155.039,485.154c0-3.117,2.207-5.283,5.408-5.283c3.176,0,5.343,2.167,5.343,5.303
			s-2.167,5.262-5.385,5.262C157.207,490.436,155.039,488.311,155.039,485.154z M163.232,485.174c0-1.754-1.176-3.033-2.806-3.033
			c-1.631,0-2.827,1.258-2.827,3.013c0,1.732,1.196,2.993,2.827,2.993C162.035,488.146,163.232,486.886,163.232,485.174z"/>
		<path fill="#FFFFFF" d="M166.72,485.154c0-3.075,2.229-5.263,5.304-5.263c3.075,0,4.293,1.775,4.293,2.724
			c0,1.177-1.549,1.383-1.611,1.279c-0.392-0.969-1.134-1.671-2.557-1.671c-1.59,0-2.747,1.217-2.747,2.931
			c0,1.712,1.157,2.951,2.747,2.951c1.382,0,2.165-0.702,2.557-1.672c0.042-0.104,1.611,0.062,1.611,1.3
			c0,0.95-1.28,2.703-4.293,2.703C168.907,490.436,166.72,488.248,166.72,485.154z"/>
		<path fill="#FFFFFF" d="M177.574,476.939c0-0.908,0.619-1.465,1.632-1.465c1.011,0,1.609,0.537,1.609,1.465
			c0,0.929-0.599,1.486-1.609,1.486C178.194,478.425,177.574,477.868,177.574,476.939z M177.74,488.868v-7.47
			c0-1.053,0.559-1.404,1.301-1.404h0.31c0.784,0,1.301,0.33,1.301,1.404v7.47c0,1.052-0.537,1.383-1.279,1.383h-0.311
			C178.298,490.251,177.74,489.941,177.74,488.868z"/>
		<path fill="#FFFFFF" d="M187.728,488.311c1.527,0,2.373-0.681,2.849-1.486c0.021-0.041,1.404,0.145,1.404,1.322
			c0,1.073-1.549,2.29-4.355,2.29c-3.282,0-5.447-2.042-5.447-5.221c0-3.074,2.207-5.345,5.262-5.345
			c2.972,0,5.014,2.084,5.014,5.035v0.207c-0.019,0.516-0.164,0.805-0.7,0.805h-6.935
			C185.025,487.423,186.16,488.311,187.728,488.311z M189.751,484.225c-0.062-1.403-0.95-2.331-2.353-2.331
			c-1.361,0-2.395,0.969-2.58,2.331H189.751z"/>
		<path fill="#FFFFFF" d="M194.226,482.368c-0.825,0-1.217-0.351-1.217-1.011v-0.186c0-0.702,0.392-1.073,1.217-1.073h0.494v-1.279
			c0-0.95,0.496-1.404,1.322-1.404h0.247c0.783,0,1.3,0.331,1.3,1.404v1.279h1.755c0.825,0,1.175,0.352,1.175,1.032v0.166
			c0,0.701-0.371,1.073-1.217,1.073h-1.775v4.292c0,0.991,0.331,1.487,1.115,1.487c0.598,0,0.989-0.289,1.3-0.682
			c0.042-0.062,0.702,0.33,0.702,1.135c0,1.011-1.013,1.836-2.663,1.836c-2.228,0-3.261-1.176-3.261-3.446v-4.623H194.226z"/>
		<path fill="#FFFFFF" d="M203.654,493.326l1.673-3.798c-0.475-0.062-0.765-0.227-0.95-0.64l-3.467-8.048
			c-0.061-0.165,0.702-0.846,1.59-0.846c0.681,0,1.259,0.31,1.63,1.444l2.188,5.758l1.94-5.737c0.35-1.135,0.969-1.465,1.608-1.465
			c0.825,0,1.632,0.66,1.569,0.806l-4.582,11.907c-0.434,1.094-1.011,1.424-1.65,1.424
			C204.356,494.131,203.573,493.47,203.654,493.326z"/>
	</g>
	<path fill="#FFFFFF" d="M158.962,734.356c0.229,2.117,2.017,3.767,4.195,3.775l0,0c0.008,0,0.015,0.006,0.015,0.014
		c0,0.009-0.007,0.014-0.015,0.014l0,0l0,0c-2.33,0.01-4.214,1.896-4.222,4.226l0,0c0,0.007-0.006,0.013-0.014,0.013
		s-0.015-0.006-0.015-0.013l0,0c-0.007-2.331-1.895-4.22-4.228-4.225v-0.001c-0.008,0-0.014-0.005-0.014-0.014
		c0-0.008,0.006-0.015,0.014-0.015l0,0c2.25-0.005,4.084-1.761,4.22-3.978v-13.488H141.1v13.691h-13.692v17.799H141.1v13.691H158.9
		v-5.854c0,0,0,0,0-0.001l0,0c-0.015-4.293-3.491-7.771-7.787-7.779v-0.001c-0.014,0-0.026-0.012-0.026-0.026
		c0-0.014,0.013-0.026,0.026-0.026l0,0c4.295-0.01,7.772-3.485,7.787-7.779l0,0c0.001-0.014,0.012-0.024,0.026-0.024
		c0.013,0,0.024,0.011,0.024,0.024l0,0v0.001v0.001c0.016,4.247,3.422,7.694,7.654,7.774h5.987v-17.799H158.962z M156.843,744.895
		L156.843,744.895L156.843,744.895c-2.33,0.009-4.212,1.896-4.22,4.224l0,0c0,0.009-0.006,0.015-0.015,0.015
		c-0.007,0-0.015-0.006-0.015-0.015l0,0c-0.008-2.33-1.895-4.219-4.227-4.223v-0.001c-0.009,0-0.014-0.006-0.014-0.014
		s0.005-0.014,0.014-0.015l0,0c2.333-0.005,4.219-1.894,4.227-4.224l0,0c0.002-0.008,0.008-0.015,0.015-0.015
		c0.008,0,0.014,0.007,0.015,0.015c0,0,0,0,0,0.001l0,0c0.008,2.328,1.892,4.214,4.22,4.224l0,0c0.009,0,0.015,0.006,0.015,0.014
		S156.852,744.895,156.843,744.895z M169.471,744.895L169.471,744.895L169.471,744.895c-2.33,0.009-4.213,1.896-4.222,4.224l0,0
		c0,0.009-0.006,0.015-0.013,0.015c-0.009,0-0.015-0.006-0.015-0.015l0,0c-0.009-2.33-1.896-4.219-4.229-4.223v-0.001
		c-0.008,0-0.015-0.006-0.015-0.014s0.007-0.014,0.015-0.015l0,0c2.332-0.005,4.22-1.894,4.229-4.224l0,0
		c0-0.008,0.006-0.015,0.015-0.015c0.007,0,0.013,0.007,0.013,0.015c0,0,0,0,0,0.001l0,0c0.009,2.328,1.892,4.214,4.222,4.224l0,0
		c0.007,0,0.013,0.006,0.013,0.014S169.478,744.895,169.471,744.895z"/>
	<path fill="#FFFFFF" d="M156.073,1045.818c0.17,1.569,1.496,2.794,3.111,2.801l0,0c0.006,0,0.011,0.004,0.011,0.01
		s-0.005,0.011-0.011,0.011l0,0l0,0c-1.728,0.007-3.125,1.406-3.131,3.134l0,0c0,0.006-0.005,0.01-0.011,0.01
		c-0.005,0-0.011-0.004-0.011-0.01l0,0c-0.005-1.729-1.405-3.13-3.136-3.134l0,0c-0.005,0-0.011-0.005-0.011-0.011
		s0.006-0.011,0.011-0.011l0,0c1.669-0.004,3.03-1.307,3.13-2.951v-10.006h-13.204v10.157h-10.157v13.203h10.157v10.156h13.204
		v-4.344l0,0l0,0c-0.012-3.185-2.59-5.764-5.777-5.771v-0.001c-0.01,0-0.019-0.008-0.019-0.02c0-0.01,0.009-0.02,0.019-0.02l0,0
		c3.188-0.007,5.766-2.585,5.777-5.771l0,0c0.001-0.011,0.009-0.019,0.02-0.019c0.01,0,0.019,0.008,0.019,0.019l0,0v0.001l0,0
		c0.012,3.151,2.538,5.708,5.679,5.768h4.44v-13.203H156.073z M154.501,1053.635L154.501,1053.635L154.501,1053.635
		c-1.729,0.008-3.126,1.407-3.132,3.135l0,0c0,0.005-0.004,0.01-0.01,0.01s-0.011-0.005-0.011-0.01l0,0
		c-0.006-1.729-1.406-3.13-3.136-3.134v-0.001c-0.006,0-0.01-0.004-0.01-0.01s0.004-0.011,0.01-0.011l0,0
		c1.73-0.004,3.13-1.404,3.136-3.134l0,0c0-0.005,0.005-0.01,0.011-0.01c0.005,0,0.01,0.005,0.01,0.01c0,0,0,0,0,0.001l0,0
		c0.006,1.728,1.404,3.126,3.131,3.133h0.001c0.005,0,0.01,0.005,0.01,0.011S154.506,1053.635,154.501,1053.635z M163.867,1053.635
		L163.867,1053.635L163.867,1053.635c-1.729,0.008-3.125,1.407-3.131,3.135l0,0c0,0.005-0.005,0.01-0.011,0.01
		c-0.005,0-0.011-0.005-0.011-0.01l0,0c-0.006-1.729-1.405-3.13-3.137-3.134v-0.001c-0.005,0-0.01-0.004-0.01-0.01
		s0.005-0.011,0.01-0.011l0,0c1.73-0.004,3.131-1.404,3.137-3.134l0,0c0.001-0.005,0.006-0.01,0.011-0.01
		c0.006,0,0.01,0.005,0.011,0.01c0,0,0,0,0,0.001l0,0c0.006,1.728,1.403,3.126,3.131,3.133l0,0c0.006,0,0.011,0.005,0.011,0.011
		S163.873,1053.635,163.867,1053.635z"/>
	<g>
		<path fill="#FFFFFF" d="M77.779,784.757c-1.189,0-2.203-0.171-3.039-0.513c-0.835-0.332-1.483-0.746-1.944-1.228
			c-0.285-0.28-0.486-0.546-0.609-0.799C72.061,781.954,72,781.74,72,781.556c0-0.13,0.038-0.243,0.113-0.35
			c0.074-0.096,0.152-0.183,0.232-0.243c0.083-0.071,0.166-0.11,0.249-0.136c0.083-0.027,0.131-0.031,0.149-0.013
			c0.166,0.361,0.389,0.712,0.668,1.053c0.285,0.341,0.625,0.646,1.033,0.917c0.405,0.272,0.881,0.495,1.438,0.661
			c0.555,0.166,1.18,0.244,1.87,0.244c1.325,0,2.361-0.293,3.117-0.877c0.752-0.586,1.128-1.387,1.128-2.402
			c0-0.576-0.132-1.061-0.384-1.446c-0.259-0.388-0.594-0.708-1.019-0.97c-0.419-0.254-0.91-0.464-1.465-0.621
			c-0.551-0.156-1.137-0.311-1.749-0.46c-0.612-0.147-1.215-0.31-1.809-0.501c-0.594-0.193-1.127-0.446-1.6-0.771
			c-0.472-0.322-0.849-0.729-1.128-1.228c-0.281-0.498-0.424-1.128-0.424-1.888c0-0.631,0.136-1.206,0.397-1.731
			c0.267-0.534,0.634-0.988,1.106-1.363c0.473-0.385,1.018-0.682,1.648-0.901c0.629-0.209,1.316-0.314,2.059-0.314
			c1.093,0,2.015,0.156,2.768,0.469c0.75,0.31,1.332,0.668,1.749,1.062c0.463,0.495,0.695,0.926,0.695,1.293
			c0,0.132-0.041,0.249-0.115,0.364c-0.073,0.104-0.153,0.182-0.236,0.242c-0.083,0.062-0.166,0.101-0.246,0.136
			c-0.082,0.035-0.134,0.044-0.151,0.027c-0.149-0.333-0.35-0.652-0.607-0.958c-0.254-0.307-0.568-0.572-0.94-0.804
			c-0.371-0.232-0.8-0.422-1.276-0.562c-0.481-0.138-1.019-0.204-1.613-0.204c-0.583,0-1.12,0.07-1.613,0.219
			c-0.5,0.147-0.924,0.368-1.277,0.646c-0.359,0.28-0.634,0.622-0.831,1.015c-0.201,0.403-0.299,0.849-0.299,1.338
			c0,0.552,0.111,1.002,0.334,1.361c0.223,0.349,0.529,0.646,0.918,0.89c0.389,0.236,0.847,0.434,1.377,0.582
			c0.528,0.149,1.105,0.298,1.735,0.447c0.647,0.147,1.277,0.327,1.897,0.527c0.621,0.211,1.181,0.48,1.675,0.822
			c0.498,0.343,0.896,0.766,1.193,1.282c0.299,0.506,0.446,1.152,0.446,1.931c0,0.666-0.13,1.269-0.384,1.811
			c-0.259,0.548-0.625,1.007-1.106,1.389c-0.477,0.38-1.05,0.683-1.709,0.893C79.351,784.651,78.605,784.757,77.779,784.757z"/>
		<path fill="#FFFFFF" d="M90.951,784.757c-0.875,0-1.684-0.157-2.418-0.472c-0.734-0.313-1.368-0.745-1.896-1.285
			c-0.529-0.551-0.944-1.199-1.242-1.943c-0.298-0.741-0.446-1.557-0.446-2.43c0-0.874,0.148-1.687,0.446-2.431
			s0.713-1.391,1.242-1.931c0.528-0.551,1.163-0.976,1.896-1.281s1.543-0.459,2.418-0.459c0.878,0,1.678,0.156,2.409,0.471
			c0.726,0.315,1.355,0.743,1.885,1.295c0.528,0.542,0.94,1.193,1.242,1.944c0.296,0.752,0.445,1.57,0.445,2.445
			c0,0.856-0.149,1.66-0.445,2.403c-0.301,0.743-0.713,1.39-1.242,1.933c-0.529,0.552-1.159,0.976-1.885,1.281
			C92.629,784.604,91.829,784.757,90.951,784.757z M90.951,783.716c0.694,0,1.333-0.126,1.91-0.39
			c0.581-0.252,1.084-0.606,1.512-1.054c0.434-0.445,0.765-0.975,1.006-1.595c0.241-0.62,0.358-1.29,0.358-1.997
			c0-0.726-0.117-1.405-0.358-2.024c-0.241-0.621-0.568-1.155-0.993-1.608c-0.419-0.455-0.927-0.818-1.512-1.081
			c-0.586-0.264-1.229-0.401-1.923-0.401c-0.695,0-1.333,0.136-1.923,0.39c-0.586,0.253-1.093,0.612-1.526,1.066
			c-0.428,0.454-0.763,0.982-1,1.594c-0.241,0.612-0.364,1.287-0.364,2.012c0,0.717,0.123,1.378,0.364,1.998
			c0.237,0.62,0.572,1.162,1,1.623c0.433,0.462,0.94,0.826,1.526,1.078C89.617,783.59,90.256,783.716,90.951,783.716z"/>
		<path fill="#FFFFFF" d="M103.898,784.757c-0.778,0-1.46-0.122-2.044-0.378c-0.587-0.243-1.076-0.603-1.465-1.064
			c-0.389-0.463-0.683-1.01-0.88-1.649c-0.2-0.638-0.296-1.35-0.296-2.146v-6.251c0-0.226,0.048-0.379,0.148-0.458
			c0.099-0.071,0.223-0.111,0.372-0.111h0.148c0.148,0,0.271,0.04,0.373,0.111c0.1,0.079,0.148,0.232,0.148,0.458v6.182
			c0,1.285,0.305,2.312,0.918,3.064c0.611,0.752,1.494,1.123,2.653,1.123c0.993,0,1.84-0.245,2.545-0.743
			c0.704-0.497,1.237-1.153,1.6-1.983v-7.643c0-0.226,0.047-0.379,0.148-0.458c0.101-0.071,0.223-0.111,0.372-0.111h0.148
			c0.149,0,0.272,0.04,0.371,0.111c0.101,0.079,0.149,0.232,0.149,0.458v11.192c0,0.017-0.039,0.044-0.122,0.07
			c-0.083,0.033-0.184,0.051-0.298,0.051c-0.202,0-0.371-0.073-0.52-0.23s-0.223-0.478-0.223-0.959v-1.066
			c-0.398,0.691-0.958,1.277-1.676,1.735C105.748,784.527,104.891,784.757,103.898,784.757z"/>
		<path fill="#FFFFFF" d="M116.279,784.757c-1.043,0-1.813-0.297-2.321-0.892c-0.502-0.595-0.756-1.513-0.756-2.755v-7.266h-1.437
			c-0.232,0-0.384-0.043-0.46-0.13c-0.074-0.08-0.113-0.194-0.113-0.342v-0.121c0-0.156,0.039-0.272,0.113-0.351
			c0.076-0.089,0.228-0.123,0.46-0.123h1.437v-2.282c0-0.236,0.048-0.393,0.149-0.472c0.101-0.089,0.223-0.124,0.372-0.124h0.149
			c0.147,0,0.271,0.035,0.364,0.124c0.085,0.079,0.135,0.235,0.135,0.472v2.282h3.397c0.23,0,0.389,0.034,0.472,0.123
			c0.083,0.078,0.123,0.194,0.123,0.351v0.121c0,0.147-0.04,0.262-0.123,0.342c-0.083,0.087-0.241,0.13-0.472,0.13h-3.397v7.144
			c0,0.97,0.154,1.68,0.458,2.105c0.308,0.43,0.804,0.648,1.5,0.648c0.427,0,0.805-0.097,1.115-0.279
			c0.315-0.176,0.581-0.429,0.795-0.743c0.036-0.016,0.11,0.022,0.224,0.116c0.117,0.088,0.174,0.25,0.174,0.479
			c0,0.106-0.031,0.218-0.087,0.35c-0.058,0.129-0.163,0.263-0.311,0.396c-0.184,0.197-0.432,0.364-0.755,0.494
			C117.157,784.687,116.755,784.757,116.279,784.757z"/>
		<path fill="#FFFFFF" d="M120.617,784.472c-0.099-0.078-0.147-0.231-0.147-0.459v-16.2c0-0.017,0.035-0.042,0.111-0.07
			c0.072-0.034,0.17-0.052,0.284-0.052c0.218,0,0.402,0.077,0.559,0.222c0.157,0.154,0.237,0.467,0.237,0.938v6.231
			c0.347-0.764,0.882-1.379,1.613-1.845c0.726-0.472,1.578-0.712,2.553-0.712c0.796,0,1.486,0.121,2.073,0.376
			c0.586,0.244,1.08,0.604,1.477,1.065c0.398,0.464,0.695,1.011,0.892,1.648c0.196,0.64,0.298,1.351,0.298,2.146v6.251
			c0,0.228-0.048,0.381-0.149,0.459c-0.101,0.071-0.223,0.109-0.373,0.109h-0.148c-0.148,0-0.271-0.038-0.372-0.109
			c-0.101-0.078-0.148-0.231-0.148-0.459v-6.182c0-1.302-0.31-2.325-0.931-3.068c-0.622-0.751-1.517-1.119-2.693-1.119
			c-0.596,0-1.141,0.096-1.634,0.298c-0.5,0.202-0.927,0.477-1.291,0.836c-0.364,0.349-0.65,0.777-0.855,1.284
			c-0.208,0.508-0.311,1.071-0.311,1.7v6.251c0,0.228-0.047,0.381-0.149,0.459c-0.101,0.071-0.222,0.109-0.371,0.109h-0.148
			C120.843,784.581,120.715,784.543,120.617,784.472z"/>
		<path fill="#FFFFFF" d="M134.398,780.773c0.241,0.604,0.571,1.128,1.004,1.565c0.429,0.437,0.936,0.779,1.526,1.015
			c0.585,0.244,1.228,0.362,1.918,0.362c0.612,0,1.146-0.074,1.602-0.215c0.454-0.14,0.852-0.324,1.193-0.541
			c0.336-0.229,0.621-0.476,0.844-0.757c0.223-0.279,0.406-0.574,0.554-0.873c0.018-0.012,0.066-0.012,0.141,0
			c0.074,0.016,0.153,0.055,0.232,0.117c0.082,0.053,0.157,0.133,0.227,0.218c0.065,0.097,0.096,0.214,0.096,0.364
			c0,0.13-0.056,0.31-0.172,0.528c-0.116,0.227-0.305,0.467-0.57,0.738c-0.363,0.359-0.896,0.696-1.601,1.002
			c-0.703,0.307-1.551,0.459-2.544,0.459c-0.891,0-1.708-0.152-2.451-0.459c-0.748-0.306-1.378-0.726-1.898-1.269
			c-0.525-0.532-0.927-1.177-1.216-1.919c-0.292-0.743-0.437-1.557-0.437-2.43c0-0.875,0.15-1.693,0.446-2.445
			c0.299-0.751,0.708-1.402,1.229-1.944c0.521-0.552,1.137-0.979,1.85-1.295c0.712-0.314,1.485-0.471,2.33-0.471
			c0.812,0,1.548,0.135,2.209,0.416c0.662,0.269,1.229,0.654,1.7,1.162c0.472,0.508,0.834,1.111,1.091,1.81
			c0.254,0.698,0.386,1.479,0.386,2.347v0.122c0,0.186-0.044,0.299-0.127,0.351c-0.083,0.044-0.215,0.069-0.396,0.069h-9.549
			C134.029,779.511,134.158,780.17,134.398,780.773z M142.844,777.789c-0.018-0.63-0.13-1.199-0.347-1.715
			c-0.216-0.517-0.5-0.956-0.854-1.325c-0.36-0.376-0.787-0.663-1.289-0.875c-0.508-0.198-1.056-0.309-1.653-0.309
			c-0.612,0-1.177,0.11-1.695,0.309c-0.523,0.212-0.985,0.499-1.392,0.875c-0.406,0.369-0.737,0.813-1.005,1.339
			c-0.262,0.519-0.438,1.089-0.52,1.701H142.844z"/>
		<path fill="#FFFFFF" d="M146.415,784.013v-11.191c0-0.016,0.04-0.034,0.115-0.069c0.073-0.035,0.164-0.054,0.283-0.054
			c0.214,0,0.397,0.085,0.546,0.243c0.15,0.152,0.222,0.467,0.222,0.947v1.494c0.247-0.996,0.647-1.717,1.203-2.173
			c0.554-0.453,1.229-0.685,2.025-0.685c0.48,0,0.873,0.096,1.188,0.271c0.314,0.183,0.473,0.429,0.473,0.724
			c0,0.229-0.053,0.395-0.148,0.491c-0.106,0.104-0.166,0.148-0.201,0.132c-0.166-0.136-0.368-0.25-0.608-0.337
			c-0.235-0.098-0.512-0.136-0.809-0.136c-1.054,0-1.837,0.479-2.34,1.432c-0.505,0.964-0.759,2.24-0.759,3.822v5.088
			c0,0.21-0.048,0.36-0.149,0.447c-0.096,0.077-0.223,0.121-0.371,0.121h-0.123C146.598,784.581,146.415,784.389,146.415,784.013z"
			/>
		<path fill="#FFFFFF" d="M154.453,784.472c-0.105-0.078-0.148-0.231-0.148-0.459v-11.191c0-0.016,0.037-0.034,0.11-0.069
			c0.078-0.035,0.172-0.054,0.284-0.054c0.218,0,0.403,0.085,0.551,0.243c0.148,0.152,0.219,0.467,0.219,0.947v1.066
			c0.383-0.689,0.93-1.268,1.646-1.729c0.726-0.465,1.579-0.7,2.566-0.7c0.777,0,1.466,0.121,2.051,0.376
			c0.587,0.244,1.08,0.604,1.472,1.065c0.403,0.464,0.701,1.011,0.893,1.648c0.202,0.64,0.3,1.351,0.3,2.146v6.251
			c0,0.228-0.045,0.381-0.15,0.459c-0.096,0.071-0.22,0.109-0.368,0.109h-0.148c-0.146,0-0.271-0.038-0.377-0.109
			c-0.095-0.078-0.148-0.231-0.148-0.459v-6.182c0-1.284-0.306-2.302-0.917-3.054c-0.612-0.76-1.495-1.134-2.648-1.134
			c-0.998,0-1.84,0.245-2.549,0.743c-0.699,0.499-1.228,1.154-1.597,1.984v7.642c0,0.228-0.051,0.381-0.147,0.459
			c-0.096,0.071-0.228,0.109-0.378,0.109h-0.147C154.672,784.581,154.55,784.543,154.453,784.472z"/>
		<path fill="#FFFFFF" d="M179.014,784.757c-1.197,0-2.277-0.206-3.254-0.608c-0.979-0.401-1.809-0.975-2.509-1.699
			c-0.691-0.727-1.234-1.591-1.609-2.606c-0.386-1.005-0.567-2.116-0.567-3.322s0.186-2.322,0.581-3.336
			c0.385-1.013,0.935-1.896,1.634-2.632c0.705-0.734,1.545-1.306,2.522-1.723c0.97-0.415,2.045-0.615,3.218-0.615
			c1.259,0,2.308,0.188,3.157,0.582c0.838,0.384,1.503,0.816,1.983,1.298c0.28,0.279,0.488,0.563,0.636,0.848
			c0.139,0.28,0.204,0.498,0.204,0.665c0,0.166-0.036,0.297-0.095,0.401c-0.071,0.096-0.146,0.173-0.243,0.231
			c-0.087,0.062-0.166,0.1-0.243,0.109c-0.075,0.018-0.118,0.018-0.135,0c-0.429-0.892-1.116-1.625-2.052-2.204
			c-0.934-0.576-2.014-0.864-3.256-0.864c-0.98,0-1.871,0.171-2.687,0.528c-0.803,0.359-1.506,0.853-2.091,1.499
			c-0.588,0.648-1.041,1.415-1.366,2.296c-0.322,0.883-0.484,1.848-0.484,2.889c0,1.042,0.162,2.004,0.484,2.878
			c0.325,0.883,0.778,1.641,1.366,2.268c0.585,0.639,1.298,1.141,2.118,1.508c0.832,0.359,1.74,0.543,2.729,0.543
			c0.744,0,1.416-0.092,2.011-0.284c0.595-0.191,1.126-0.445,1.578-0.769c0.454-0.324,0.832-0.695,1.138-1.105
			c0.305-0.412,0.536-0.84,0.686-1.286c0.019-0.016,0.062-0.016,0.148,0c0.079,0.017,0.176,0.043,0.272,0.096
			c0.095,0.054,0.191,0.126,0.271,0.231c0.087,0.114,0.119,0.242,0.119,0.391c0,0.183-0.079,0.455-0.257,0.822
			c-0.174,0.356-0.45,0.724-0.824,1.083c-0.481,0.48-1.165,0.913-2.038,1.307C181.285,784.56,180.237,784.757,179.014,784.757z"/>
		<path fill="#FFFFFF" d="M187.643,784.013v-11.191c0-0.016,0.038-0.034,0.108-0.069c0.079-0.035,0.172-0.054,0.283-0.054
			c0.219,0,0.404,0.085,0.553,0.243c0.148,0.152,0.216,0.467,0.216,0.947v1.494c0.255-0.996,0.653-1.717,1.203-2.173
			c0.561-0.453,1.23-0.685,2.024-0.685c0.48,0,0.873,0.096,1.189,0.271c0.315,0.183,0.474,0.429,0.474,0.724
			c0,0.229-0.047,0.395-0.149,0.491c-0.096,0.104-0.168,0.148-0.2,0.132c-0.156-0.136-0.363-0.25-0.608-0.337
			c-0.237-0.098-0.502-0.136-0.802-0.136c-1.057,0-1.841,0.479-2.347,1.432c-0.508,0.964-0.755,2.24-0.755,3.822v5.088
			c0,0.21-0.054,0.36-0.148,0.447c-0.097,0.077-0.219,0.121-0.369,0.121h-0.131C187.826,784.581,187.643,784.389,187.643,784.013z"
			/>
		<path fill="#FFFFFF" d="M200.537,784.757c-0.874,0-1.684-0.157-2.418-0.472c-0.733-0.313-1.367-0.745-1.893-1.285
			c-0.53-0.551-0.942-1.199-1.239-1.943c-0.3-0.741-0.446-1.557-0.446-2.43c0-0.874,0.146-1.687,0.446-2.431
			c0.297-0.744,0.709-1.391,1.239-1.931c0.525-0.551,1.159-0.976,1.893-1.281c0.734-0.306,1.544-0.459,2.418-0.459
			c0.878,0,1.679,0.156,2.404,0.471c0.734,0.315,1.364,0.743,1.89,1.295c0.535,0.542,0.946,1.193,1.241,1.944
			c0.298,0.752,0.444,1.57,0.444,2.445c0,0.856-0.146,1.66-0.444,2.403c-0.295,0.743-0.706,1.39-1.241,1.933
			c-0.525,0.552-1.155,0.976-1.89,1.281C202.216,784.604,201.415,784.757,200.537,784.757z M200.537,783.716
			c0.699,0,1.336-0.126,1.914-0.39c0.578-0.252,1.086-0.606,1.515-1.054c0.427-0.445,0.763-0.975,1-1.595
			c0.245-0.62,0.363-1.29,0.363-1.997c0-0.726-0.118-1.405-0.363-2.024c-0.237-0.621-0.567-1.155-0.986-1.608
			c-0.431-0.455-0.928-0.818-1.513-1.081c-0.594-0.264-1.23-0.401-1.93-0.401c-0.689,0-1.334,0.136-1.917,0.39
			c-0.586,0.253-1.098,0.612-1.526,1.066s-0.767,0.982-1.008,1.594c-0.239,0.612-0.357,1.287-0.357,2.012
			c0,0.717,0.118,1.378,0.357,1.998c0.241,0.62,0.579,1.162,1.008,1.623c0.429,0.462,0.94,0.826,1.526,1.078
			C199.203,783.59,199.848,783.716,200.537,783.716z"/>
		<path fill="#FFFFFF" d="M212.674,784.757c-1.049,0-1.912-0.136-2.592-0.406c-0.693-0.28-1.213-0.595-1.58-0.959
			c-0.218-0.218-0.367-0.392-0.446-0.546c-0.087-0.146-0.121-0.292-0.121-0.425c0-0.129,0.032-0.234,0.097-0.323
			c0.069-0.078,0.135-0.147,0.214-0.191c0.069-0.054,0.144-0.088,0.205-0.105c0.069-0.014,0.113-0.016,0.126-0.016
			c0.362,0.559,0.884,1.031,1.548,1.405c0.675,0.387,1.534,0.571,2.592,0.571c1.076,0,1.91-0.212,2.495-0.641
			c0.588-0.428,0.879-0.979,0.879-1.641c0-0.396-0.081-0.724-0.257-0.978c-0.176-0.253-0.417-0.467-0.741-0.635
			c-0.326-0.166-0.715-0.306-1.161-0.419c-0.444-0.113-0.938-0.235-1.485-0.351c-0.48-0.096-0.971-0.212-1.46-0.336
			c-0.498-0.121-0.944-0.302-1.344-0.528c-0.396-0.236-0.725-0.533-0.978-0.892c-0.253-0.368-0.39-0.838-0.39-1.417
			c0-0.498,0.114-0.958,0.324-1.377c0.219-0.42,0.518-0.783,0.892-1.08c0.385-0.297,0.845-0.525,1.376-0.69
			c0.542-0.166,1.144-0.253,1.808-0.253c0.925,0,1.693,0.125,2.325,0.389c0.628,0.253,1.12,0.555,1.468,0.905
			c0.297,0.297,0.446,0.585,0.446,0.864c0,0.115-0.035,0.224-0.106,0.311c-0.06,0.089-0.134,0.161-0.205,0.216
			c-0.077,0.042-0.143,0.077-0.212,0.096c-0.062,0.017-0.106,0.017-0.122,0c-0.299-0.517-0.761-0.94-1.393-1.282
			c-0.629-0.331-1.363-0.503-2.201-0.503c-1.033,0-1.823,0.207-2.4,0.635c-0.568,0.42-0.852,0.947-0.852,1.597
			c0,0.366,0.077,0.673,0.243,0.918c0.166,0.243,0.407,0.454,0.712,0.62c0.308,0.166,0.675,0.307,1.111,0.419
			c0.439,0.116,0.921,0.237,1.456,0.351c0.498,0.096,0.996,0.214,1.51,0.351c0.518,0.131,0.977,0.318,1.393,0.554
			c0.411,0.235,0.751,0.542,1.014,0.918c0.261,0.376,0.398,0.844,0.398,1.431c0,1.023-0.412,1.85-1.225,2.485
			C215.211,784.438,214.087,784.757,212.674,784.757z"/>
		<path fill="#FFFFFF" d="M223.409,784.757c-1.04,0-1.899-0.136-2.592-0.406c-0.684-0.28-1.212-0.595-1.577-0.959
			c-0.211-0.218-0.359-0.392-0.448-0.546c-0.077-0.146-0.122-0.292-0.122-0.425c0-0.129,0.035-0.234,0.106-0.323
			c0.06-0.078,0.136-0.147,0.207-0.191c0.075-0.054,0.143-0.088,0.212-0.105c0.061-0.014,0.104-0.016,0.122-0.016
			c0.367,0.559,0.879,1.031,1.553,1.405c0.664,0.387,1.535,0.571,2.592,0.571c1.073,0,1.902-0.212,2.487-0.641
			c0.595-0.428,0.887-0.979,0.887-1.641c0-0.396-0.091-0.724-0.265-0.978c-0.172-0.253-0.421-0.467-0.744-0.635
			c-0.324-0.166-0.704-0.306-1.15-0.419c-0.444-0.113-0.942-0.235-1.485-0.351c-0.48-0.096-0.97-0.212-1.468-0.336
			c-0.498-0.121-0.946-0.302-1.341-0.528c-0.392-0.236-0.718-0.533-0.982-0.892c-0.253-0.368-0.381-0.838-0.381-1.417
			c0-0.498,0.106-0.958,0.325-1.377c0.208-0.42,0.507-0.783,0.892-1.08c0.375-0.297,0.834-0.525,1.375-0.69
			c0.533-0.166,1.135-0.253,1.798-0.253c0.928,0,1.706,0.125,2.335,0.389c0.628,0.253,1.113,0.555,1.46,0.905
			c0.298,0.297,0.444,0.585,0.444,0.864c0,0.115-0.03,0.224-0.095,0.311c-0.069,0.089-0.135,0.161-0.214,0.216
			c-0.069,0.042-0.146,0.077-0.205,0.096c-0.071,0.017-0.115,0.017-0.126,0c-0.302-0.517-0.761-0.94-1.388-1.282
			c-0.63-0.331-1.361-0.503-2.212-0.503c-1.021,0-1.822,0.207-2.391,0.635c-0.567,0.42-0.861,0.947-0.861,1.597
			c0,0.366,0.087,0.673,0.255,0.918c0.166,0.243,0.396,0.454,0.701,0.62c0.309,0.166,0.684,0.307,1.12,0.419
			c0.437,0.116,0.923,0.237,1.448,0.351c0.497,0.096,1.005,0.214,1.511,0.351c0.516,0.131,0.979,0.318,1.393,0.554
			c0.419,0.235,0.749,0.542,1.02,0.918c0.263,0.376,0.396,0.844,0.396,1.431c0,1.023-0.407,1.85-1.229,2.485
			C225.949,784.438,224.835,784.757,223.409,784.757z"/>
	</g>
</g>
</svg>
