<?xml version="1.0" encoding="utf-8"?>
<!-- Generator: Adobe Illustrator 15.0.0, SVG Export Plug-In . SVG Version: 6.00 Build 0)  -->
<!DOCTYPE svg PUBLIC "-//W3C//DTD SVG 1.1//EN" "http://www.w3.org/Graphics/SVG/1.1/DTD/svg11.dtd">
<svg version="1.1" id="Layer_1" xmlns="http://www.w3.org/2000/svg" xmlns:xlink="http://www.w3.org/1999/xlink" x="0px" y="0px"
	 width="300px" height="1200px" viewBox="0 0 300 1200" enable-background="new 0 0 300 1200" xml:space="preserve">
<g id="Page-1">
	<g id="Artboard" transform="translate(-162.000000, -137.000000)">
		<g id="Group-61" transform="translate(162.000000, 137.000000)">
			<path id="Fill-1" fill="#008BCE" d="M185.099,118.186L185.099,118.186c-4.2,0.017-7.594,3.417-7.611,7.616
				c0,0.014-0.009,0.024-0.023,0.024c-0.013,0-0.024-0.01-0.024-0.024c-0.015-4.203-3.417-7.605-7.623-7.616
				c-0.014,0-0.026-0.012-0.026-0.024c0-0.015,0.013-0.026,0.026-0.026c4.206-0.011,7.608-3.413,7.623-7.616
				c0-0.012,0.012-0.024,0.024-0.024c0.015,0,0.023,0.012,0.023,0.024v0.002c0.018,4.196,3.411,7.596,7.611,7.614
				c0.014,0,0.026,0.011,0.026,0.026C185.125,118.173,185.112,118.186,185.099,118.186L185.099,118.186z M162.336,118.186
				L162.336,118.186c-4.199,0.017-7.593,3.417-7.607,7.616c0,0.014-0.013,0.024-0.024,0.024c-0.015,0-0.026-0.01-0.026-0.024
				c-0.015-4.203-3.419-7.605-7.623-7.616c-0.012,0-0.024-0.012-0.024-0.024c0-0.015,0.013-0.026,0.024-0.026
				c4.204-0.011,7.608-3.413,7.623-7.616c0-0.012,0.012-0.024,0.026-0.024c0.012,0,0.021,0.012,0.024,0.024v0.002
				c0.015,4.196,3.408,7.596,7.607,7.614c0.014,0,0.027,0.011,0.027,0.026C162.363,118.173,162.35,118.186,162.336,118.186
				L162.336,118.186z M166.154,99.189c0.416,3.815,3.636,6.79,7.562,6.807h0.002c0.012,0,0.024,0.009,0.024,0.024
				c0,0.014-0.013,0.024-0.024,0.024h-0.002c-4.199,0.017-7.593,3.42-7.608,7.615c0,0.015-0.011,0.027-0.023,0.027
				c-0.017,0-0.026-0.012-0.026-0.027c-0.016-4.2-3.414-7.605-7.62-7.612v-0.002c-0.015,0-0.027-0.01-0.027-0.024
				c0-0.015,0.013-0.027,0.027-0.027c4.055-0.007,7.36-3.176,7.604-7.17V74.507h-32.085v24.682h-24.683v32.085h24.683v24.682h32.085
				v-10.557c-0.026-7.74-6.293-14.006-14.037-14.022v-0.002c-0.026,0-0.048-0.02-0.048-0.046c0-0.027,0.021-0.049,0.048-0.049
				c7.744-0.017,14.011-6.284,14.037-14.022c0.002-0.025,0.021-0.044,0.047-0.044c0.024,0,0.045,0.02,0.045,0.044v0.002
				c0.029,7.659,6.168,13.871,13.8,14.015h10.79V99.189H166.154z"/>
			<path id="Fill-3" fill="#008BCE" d="M82.497,178.872c0-1.488,0.758-1.984,1.809-1.984h0.438c1.079,0,1.866,0.467,1.866,1.984
				v6.272c0,1.896,0.963,3.063,2.684,3.063c1.371,0,2.479-0.758,3.064-1.867v-7.468c0-1.488,0.757-1.984,1.838-1.984h0.407
				c1.11,0,1.868,0.467,1.868,1.984v12.049c0,0.145-0.7,0.467-1.544,0.467c-1.023,0-2.161-0.438-2.481-2.247
				c-0.993,1.459-2.451,2.509-4.668,2.509c-3.734,0-5.28-2.626-5.28-5.892V178.872z"/>
			<path id="Fill-5" fill="#008BCE" d="M100.847,180.242h-0.699c-1.168,0-1.722-0.496-1.722-1.428v-0.262
				c0-0.993,0.554-1.518,1.722-1.518h0.699v-1.808c0-1.343,0.7-1.984,1.869-1.984h0.35c1.107,0,1.838,0.467,1.838,1.984v1.808h2.479
				c1.167,0,1.663,0.496,1.663,1.459v0.233c0,0.992-0.524,1.516-1.69,1.516h-2.539v6.069c0,1.399,0.465,2.101,1.575,2.101
				c0.846,0,1.401-0.409,1.838-0.963c0.059-0.086,0.991,0.467,0.991,1.605c0,1.427-1.428,2.595-3.764,2.595
				c-3.149,0-4.609-1.662-4.609-4.872V180.242z"/>
			<path id="Fill-7" fill="#008BCE" d="M111.291,171.461c0-0.147,0.729-0.467,1.546-0.467c1.226,0,2.567,0.643,2.567,3.298v5.017
				c0.904-1.489,2.364-2.597,4.609-2.597c3.706,0,5.281,2.684,5.281,6.011v6.71c0,1.488-0.759,1.954-1.809,1.954h-0.437
				c-1.109,0-1.869-0.438-1.869-1.954v-6.127c0-1.984-0.99-3.151-2.596-3.151c-1.954,0-3.181,1.283-3.181,3.326v5.953
				c0,1.488-0.758,1.954-1.808,1.954h-0.438c-1.109,0-1.868-0.438-1.868-1.954V171.461z"/>
			<path id="Fill-9" fill="#008BCE" d="M134.774,176.713c4.202,0,7.09,2.945,7.09,7.118v0.293c-0.03,0.729-0.233,1.135-0.992,1.135
				h-9.831c0.292,2.131,1.924,3.386,4.142,3.386c2.16,0,3.355-0.962,4.025-2.1c0.03-0.06,1.984,0.203,1.984,1.836
				c0,1.548-2.188,3.269-6.154,3.269c-4.64,0-7.704-2.889-7.704-7.383C127.334,179.922,130.456,176.713,134.774,176.713
				L134.774,176.713z M138.043,182.869c-0.09-1.984-1.344-3.298-3.327-3.298c-1.925,0-3.383,1.372-3.675,3.298H138.043z"/>
			<path id="Fill-11" fill="#008BCE" d="M143.964,177.354c0-0.116,0.729-0.467,1.546-0.467c1.079,0,2.247,0.497,2.51,2.421
				c0.583-1.634,1.75-2.596,3.472-2.596c1.663,0,2.654,0.932,2.654,2.392c0,1.635-1.254,2.217-1.313,2.159
				c-0.438-0.407-1.079-0.701-1.865-0.701c-2.015,0-2.89,1.751-2.89,4.608v4.26c0,1.487-0.758,1.956-1.808,1.956h-0.438
				c-1.109,0-1.867-0.439-1.867-1.956V177.354z"/>
			<path id="Fill-13" fill="#008BCE" d="M156.141,177.354c0-0.116,0.729-0.467,1.545-0.467c1.052,0,2.189,0.497,2.481,2.334
				c0.992-1.459,2.48-2.509,4.697-2.509c3.705,0,5.281,2.625,5.281,5.893v6.826c0,1.487-0.76,1.956-1.81,1.956h-0.438
				c-1.107,0-1.867-0.439-1.867-1.956v-6.214c0-1.896-0.961-3.062-2.625-3.062c-1.458,0-2.567,0.757-3.151,1.866v7.409
				c0,1.487-0.758,1.956-1.808,1.956h-0.438c-1.109,0-1.868-0.439-1.868-1.956V177.354z"/>
			<path id="Fill-15" fill="#008BCE" d="M187.854,172.016c5.018,0,7.264,2.741,7.264,4.26c0,1.866-2.42,2.333-2.479,2.188
				c-0.935-1.634-2.713-2.568-4.61-2.568c-3.18,0-5.484,2.393-5.484,5.923c0,3.501,2.334,5.952,5.514,5.952
				c2.188,0,3.968-1.081,4.697-2.86c0.059-0.145,2.566,0.322,2.566,2.19c0,1.603-2.332,4.549-7.526,4.549
				c-5.718,0-9.686-4.024-9.686-9.802C178.11,176.101,182.078,172.016,187.854,172.016"/>
			<path id="Fill-17" fill="#008BCE" d="M197.479,177.354c0-0.116,0.73-0.467,1.546-0.467c1.079,0,2.246,0.497,2.51,2.421
				c0.583-1.634,1.75-2.596,3.472-2.596c1.662,0,2.654,0.932,2.654,2.392c0,1.635-1.254,2.217-1.312,2.159
				c-0.438-0.407-1.081-0.701-1.868-0.701c-2.012,0-2.888,1.751-2.888,4.608v4.26c0,1.487-0.758,1.956-1.808,1.956h-0.438
				c-1.109,0-1.867-0.439-1.867-1.956V177.354z"/>
			<path id="Fill-19" fill="#008BCE" d="M216.189,176.713c4.493,0,7.586,3.063,7.586,7.498c0,4.434-3.093,7.44-7.643,7.44
				c-4.522,0-7.587-3.006-7.587-7.498C208.546,179.776,211.668,176.713,216.189,176.713 M216.16,188.413
				c2.276,0,3.967-1.781,3.967-4.202c0-2.48-1.662-4.289-3.967-4.289s-3.997,1.78-3.997,4.231
				C212.163,186.631,213.855,188.413,216.16,188.413"/>
			<path id="Fill-21" fill="#008BCE" d="M226.4,186.808c0.992,1.05,2.598,1.896,4.696,1.896c1.605,0,2.511-0.469,2.511-1.373
				c0-1.077-1.139-1.253-3.064-1.663c-1.954-0.438-5.02-1.079-5.02-4.318c0-2.77,2.337-4.609,5.953-4.609
				c3.853,0,5.776,1.401,5.776,3.035c0,1.078-1.254,1.836-1.342,1.75c-0.963-1.109-2.509-1.896-4.171-1.896
				c-1.547,0-2.422,0.496-2.422,1.4c0,1.021,1.138,1.167,3.034,1.605c2.013,0.438,5.25,1.107,5.25,4.347
				c0,2.86-2.36,4.609-6.272,4.609c-4.171,0-6.184-1.458-6.184-3.092C225.146,187.449,226.313,186.721,226.4,186.808"/>
			<path id="Fill-23" fill="#008BCE" d="M240.374,186.808c0.991,1.05,2.599,1.896,4.697,1.896c1.606,0,2.51-0.469,2.51-1.373
				c0-1.077-1.139-1.253-3.063-1.663c-1.955-0.438-5.021-1.079-5.021-4.318c0-2.77,2.337-4.609,5.953-4.609
				c3.852,0,5.777,1.401,5.777,3.035c0,1.078-1.254,1.836-1.343,1.75c-0.963-1.109-2.507-1.896-4.171-1.896
				c-1.547,0-2.422,0.496-2.422,1.4c0,1.021,1.139,1.167,3.036,1.605c2.011,0.438,5.249,1.107,5.249,4.347
				c0,2.86-2.361,4.609-6.272,4.609c-4.173,0-6.184-1.458-6.184-3.092C239.121,187.449,240.287,186.721,240.374,186.808"/>
			<path id="Fill-25" fill="#008BCE" d="M50.056,185.698c1.138,1.371,3.297,2.598,5.631,2.598c2.247,0,3.444-0.847,3.444-2.306
				c0-1.691-1.898-1.955-4.115-2.449c-3.035-0.671-6.127-1.84-6.127-5.691c0-3.5,2.829-5.834,7.381-5.834
				c4.552,0,6.77,1.838,6.77,3.443c0,1.342-1.634,2.333-1.722,2.246c-1.11-1.314-3.005-2.334-5.019-2.334
				c-2.072,0-3.268,0.876-3.268,2.246c0,1.635,1.693,1.782,4.026,2.306c3.415,0.76,6.391,2.188,6.391,5.747
				c0,3.764-2.743,5.982-7.732,5.982c-5.017,0-7.293-2.073-7.293-3.793C48.422,186.663,49.909,185.582,50.056,185.698"/>
			<path id="Fill-27" fill="#008BCE" d="M72.874,176.713c4.492,0,7.584,3.063,7.584,7.498c0,4.434-3.092,7.44-7.644,7.44
				c-4.521,0-7.585-3.006-7.585-7.498C65.229,179.776,68.351,176.713,72.874,176.713 M72.844,188.413
				c2.276,0,3.967-1.781,3.967-4.202c0-2.48-1.664-4.289-3.967-4.289c-2.306,0-3.997,1.78-3.997,4.231
				C68.848,186.631,70.539,188.413,72.844,188.413"/>
			<path id="Fill-29" fill="#008BCE" d="M40,201.229c0-1.311,0.641-1.95,1.804-1.95h0.64c1.224,0,1.864,0.639,1.864,1.95v5.736
				h8.155v-5.736c0-1.311,0.64-1.95,1.803-1.95h0.61c1.254,0,1.895,0.639,1.895,1.95v15.17c0,1.28-0.641,1.951-1.895,1.951h-0.61
				c-1.163,0-1.803-0.671-1.803-1.951v-5.796h-8.155v5.796c0,1.28-0.641,1.951-1.864,1.951h-0.64c-1.164,0-1.804-0.671-1.804-1.951
				V201.229z"/>
			<path id="Fill-31" fill="#008BCE" d="M66.48,203.704c4.192,0,7.077,2.941,7.077,7.103v0.294c-0.029,0.727-0.233,1.134-0.99,1.134
				h-9.815c0.294,2.124,1.925,3.378,4.135,3.378c2.154,0,3.348-0.961,4.019-2.099c0.031-0.056,1.981,0.209,1.981,1.834
				c0,1.544-2.184,3.262-6.143,3.262c-4.633,0-7.687-2.88-7.687-7.367C59.058,206.904,62.171,203.704,66.48,203.704L66.48,203.704z
				 M69.742,209.846c-0.087-1.977-1.341-3.287-3.318-3.287c-1.925,0-3.378,1.367-3.673,3.287H69.742z"/>
			<path id="Fill-33" fill="#008BCE" d="M84.22,209.613h0.468c0-1.833-1.021-2.824-2.911-2.824c-1.981,0-3.003,1.078-3.526,2.184
				c0,0.058-2.647,0.148-2.647-1.747c0-1.778,2.094-3.521,6.432-3.521c4.486,0,6.696,2.038,6.696,5.853v8.413
				c0,0.204-0.756,0.468-1.541,0.468c-1.309,0-2.184-0.702-2.417-2.246c-1.021,1.483-2.825,2.357-4.922,2.357
				c-2.968,0-4.775-1.686-4.775-4.107C75.076,211.185,77.991,209.701,84.22,209.613 M81.222,215.872
				c2.038,0,3.466-1.335,3.466-3.199v-0.818l-0.757,0.031c-3.232,0.086-4.923,0.727-4.923,2.27
				C79.007,215.204,79.851,215.872,81.222,215.872"/>
			<path id="Fill-35" fill="#008BCE" d="M91.424,198.463c0-0.148,0.727-0.467,1.544-0.467c1.225,0,2.561,0.641,2.561,3.291v15.11
				c0,1.483-0.757,1.951-1.803,1.951h-0.438c-1.077,0-1.865-0.438-1.865-1.951V198.463z"/>
			<path id="Fill-37" fill="#008BCE" d="M99.878,207.227h-0.696c-1.168,0-1.722-0.492-1.722-1.427v-0.26
				c0-0.99,0.554-1.515,1.722-1.515h0.696v-1.807c0-1.338,0.701-1.978,1.864-1.978h0.351c1.103,0,1.833,0.464,1.833,1.978v1.807
				h2.475c1.164,0,1.661,0.495,1.661,1.455v0.233c0,0.991-0.527,1.514-1.69,1.514h-2.535v6.056c0,1.396,0.467,2.097,1.574,2.097
				c0.844,0,1.397-0.41,1.834-0.96c0.057-0.09,0.991,0.463,0.991,1.601c0,1.428-1.428,2.592-3.755,2.592
				c-3.146,0-4.603-1.662-4.603-4.863V207.227z"/>
			<path id="Fill-39" fill="#008BCE" d="M132.857,201.255c0-1.311,0.641-1.951,1.835-1.951h0.583c1.25,0,1.891,0.64,1.891,1.951
				v15.17c0,1.279-0.641,1.951-1.891,1.951h-0.583c-1.194,0-1.835-0.672-1.835-1.951V201.255z"/>
			<path id="Fill-41" fill="#008BCE" d="M139.863,204.37c0-0.116,0.727-0.467,1.545-0.467c1.047,0,2.185,0.497,2.475,2.332
				c0.985-1.458,2.474-2.504,4.689-2.504c3.692,0,5.269,2.621,5.269,5.883v6.812c0,1.484-0.757,1.947-1.81,1.947h-0.436
				c-1.104,0-1.86-0.433-1.86-1.947v-6.203c0-1.895-0.96-3.058-2.622-3.058c-1.457,0-2.561,0.757-3.145,1.864v7.396
				c0,1.484-0.757,1.947-1.808,1.947h-0.433c-1.107,0-1.865-0.433-1.865-1.947V204.37z"/>
			<path id="Fill-43" fill="#008BCE" d="M157.229,213.805c0.99,1.045,2.591,1.89,4.689,1.89c1.601,0,2.498-0.463,2.498-1.367
				c0-1.077-1.131-1.25-3.054-1.662c-1.949-0.437-5.009-1.076-5.009-4.308c0-2.765,2.333-4.598,5.939-4.598
				c3.847,0,5.768,1.397,5.768,3.026c0,1.078-1.252,1.835-1.342,1.749c-0.96-1.107-2.503-1.894-4.162-1.894
				c-1.543,0-2.418,0.497-2.418,1.397c0,1.021,1.139,1.164,3.029,1.601c2.011,0.436,5.243,1.106,5.243,4.338
				c0,2.855-2.358,4.603-6.26,4.603c-4.165,0-6.173-1.458-6.173-3.089C155.979,214.445,157.144,213.718,157.229,213.805"/>
			<path id="Fill-45" fill="#008BCE" d="M170.442,205.884c0-1.483,0.757-1.981,1.805-1.981h0.437c1.076,0,1.863,0.468,1.863,1.981
				v6.259c0,1.89,0.96,3.059,2.679,3.059c1.37,0,2.474-0.757,3.058-1.865v-7.452c0-1.483,0.758-1.981,1.834-1.981h0.406
				c1.108,0,1.865,0.468,1.865,1.981v12.025c0,0.143-0.695,0.463-1.546,0.463c-1.015,0-2.153-0.433-2.474-2.241
				c-0.989,1.458-2.442,2.504-4.659,2.504c-3.724,0-5.268-2.621-5.268-5.878V205.884z"/>
			<path id="Fill-48" fill="#008BCE" d="M186.918,204.37c0-0.116,0.727-0.467,1.543-0.467c1.078,0,2.241,0.497,2.501,2.417
				c0.585-1.631,1.748-2.59,3.466-2.59c1.66,0,2.65,0.93,2.65,2.388c0,1.63-1.248,2.21-1.311,2.153
				c-0.436-0.405-1.076-0.696-1.864-0.696c-2.007,0-2.882,1.744-2.882,4.599v4.251c0,1.484-0.756,1.947-1.806,1.947h-0.434
				c-1.107,0-1.864-0.433-1.864-1.947V204.37z"/>
			<path id="Fill-50" fill="#008BCE" d="M207.103,209.64h0.467c0-1.834-1.021-2.825-2.91-2.825c-1.982,0-3.003,1.078-3.526,2.185
				c0,0.057-2.646,0.143-2.646-1.748c0-1.778,2.094-3.525,6.433-3.525c4.485,0,6.695,2.042,6.695,5.853v8.417
				c0,0.204-0.757,0.463-1.541,0.463c-1.31,0-2.185-0.697-2.418-2.24c-1.02,1.483-2.824,2.357-4.921,2.357
				c-2.969,0-4.776-1.687-4.776-4.107C197.958,211.211,200.875,209.727,207.103,209.64 M204.104,215.898
				c2.039,0,3.466-1.34,3.466-3.199v-0.818l-0.757,0.031c-3.23,0.086-4.922,0.727-4.922,2.27
				C201.891,215.229,202.734,215.898,204.104,215.898"/>
			<path id="Fill-52" fill="#008BCE" d="M214.244,204.329c0-0.117,0.727-0.468,1.544-0.468c1.047,0,2.186,0.498,2.474,2.332
				c0.992-1.458,2.474-2.504,4.686-2.504c3.697,0,5.272,2.621,5.272,5.883v6.813c0,1.483-0.756,1.946-1.81,1.946h-0.435
				c-1.103,0-1.86-0.433-1.86-1.946v-6.204c0-1.895-0.96-3.058-2.621-3.058c-1.458,0-2.561,0.757-3.146,1.864v7.397
				c0,1.483-0.756,1.946-1.807,1.946h-0.433c-1.107,0-1.864-0.433-1.864-1.946V204.329z"/>
			<path id="Fill-54" fill="#008BCE" d="M237.85,203.759c4.337,0,6.057,2.472,6.057,3.84c0,1.662-2.187,1.952-2.271,1.809
				c-0.554-1.372-1.601-2.358-3.611-2.358c-2.242,0-3.874,1.718-3.874,4.105c0,2.445,1.632,4.192,3.874,4.192
				c1.95,0,3.058-0.99,3.611-2.357c0.06-0.178,2.271,0.086,2.271,1.833c0,1.337-1.805,3.812-6.057,3.812
				c-4.396,0-7.484-3.084-7.484-7.48C230.365,206.842,233.511,203.759,237.85,203.759"/>
			<path id="Fill-56" fill="#008BCE" d="M252.923,203.729c4.191,0,7.077,2.941,7.077,7.103v0.294
				c-0.03,0.727-0.233,1.133-0.99,1.133h-9.816c0.294,2.128,1.924,3.378,4.136,3.378c2.154,0,3.349-0.959,4.019-2.099
				c0.03-0.055,1.981,0.208,1.981,1.835c0,1.544-2.185,3.261-6.143,3.261c-4.633,0-7.687-2.88-7.687-7.366
				C245.5,206.933,248.614,203.729,252.923,203.729L252.923,203.729z M256.185,209.872c-0.089-1.977-1.342-3.288-3.317-3.288
				c-1.926,0-3.38,1.367-3.674,3.288H256.185z"/>
			<path id="Fill-59" fill="#008BCE" d="M110.306,198.463c0-0.148,0.727-0.467,1.544-0.467c1.221,0,2.562,0.641,2.562,3.291v5.009
				c0.899-1.488,2.356-2.591,4.603-2.591c3.693,0,5.269,2.677,5.269,5.995v6.698c0,1.483-0.757,1.951-1.809,1.951h-0.437
				c-1.103,0-1.859-0.438-1.859-1.951v-6.112c0-1.981-0.991-3.145-2.596-3.145c-1.947,0-3.171,1.28-3.171,3.318v5.939
				c0,1.483-0.758,1.951-1.808,1.951h-0.434c-1.107,0-1.864-0.438-1.864-1.951V198.463z"/>
		</g>
	</g>
</g>
<g id="Page-1_1_">
	<g id="Artboard_1_" transform="translate(-162.000000, -137.000000)">
		<g id="Group-61_1_" transform="translate(162.000000, 137.000000)">
			<path id="Fill-1_1_" fill="#008BCE" d="M175.569,427.191L175.569,427.191c-3.438,0.014-6.213,2.796-6.228,6.231
				c0,0.012-0.008,0.02-0.019,0.02c-0.012,0-0.021-0.008-0.021-0.02c-0.011-3.439-2.795-6.223-6.236-6.231
				c-0.012,0-0.021-0.01-0.021-0.02c0-0.013,0.01-0.021,0.021-0.021c3.441-0.009,6.226-2.792,6.236-6.231
				c0-0.009,0.01-0.02,0.021-0.02c0.011,0,0.019,0.01,0.019,0.02v0.002c0.015,3.433,2.79,6.215,6.228,6.229
				c0.012,0,0.021,0.009,0.021,0.021C175.59,427.181,175.581,427.191,175.569,427.191L175.569,427.191z M156.944,427.191
				L156.944,427.191c-3.436,0.014-6.211,2.796-6.224,6.231c0,0.012-0.01,0.02-0.02,0.02c-0.013,0-0.022-0.008-0.022-0.02
				c-0.011-3.439-2.797-6.223-6.236-6.231c-0.01,0-0.02-0.01-0.02-0.02c0-0.013,0.01-0.021,0.02-0.021
				c3.439-0.009,6.226-2.792,6.236-6.231c0-0.009,0.01-0.02,0.022-0.02c0.01,0,0.018,0.01,0.02,0.02v0.002
				c0.013,3.433,2.788,6.215,6.224,6.229c0.012,0,0.022,0.009,0.022,0.021C156.967,427.181,156.956,427.191,156.944,427.191
				L156.944,427.191z M160.068,411.648c0.341,3.122,2.976,5.556,6.188,5.57h0.002c0.01,0,0.02,0.007,0.02,0.02
				c0,0.011-0.01,0.02-0.02,0.02h-0.002c-3.436,0.014-6.213,2.798-6.226,6.23c0,0.013-0.008,0.022-0.019,0.022
				c-0.014,0-0.021-0.009-0.021-0.022c-0.013-3.437-2.793-6.222-6.235-6.228v-0.002c-0.011,0-0.022-0.008-0.022-0.02
				c0-0.013,0.012-0.022,0.022-0.022c3.317-0.006,6.023-2.599,6.223-5.867v-19.896h-26.251v20.194h-20.195V437.9h20.195v20.194
				h26.251v-8.638c-0.022-6.333-5.148-11.459-11.485-11.473v-0.002c-0.021,0-0.039-0.017-0.039-0.038c0-0.022,0.018-0.04,0.039-0.04
				c6.337-0.014,11.463-5.141,11.485-11.473c0.002-0.021,0.017-0.037,0.038-0.037c0.02,0,0.037,0.016,0.037,0.037v0.002
				c0.024,6.266,5.047,11.349,11.29,11.467h8.829v-26.252H160.068z"/>
			<path id="Fill-3_1_" fill="#008BCE" d="M91.623,476.844c0-1.217,0.62-1.624,1.479-1.624h0.359c0.882,0,1.527,0.382,1.527,1.624
				v5.132c0,1.551,0.788,2.505,2.196,2.505c1.122,0,2.028-0.62,2.507-1.527v-6.11c0-1.217,0.619-1.624,1.504-1.624h0.333
				c0.908,0,1.527,0.382,1.527,1.624v9.859c0,0.118-0.572,0.382-1.263,0.382c-0.837,0-1.768-0.358-2.03-1.839
				c-0.812,1.195-2.005,2.053-3.819,2.053c-3.055,0-4.32-2.148-4.32-4.82V476.844z"/>
			<path id="Fill-5_1_" fill="#008BCE" d="M106.636,477.965h-0.572c-0.956,0-1.409-0.406-1.409-1.168v-0.215
				c0-0.812,0.453-1.243,1.409-1.243h0.572v-1.479c0-1.099,0.573-1.624,1.529-1.624h0.286c0.906,0,1.503,0.382,1.503,1.624v1.479
				h2.028c0.955,0,1.361,0.406,1.361,1.194v0.192c0,0.812-0.429,1.24-1.383,1.24h-2.078v4.966c0,1.145,0.38,1.719,1.289,1.719
				c0.692,0,1.146-0.334,1.503-0.788c0.048-0.07,0.811,0.382,0.811,1.313c0,1.168-1.168,2.123-3.079,2.123
				c-2.577,0-3.771-1.359-3.771-3.986V477.965z"/>
			<path id="Fill-7_1_" fill="#008BCE" d="M115.181,470.78c0-0.121,0.597-0.382,1.265-0.382c1.003,0,2.101,0.526,2.101,2.699v4.104
				c0.74-1.219,1.935-2.125,3.771-2.125c3.032,0,4.321,2.196,4.321,4.918v5.49c0,1.218-0.621,1.6-1.479,1.6h-0.357
				c-0.908,0-1.529-0.358-1.529-1.6v-5.013c0-1.624-0.81-2.578-2.124-2.578c-1.599,0-2.603,1.049-2.603,2.721v4.87
				c0,1.218-0.62,1.6-1.479,1.6h-0.358c-0.908,0-1.528-0.358-1.528-1.6V470.78z"/>
			<path id="Fill-9_1_" fill="#008BCE" d="M134.395,475.077c3.438,0,5.801,2.41,5.801,5.824v0.24
				c-0.024,0.597-0.191,0.929-0.812,0.929h-8.043c0.239,1.743,1.574,2.77,3.388,2.77c1.768,0,2.746-0.787,3.294-1.718
				c0.024-0.048,1.624,0.167,1.624,1.503c0,1.267-1.79,2.674-5.036,2.674c-3.796,0-6.303-2.363-6.303-6.041
				C128.307,477.703,130.861,475.077,134.395,475.077L134.395,475.077z M137.069,480.114c-0.073-1.624-1.099-2.698-2.722-2.698
				c-1.575,0-2.768,1.123-3.006,2.698H137.069z"/>
			<path id="Fill-11_1_" fill="#008BCE" d="M141.914,475.603c0-0.095,0.597-0.382,1.265-0.382c0.883,0,1.838,0.407,2.053,1.981
				c0.477-1.336,1.432-2.124,2.841-2.124c1.36,0,2.172,0.763,2.172,1.958c0,1.337-1.026,1.813-1.075,1.766
				c-0.358-0.333-0.883-0.573-1.526-0.573c-1.648,0-2.364,1.433-2.364,3.771v3.485c0,1.218-0.62,1.601-1.479,1.601h-0.359
				c-0.908,0-1.527-0.359-1.527-1.601V475.603z"/>
			<path id="Fill-13_1_" fill="#008BCE" d="M151.876,475.603c0-0.095,0.596-0.382,1.264-0.382c0.861,0,1.792,0.407,2.031,1.911
				c0.812-1.194,2.029-2.054,3.843-2.054c3.032,0,4.321,2.148,4.321,4.822v5.584c0,1.218-0.621,1.601-1.481,1.601h-0.357
				c-0.906,0-1.528-0.359-1.528-1.601V480.4c0-1.552-0.786-2.506-2.147-2.506c-1.193,0-2.102,0.62-2.579,1.528v6.061
				c0,1.218-0.62,1.601-1.479,1.601h-0.357c-0.908,0-1.529-0.359-1.529-1.601V475.603z"/>
			<path id="Fill-15_1_" fill="#008BCE" d="M177.824,471.234c4.105,0,5.943,2.242,5.943,3.485c0,1.526-1.98,1.908-2.028,1.79
				c-0.766-1.337-2.22-2.101-3.772-2.101c-2.602,0-4.487,1.958-4.487,4.846c0,2.865,1.909,4.87,4.511,4.87
				c1.79,0,3.247-0.884,3.844-2.34c0.048-0.118,2.1,0.264,2.1,1.792c0,1.312-1.908,3.722-6.157,3.722
				c-4.679,0-7.925-3.293-7.925-8.02C169.852,474.577,173.098,471.234,177.824,471.234"/>
			<path id="Fill-17_1_" fill="#008BCE" d="M185.697,475.603c0-0.095,0.598-0.382,1.266-0.382c0.883,0,1.838,0.407,2.054,1.981
				c0.477-1.336,1.432-2.124,2.84-2.124c1.36,0,2.172,0.763,2.172,1.958c0,1.337-1.026,1.813-1.074,1.766
				c-0.357-0.333-0.884-0.573-1.527-0.573c-1.646,0-2.363,1.433-2.363,3.771v3.485c0,1.218-0.62,1.601-1.479,1.601h-0.359
				c-0.908,0-1.528-0.359-1.528-1.601V475.603z"/>
			<path id="Fill-19_1_" fill="#008BCE" d="M201.007,475.077c3.677,0,6.206,2.506,6.206,6.135c0,3.628-2.529,6.087-6.253,6.087
				c-3.699,0-6.206-2.459-6.206-6.134C194.754,477.583,197.308,475.077,201.007,475.077 M200.982,484.649
				c1.863,0,3.246-1.458,3.246-3.438c0-2.029-1.36-3.509-3.246-3.509s-3.27,1.457-3.27,3.462
				C197.713,483.192,199.097,484.649,200.982,484.649"/>
			<path id="Fill-21_1_" fill="#008BCE" d="M209.361,483.337c0.812,0.859,2.125,1.551,3.843,1.551c1.313,0,2.054-0.383,2.054-1.123
				c0-0.882-0.932-1.026-2.508-1.36c-1.598-0.359-4.106-0.883-4.106-3.533c0-2.267,1.913-3.771,4.871-3.771
				c3.152,0,4.727,1.146,4.727,2.482c0,0.882-1.026,1.503-1.098,1.433c-0.788-0.908-2.054-1.552-3.413-1.552
				c-1.266,0-1.982,0.405-1.982,1.145c0,0.835,0.932,0.955,2.483,1.313c1.646,0.358,4.296,0.905,4.296,3.556
				c0,2.34-1.932,3.771-5.133,3.771c-3.412,0-5.06-1.194-5.06-2.53C208.335,483.862,209.291,483.266,209.361,483.337"/>
			<path id="Fill-23_1_" fill="#008BCE" d="M220.795,483.337c0.811,0.859,2.125,1.551,3.843,1.551c1.313,0,2.054-0.383,2.054-1.123
				c0-0.882-0.932-1.026-2.507-1.36c-1.6-0.359-4.107-0.883-4.107-3.533c0-2.267,1.911-3.771,4.871-3.771
				c3.151,0,4.727,1.146,4.727,2.482c0,0.882-1.025,1.503-1.1,1.433c-0.787-0.908-2.05-1.552-3.411-1.552
				c-1.266,0-1.981,0.405-1.981,1.145c0,0.835,0.932,0.955,2.483,1.313c1.646,0.358,4.295,0.905,4.295,3.556
				c0,2.34-1.932,3.771-5.133,3.771c-3.413,0-5.06-1.194-5.06-2.53C219.769,483.862,220.723,483.266,220.795,483.337"/>
			<path id="Fill-25_1_" fill="#008BCE" d="M65.08,482.429c0.931,1.122,2.698,2.125,4.607,2.125c1.838,0,2.818-0.692,2.818-1.886
				c0-1.384-1.553-1.6-3.367-2.004c-2.482-0.55-5.013-1.505-5.013-4.657c0-2.864,2.315-4.773,6.039-4.773
				c3.725,0,5.539,1.503,5.539,2.817c0,1.098-1.337,1.908-1.408,1.837c-0.909-1.075-2.459-1.91-4.107-1.91
				c-1.695,0-2.673,0.717-2.673,1.837c0,1.338,1.385,1.459,3.293,1.888c2.794,0.622,5.229,1.79,5.229,4.702
				c0,3.079-2.244,4.894-6.327,4.894c-4.104,0-5.967-1.695-5.967-3.103C63.743,483.218,64.959,482.334,65.08,482.429"/>
			<path id="Fill-27_1_" fill="#008BCE" d="M83.748,475.077c3.676,0,6.206,2.506,6.206,6.135c0,3.628-2.53,6.087-6.254,6.087
				c-3.699,0-6.207-2.459-6.207-6.134C77.494,477.583,80.049,475.077,83.748,475.077 M83.724,484.649
				c1.863,0,3.247-1.458,3.247-3.438c0-2.029-1.362-3.509-3.247-3.509c-1.886,0-3.27,1.457-3.27,3.462
				C80.455,483.192,81.838,484.649,83.724,484.649"/>
			<path id="Fill-29_1_" fill="#008BCE" d="M56.852,495.136c0-1.072,0.524-1.596,1.477-1.596h0.522c1.002,0,1.526,0.523,1.526,1.596
				v4.693h6.671v-4.693c0-1.072,0.524-1.596,1.475-1.596h0.5c1.026,0,1.551,0.523,1.551,1.596v12.412
				c0,1.047-0.524,1.596-1.551,1.596h-0.5c-0.951,0-1.475-0.549-1.475-1.596v-4.742h-6.671v4.742c0,1.047-0.524,1.596-1.526,1.596
				h-0.522c-0.953,0-1.477-0.549-1.477-1.596V495.136z"/>
			<path id="Fill-31_1_" fill="#008BCE" d="M78.518,497.16c3.429,0,5.79,2.407,5.79,5.812v0.24
				c-0.024,0.595-0.191,0.929-0.811,0.929h-8.031c0.241,1.737,1.575,2.764,3.384,2.764c1.763,0,2.739-0.786,3.288-1.717
				c0.025-0.046,1.621,0.171,1.621,1.5c0,1.264-1.787,2.669-5.026,2.669c-3.79,0-6.289-2.356-6.289-6.028
				C72.445,499.779,74.993,497.16,78.518,497.16L78.518,497.16z M81.187,502.186c-0.072-1.617-1.098-2.689-2.715-2.689
				c-1.576,0-2.765,1.119-3.005,2.689H81.187z"/>
			<path id="Fill-33_1_" fill="#008BCE" d="M93.032,501.996h0.383c0-1.501-0.836-2.311-2.382-2.311
				c-1.621,0-2.457,0.882-2.885,1.787c0,0.047-2.165,0.122-2.165-1.429c0-1.455,1.713-2.881,5.262-2.881
				c3.67,0,5.479,1.667,5.479,4.789v6.883c0,0.167-0.619,0.383-1.261,0.383c-1.071,0-1.787-0.575-1.978-1.838
				c-0.836,1.214-2.311,1.929-4.027,1.929c-2.429,0-3.907-1.379-3.907-3.361C85.551,503.281,87.935,502.068,93.032,501.996
				 M90.579,507.117c1.667,0,2.835-1.092,2.835-2.618v-0.669l-0.619,0.025c-2.644,0.07-4.028,0.595-4.028,1.858
				C88.768,506.569,89.458,507.117,90.579,507.117"/>
			<path id="Fill-35_1_" fill="#008BCE" d="M98.926,492.873c0-0.122,0.594-0.382,1.264-0.382c1.002,0,2.095,0.524,2.095,2.693
				v12.363c0,1.214-0.619,1.597-1.475,1.597h-0.358c-0.881,0-1.526-0.359-1.526-1.597V492.873z"/>
			<path id="Fill-37_1_" fill="#008BCE" d="M105.843,500.043h-0.57c-0.956,0-1.41-0.402-1.41-1.168v-0.212
				c0-0.811,0.454-1.239,1.41-1.239h0.57v-1.479c0-1.094,0.574-1.618,1.525-1.618h0.287c0.902,0,1.5,0.378,1.5,1.618v1.479h2.025
				c0.952,0,1.359,0.404,1.359,1.19v0.191c0,0.81-0.431,1.238-1.383,1.238h-2.074v4.956c0,1.142,0.382,1.715,1.288,1.715
				c0.69,0,1.143-0.334,1.5-0.785c0.046-0.074,0.811,0.378,0.811,1.31c0,1.168-1.168,2.121-3.072,2.121
				c-2.574,0-3.766-1.359-3.766-3.979V500.043z"/>
			<path id="Fill-39_1_" fill="#008BCE" d="M132.826,495.157c0-1.073,0.524-1.597,1.501-1.597h0.477
				c1.022,0,1.547,0.523,1.547,1.597v12.412c0,1.046-0.524,1.596-1.547,1.596h-0.477c-0.977,0-1.501-0.55-1.501-1.596V495.157z"/>
			<path id="Fill-41_1_" fill="#008BCE" d="M138.559,497.705c0-0.094,0.594-0.382,1.264-0.382c0.856,0,1.788,0.408,2.025,1.908
				c0.806-1.192,2.024-2.049,3.837-2.049c3.021,0,4.311,2.145,4.311,4.813v5.574c0,1.214-0.62,1.593-1.481,1.593h-0.356
				c-0.903,0-1.522-0.355-1.522-1.593v-5.075c0-1.55-0.786-2.502-2.146-2.502c-1.192,0-2.095,0.619-2.573,1.525v6.052
				c0,1.214-0.619,1.593-1.479,1.593h-0.354c-0.906,0-1.526-0.355-1.526-1.593V497.705z"/>
			<path id="Fill-43_1_" fill="#008BCE" d="M152.768,505.425c0.811,0.855,2.119,1.547,3.837,1.547c1.309,0,2.044-0.379,2.044-1.119
				c0-0.881-0.926-1.023-2.5-1.36c-1.595-0.358-4.097-0.88-4.097-3.525c0-2.261,1.908-3.762,4.859-3.762
				c3.146,0,4.719,1.144,4.719,2.477c0,0.882-1.024,1.501-1.098,1.43c-0.786-0.905-2.049-1.549-3.405-1.549
				c-1.263,0-1.979,0.407-1.979,1.144c0,0.834,0.932,0.952,2.479,1.309c1.645,0.357,4.289,0.906,4.289,3.549
				c0,2.336-1.929,3.767-5.121,3.767c-3.407,0-5.05-1.193-5.05-2.528C151.745,505.949,152.697,505.355,152.768,505.425"/>
			<path id="Fill-45_1_" fill="#008BCE" d="M163.578,498.945c0-1.214,0.618-1.622,1.477-1.622h0.356c0.88,0,1.524,0.384,1.524,1.622
				v5.12c0,1.547,0.786,2.502,2.192,2.502c1.12,0,2.023-0.619,2.501-1.526v-6.096c0-1.214,0.62-1.622,1.5-1.622h0.333
				c0.907,0,1.526,0.384,1.526,1.622v9.839c0,0.117-0.569,0.379-1.265,0.379c-0.831,0-1.763-0.355-2.024-1.834
				c-0.809,1.193-1.998,2.05-3.812,2.05c-3.047,0-4.31-2.145-4.31-4.81V498.945z"/>
			<path id="Fill-48_1_" fill="#008BCE" d="M177.058,497.705c0-0.094,0.594-0.382,1.262-0.382c0.883,0,1.835,0.408,2.048,1.979
				c0.478-1.334,1.43-2.119,2.834-2.119c1.358,0,2.169,0.761,2.169,1.953c0,1.334-1.021,1.809-1.072,1.762
				c-0.356-0.332-0.881-0.57-1.524-0.57c-1.643,0-2.358,1.427-2.358,3.763v3.479c0,1.214-0.619,1.593-1.477,1.593h-0.355
				c-0.905,0-1.525-0.355-1.525-1.593V497.705z"/>
			<path id="Fill-50_1_" fill="#008BCE" d="M193.572,502.018h0.383c0-1.5-0.836-2.312-2.382-2.312c-1.622,0-2.457,0.881-2.886,1.788
				c0,0.046-2.165,0.117-2.165-1.43c0-1.454,1.713-2.884,5.264-2.884c3.669,0,5.478,1.671,5.478,4.789v6.887
				c0,0.167-0.619,0.379-1.261,0.379c-1.072,0-1.788-0.57-1.978-1.833c-0.835,1.213-2.312,1.929-4.027,1.929
				c-2.429,0-3.907-1.38-3.907-3.36C186.091,503.303,188.477,502.088,193.572,502.018 M191.118,507.138
				c1.668,0,2.837-1.096,2.837-2.618v-0.669l-0.62,0.026c-2.644,0.07-4.027,0.594-4.027,1.856
				C189.308,506.59,189.998,507.138,191.118,507.138"/>
			<path id="Fill-52_1_" fill="#008BCE" d="M199.415,497.672c0-0.095,0.595-0.382,1.264-0.382c0.856,0,1.788,0.408,2.023,1.907
				c0.812-1.193,2.024-2.049,3.834-2.049c3.024,0,4.314,2.145,4.314,4.813v5.575c0,1.213-0.618,1.592-1.481,1.592h-0.354
				c-0.903,0-1.523-0.354-1.523-1.592v-5.076c0-1.551-0.784-2.501-2.145-2.501c-1.192,0-2.095,0.619-2.574,1.525v6.052
				c0,1.213-0.618,1.592-1.479,1.592h-0.353c-0.906,0-1.526-0.354-1.526-1.592V497.672z"/>
			<path id="Fill-54_1_" fill="#008BCE" d="M218.729,497.207c3.549,0,4.955,2.022,4.955,3.142c0,1.36-1.788,1.597-1.858,1.48
				c-0.452-1.122-1.309-1.929-2.954-1.929c-1.835,0-3.169,1.404-3.169,3.358c0,2,1.334,3.43,3.169,3.43
				c1.596,0,2.502-0.81,2.954-1.929c0.05-0.146,1.858,0.07,1.858,1.5c0,1.094-1.477,3.118-4.955,3.118
				c-3.597,0-6.123-2.523-6.123-6.12C212.605,499.729,215.18,497.207,218.729,497.207"/>
			<path id="Fill-56_1_" fill="#008BCE" d="M231.062,497.182c3.429,0,5.789,2.407,5.789,5.812v0.24
				c-0.023,0.595-0.19,0.928-0.811,0.928h-8.031c0.241,1.741,1.574,2.763,3.385,2.763c1.763,0,2.739-0.785,3.287-1.716
				c0.025-0.045,1.622,0.17,1.622,1.501c0,1.264-1.788,2.668-5.026,2.668c-3.79,0-6.289-2.356-6.289-6.026
				C224.988,499.803,227.537,497.182,231.062,497.182L231.062,497.182z M233.73,502.208c-0.073-1.618-1.098-2.69-2.715-2.69
				c-1.575,0-2.765,1.118-3.006,2.69H233.73z"/>
			<path id="Fill-59_1_" fill="#008BCE" d="M114.375,492.873c0-0.122,0.594-0.382,1.263-0.382c0.999,0,2.096,0.524,2.096,2.693
				v4.099c0.736-1.217,1.928-2.12,3.766-2.12c3.022,0,4.311,2.19,4.311,4.904v5.48c0,1.214-0.619,1.597-1.479,1.597h-0.357
				c-0.902,0-1.521-0.359-1.521-1.597v-5.001c0-1.621-0.811-2.573-2.124-2.573c-1.593,0-2.594,1.047-2.594,2.714v4.859
				c0,1.214-0.62,1.597-1.479,1.597H115.9c-0.906,0-1.525-0.359-1.525-1.597V492.873z"/>
		</g>
	</g>
</g>
<g id="Page-1_2_">
	<g id="Artboard_2_" transform="translate(-162.000000, -137.000000)">
		<g id="Group-61_2_" transform="translate(162.000000, 137.000000)">
			<path id="Fill-1_2_" fill="#008BCE" d="M169.188,731.753L169.188,731.753c-2.674,0.011-4.832,2.175-4.844,4.846
				c0,0.009-0.006,0.016-0.014,0.016c-0.01,0-0.018-0.007-0.018-0.016c-0.008-2.674-2.174-4.84-4.85-4.846
				c-0.01,0-0.018-0.008-0.018-0.016c0-0.01,0.008-0.017,0.018-0.017c2.676-0.007,4.842-2.172,4.85-4.847
				c0-0.007,0.008-0.015,0.018-0.015c0.008,0,0.014,0.008,0.014,0.015v0.002c0.012,2.67,2.17,4.834,4.844,4.845
				c0.01,0,0.017,0.007,0.017,0.017C169.204,731.745,169.197,731.753,169.188,731.753L169.188,731.753z M154.701,731.753
				L154.701,731.753c-2.672,0.011-4.831,2.175-4.84,4.846c0,0.009-0.007,0.016-0.015,0.016c-0.01,0-0.018-0.007-0.018-0.016
				c-0.008-2.674-2.175-4.84-4.85-4.846c-0.008,0-0.016-0.008-0.016-0.016c0-0.01,0.008-0.017,0.016-0.017
				c2.675-0.007,4.842-2.172,4.85-4.847c0-0.007,0.008-0.015,0.018-0.015c0.008,0,0.014,0.008,0.015,0.015v0.002
				c0.01,2.67,2.168,4.834,4.84,4.845c0.01,0,0.018,0.007,0.018,0.017C154.719,731.745,154.711,731.753,154.701,731.753
				L154.701,731.753z M157.132,719.664c0.265,2.428,2.313,4.321,4.812,4.332h0.001c0.008,0,0.016,0.006,0.016,0.016
				c0,0.009-0.008,0.015-0.016,0.015h-0.001c-2.673,0.011-4.833,2.177-4.843,4.847c0,0.009-0.006,0.017-0.015,0.017
				c-0.01,0-0.017-0.008-0.017-0.017c-0.01-2.674-2.172-4.84-4.85-4.845v-0.002c-0.008,0-0.018-0.006-0.018-0.015
				c0-0.01,0.01-0.017,0.018-0.017c2.58-0.006,4.686-2.022,4.84-4.563v-15.475h-20.417v15.707h-15.708v20.418h15.708v15.707h20.417
				v-6.719c-0.018-4.925-4.004-8.912-8.933-8.923v-0.002c-0.017,0-0.03-0.013-0.03-0.029c0-0.018,0.014-0.031,0.03-0.031
				c4.929-0.011,8.916-3.998,8.933-8.923c0.002-0.016,0.013-0.029,0.03-0.029c0.015,0,0.028,0.014,0.028,0.029v0.001
				c0.02,4.874,3.926,8.828,8.781,8.919h6.867v-20.418H157.132z"/>
			<path id="Fill-3_2_" fill="#008BCE" d="M103.896,770.371c0-0.946,0.481-1.262,1.15-1.262h0.28c0.686,0,1.188,0.297,1.188,1.262
				v3.992c0,1.207,0.612,1.948,1.708,1.948c0.874,0,1.578-0.481,1.951-1.188v-4.753c0-0.946,0.481-1.262,1.17-1.262h0.258
				c0.707,0,1.188,0.297,1.188,1.262v7.669c0,0.092-0.444,0.297-0.982,0.297c-0.651,0-1.375-0.278-1.579-1.431
				c-0.631,0.93-1.56,1.597-2.971,1.597c-2.376,0-3.359-1.671-3.359-3.749V770.371z"/>
			<path id="Fill-5_2_" fill="#008BCE" d="M115.573,771.243h-0.445c-0.744,0-1.096-0.315-1.096-0.908v-0.167
				c0-0.632,0.353-0.966,1.096-0.966h0.445v-1.151c0-0.854,0.446-1.263,1.189-1.263h0.222c0.705,0,1.17,0.298,1.17,1.263v1.151
				h1.577c0.743,0,1.059,0.314,1.059,0.928v0.149c0,0.632-0.334,0.964-1.076,0.964h-1.616v3.862c0,0.892,0.296,1.337,1.002,1.337
				c0.538,0,0.892-0.26,1.17-0.612c0.036-0.055,0.63,0.297,0.63,1.021c0,0.909-0.909,1.651-2.395,1.651
				c-2.004,0-2.933-1.057-2.933-3.101V771.243z"/>
			<path id="Fill-7_2_" fill="#008BCE" d="M122.219,765.655c0-0.093,0.463-0.297,0.983-0.297c0.781,0,1.635,0.409,1.635,2.1v3.192
				c0.575-0.948,1.504-1.653,2.933-1.653c2.358,0,3.36,1.709,3.36,3.825v4.271c0,0.947-0.483,1.244-1.151,1.244h-0.278
				c-0.706,0-1.189-0.278-1.189-1.244v-3.898c0-1.264-0.629-2.006-1.652-2.006c-1.244,0-2.023,0.816-2.023,2.116v3.788
				c0,0.947-0.483,1.244-1.151,1.244h-0.279c-0.706,0-1.188-0.278-1.188-1.244V765.655z"/>
			<path id="Fill-9_2_" fill="#008BCE" d="M137.163,768.997c2.674,0,4.512,1.875,4.512,4.53v0.187
				c-0.019,0.465-0.149,0.723-0.631,0.723h-6.256c0.186,1.355,1.224,2.154,2.635,2.154c1.375,0,2.136-0.612,2.562-1.337
				c0.019-0.036,1.263,0.13,1.263,1.17c0,0.984-1.393,2.079-3.917,2.079c-2.952,0-4.903-1.838-4.903-4.698
				C132.428,771.04,134.415,768.997,137.163,768.997L137.163,768.997z M139.242,772.915c-0.056-1.263-0.854-2.099-2.117-2.099
				c-1.225,0-2.152,0.874-2.338,2.099H139.242z"/>
			<path id="Fill-11_2_" fill="#008BCE" d="M143.011,769.406c0-0.074,0.463-0.297,0.983-0.297c0.687,0,1.43,0.315,1.597,1.54
				c0.372-1.039,1.114-1.652,2.21-1.652c1.058,0,1.689,0.594,1.689,1.523c0,1.04-0.798,1.41-0.836,1.373
				c-0.278-0.258-0.687-0.445-1.187-0.445c-1.282,0-1.838,1.114-1.838,2.933v2.71c0,0.947-0.483,1.245-1.151,1.245h-0.279
				c-0.707,0-1.188-0.279-1.188-1.245V769.406z"/>
			<path id="Fill-13_2_" fill="#008BCE" d="M150.76,769.406c0-0.074,0.463-0.297,0.982-0.297c0.67,0,1.394,0.315,1.58,1.485
				c0.631-0.929,1.578-1.598,2.989-1.598c2.358,0,3.36,1.671,3.36,3.751v4.343c0,0.947-0.482,1.245-1.152,1.245h-0.277
				c-0.705,0-1.189-0.279-1.189-1.245v-3.953c0-1.207-0.611-1.949-1.67-1.949c-0.928,0-1.635,0.482-2.006,1.188v4.714
				c0,0.947-0.482,1.245-1.15,1.245h-0.277c-0.707,0-1.189-0.279-1.189-1.245V769.406z"/>
			<path id="Fill-15_2_" fill="#008BCE" d="M170.941,766.009c3.193,0,4.623,1.744,4.623,2.71c0,1.188-1.541,1.484-1.578,1.393
				c-0.596-1.04-1.727-1.634-2.934-1.634c-2.023,0-3.49,1.523-3.49,3.769c0,2.229,1.484,3.789,3.508,3.789
				c1.393,0,2.525-0.688,2.99-1.821c0.037-0.092,1.633,0.205,1.633,1.394c0,1.021-1.484,2.896-4.789,2.896
				c-3.639,0-6.164-2.561-6.164-6.238C164.74,768.608,167.266,766.009,170.941,766.009"/>
			<path id="Fill-17_2_" fill="#008BCE" d="M177.065,769.406c0-0.074,0.465-0.297,0.984-0.297c0.687,0,1.429,0.315,1.597,1.54
				c0.371-1.039,1.113-1.652,2.209-1.652c1.058,0,1.689,0.594,1.689,1.523c0,1.04-0.799,1.41-0.836,1.373
				c-0.277-0.258-0.688-0.445-1.188-0.445c-1.281,0-1.838,1.114-1.838,2.933v2.71c0,0.947-0.482,1.245-1.15,1.245h-0.279
				c-0.707,0-1.188-0.279-1.188-1.245V769.406z"/>
			<path id="Fill-19_2_" fill="#008BCE" d="M188.973,768.997c2.859,0,4.827,1.949,4.827,4.771s-1.968,4.734-4.864,4.734
				c-2.877,0-4.826-1.912-4.826-4.771C184.109,770.946,186.096,768.997,188.973,768.997 M188.953,776.442
				c1.449,0,2.525-1.134,2.525-2.674c0-1.578-1.059-2.729-2.525-2.729s-2.543,1.133-2.543,2.692
				C186.41,775.309,187.486,776.442,188.953,776.442"/>
			<path id="Fill-21_2_" fill="#008BCE" d="M195.471,775.422c0.631,0.668,1.652,1.207,2.988,1.207c1.021,0,1.598-0.299,1.598-0.874
				c0-0.686-0.725-0.797-1.95-1.058c-1.243-0.279-3.194-0.688-3.194-2.748c0-1.763,1.488-2.933,3.789-2.933
				c2.451,0,3.676,0.891,3.676,1.931c0,0.686-0.798,1.169-0.854,1.114c-0.613-0.706-1.598-1.207-2.654-1.207
				c-0.984,0-1.542,0.315-1.542,0.891c0,0.649,0.725,0.742,1.932,1.022c1.28,0.277,3.341,0.703,3.341,2.765
				c0,1.82-1.502,2.934-3.992,2.934c-2.654,0-3.936-0.929-3.936-1.968C194.672,775.83,195.416,775.366,195.471,775.422"/>
			<path id="Fill-23_2_" fill="#008BCE" d="M204.363,775.422c0.631,0.668,1.652,1.207,2.989,1.207c1.021,0,1.597-0.299,1.597-0.874
				c0-0.686-0.725-0.797-1.949-1.058c-1.244-0.279-3.195-0.688-3.195-2.748c0-1.763,1.486-2.933,3.789-2.933
				c2.451,0,3.676,0.891,3.676,1.931c0,0.686-0.797,1.169-0.854,1.114c-0.612-0.706-1.595-1.207-2.653-1.207
				c-0.984,0-1.541,0.315-1.541,0.891c0,0.649,0.725,0.742,1.932,1.022c1.279,0.277,3.34,0.703,3.34,2.765
				c0,1.82-1.502,2.934-3.992,2.934c-2.654,0-3.935-0.929-3.935-1.968C203.565,775.83,204.307,775.366,204.363,775.422"/>
			<path id="Fill-25_2_" fill="#008BCE" d="M83.251,774.716c0.723,0.872,2.098,1.653,3.583,1.653c1.431,0,2.191-0.539,2.191-1.468
				c0-1.076-1.208-1.244-2.618-1.559c-1.931-0.428-3.898-1.171-3.898-3.621c0-2.229,1.8-3.713,4.697-3.713s4.308,1.17,4.308,2.19
				c0,0.854-1.04,1.484-1.095,1.43c-0.707-0.837-1.913-1.486-3.195-1.486c-1.318,0-2.08,0.558-2.08,1.429
				c0,1.042,1.078,1.135,2.562,1.469c2.173,0.483,4.067,1.392,4.067,3.657c0,2.395-1.745,3.806-4.921,3.806
				c-3.191,0-4.641-1.318-4.641-2.413C82.211,775.329,83.157,774.642,83.251,774.716"/>
			<path id="Fill-27_2_" fill="#008BCE" d="M97.771,768.997c2.859,0,4.827,1.949,4.827,4.771s-1.968,4.734-4.864,4.734
				c-2.876,0-4.827-1.912-4.827-4.771C92.907,770.946,94.894,768.997,97.771,768.997 M97.753,776.442
				c1.448,0,2.524-1.134,2.524-2.674c0-1.578-1.059-2.729-2.524-2.729c-1.468,0-2.543,1.133-2.543,2.692
				C95.21,775.309,96.285,776.442,97.753,776.442"/>
			<path id="Fill-29_2_" fill="#008BCE" d="M76.852,784.599c0-0.834,0.408-1.241,1.148-1.241h0.407c0.779,0,1.186,0.407,1.186,1.241
				v3.65h5.189v-3.65c0-0.834,0.408-1.241,1.147-1.241h0.389c0.798,0,1.206,0.407,1.206,1.241v9.653
				c0,0.814-0.408,1.241-1.206,1.241H85.93c-0.739,0-1.147-0.427-1.147-1.241v-3.688h-5.189v3.688c0,0.814-0.407,1.241-1.186,1.241
				H78c-0.741,0-1.148-0.427-1.148-1.241V784.599z"/>
			<path id="Fill-31_2_" fill="#008BCE" d="M93.703,786.173c2.667,0,4.503,1.872,4.503,4.521v0.186
				c-0.019,0.463-0.148,0.723-0.63,0.723H91.33c0.187,1.351,1.224,2.149,2.631,2.149c1.372,0,2.131-0.611,2.558-1.335
				c0.019-0.037,1.261,0.132,1.261,1.166c0,0.983-1.39,2.076-3.91,2.076c-2.948,0-4.891-1.833-4.891-4.688
				C88.98,788.21,90.961,786.173,93.703,786.173L93.703,786.173z M95.779,790.082c-0.056-1.258-0.854-2.092-2.112-2.092
				c-1.225,0-2.15,0.87-2.337,2.092H95.779z"/>
			<path id="Fill-33_2_" fill="#008BCE" d="M104.991,789.935h0.298c0-1.168-0.65-1.797-1.852-1.797
				c-1.261,0-1.911,0.686-2.244,1.389c0,0.037-1.684,0.095-1.684-1.111c0-1.132,1.333-2.24,4.092-2.24
				c2.855,0,4.261,1.296,4.261,3.725v5.354c0,0.13-0.481,0.298-0.98,0.298c-0.834,0-1.39-0.447-1.539-1.43
				c-0.65,0.945-1.797,1.501-3.132,1.501c-1.889,0-3.039-1.072-3.039-2.614C99.173,790.934,101.028,789.99,104.991,789.935
				 M103.084,793.918c1.296,0,2.205-0.851,2.205-2.037v-0.52l-0.481,0.02c-2.056,0.055-3.132,0.462-3.132,1.444
				C101.675,793.491,102.212,793.918,103.084,793.918"/>
			<path id="Fill-35_2_" fill="#008BCE" d="M109.576,782.839c0-0.095,0.463-0.298,0.983-0.298c0.779,0,1.63,0.408,1.63,2.095v9.616
				c0,0.943-0.482,1.241-1.147,1.241h-0.279c-0.686,0-1.188-0.279-1.188-1.241V782.839z"/>
			<path id="Fill-37_2_" fill="#008BCE" d="M114.957,788.415h-0.443c-0.743,0-1.097-0.312-1.097-0.908v-0.165
				c0-0.631,0.354-0.964,1.097-0.964h0.443v-1.149c0-0.852,0.446-1.259,1.186-1.259h0.224c0.701,0,1.166,0.294,1.166,1.259v1.149
				h1.576c0.74,0,1.057,0.314,1.057,0.926v0.148c0,0.631-0.336,0.963-1.076,0.963h-1.613v3.854c0,0.889,0.296,1.334,1.001,1.334
				c0.537,0,0.889-0.26,1.167-0.61c0.036-0.057,0.631,0.294,0.631,1.019c0,0.908-0.909,1.649-2.39,1.649
				c-2.002,0-2.929-1.057-2.929-3.094V788.415z"/>
			<path id="Fill-39_2_" fill="#008BCE" d="M135.943,784.615c0-0.835,0.408-1.242,1.168-1.242h0.371
				c0.795,0,1.203,0.407,1.203,1.242v9.653c0,0.814-0.408,1.241-1.203,1.241h-0.371c-0.761,0-1.168-0.427-1.168-1.241V784.615z"/>
			<path id="Fill-41_2_" fill="#008BCE" d="M140.401,786.597c0-0.072,0.462-0.297,0.983-0.297c0.666,0,1.39,0.317,1.575,1.484
				c0.627-0.928,1.574-1.594,2.984-1.594c2.35,0,3.353,1.668,3.353,3.744v4.335c0,0.944-0.482,1.239-1.152,1.239h-0.277
				c-0.702,0-1.184-0.275-1.184-1.239v-3.947c0-1.206-0.611-1.946-1.668-1.946c-0.928,0-1.63,0.481-2.001,1.187v4.707
				c0,0.944-0.481,1.239-1.15,1.239h-0.276c-0.705,0-1.187-0.275-1.187-1.239V786.597z"/>
			<path id="Fill-43_2_" fill="#008BCE" d="M151.453,792.602c0.63,0.665,1.648,1.203,2.984,1.203c1.018,0,1.59-0.295,1.59-0.87
				c0-0.685-0.721-0.796-1.944-1.058c-1.241-0.278-3.187-0.685-3.187-2.741c0-1.76,1.484-2.926,3.779-2.926
				c2.447,0,3.67,0.889,3.67,1.926c0,0.686-0.797,1.168-0.854,1.112c-0.611-0.703-1.594-1.205-2.648-1.205
				c-0.982,0-1.539,0.316-1.539,0.89c0,0.648,0.725,0.74,1.928,1.018c1.279,0.278,3.336,0.705,3.336,2.761
				c0,1.817-1.5,2.93-3.983,2.93c-2.649,0-3.927-0.928-3.927-1.966C150.658,793.009,151.398,792.547,151.453,792.602"/>
			<path id="Fill-45_2_" fill="#008BCE" d="M159.861,787.562c0-0.944,0.48-1.262,1.148-1.262h0.277c0.685,0,1.186,0.299,1.186,1.262
				v3.982c0,1.203,0.611,1.946,1.705,1.946c0.871,0,1.574-0.481,1.945-1.188v-4.741c0-0.944,0.482-1.262,1.167-1.262h0.259
				c0.705,0,1.187,0.299,1.187,1.262v7.652c0,0.091-0.442,0.295-0.983,0.295c-0.646,0-1.371-0.275-1.574-1.427
				c-0.629,0.928-1.554,1.595-2.965,1.595c-2.369,0-3.352-1.668-3.352-3.741V787.562z"/>
			<path id="Fill-48_2_" fill="#008BCE" d="M170.346,786.597c0-0.072,0.461-0.297,0.98-0.297c0.688,0,1.428,0.317,1.593,1.539
				c0.372-1.038,1.112-1.648,2.205-1.648c1.056,0,1.687,0.592,1.687,1.519c0,1.038-0.795,1.407-0.834,1.371
				c-0.277-0.259-0.686-0.443-1.186-0.443c-1.277,0-1.834,1.109-1.834,2.927v2.706c0,0.944-0.482,1.239-1.148,1.239h-0.277
				c-0.704,0-1.186-0.275-1.186-1.239V786.597z"/>
			<path id="Fill-50_2_" fill="#008BCE" d="M183.19,789.951h0.297c0-1.167-0.649-1.797-1.853-1.797c-1.261,0-1.91,0.685-2.244,1.39
				c0,0.036-1.684,0.091-1.684-1.112c0-1.131,1.332-2.243,4.094-2.243c2.854,0,4.261,1.3,4.261,3.725v5.356
				c0,0.13-0.481,0.295-0.981,0.295c-0.834,0-1.391-0.443-1.538-1.425c-0.649,0.943-1.798,1.499-3.132,1.499
				c-1.889,0-3.039-1.073-3.039-2.613C177.371,790.951,179.227,790.006,183.19,789.951 M181.281,793.935
				c1.297,0,2.206-0.854,2.206-2.037v-0.52l-0.481,0.02c-2.057,0.055-3.133,0.462-3.133,1.443
				C179.873,793.508,180.41,793.935,181.281,793.935"/>
			<path id="Fill-52_2_" fill="#008BCE" d="M187.734,786.571c0-0.074,0.463-0.298,0.982-0.298c0.667,0,1.392,0.317,1.574,1.484
				c0.631-0.929,1.574-1.595,2.982-1.595c2.352,0,3.355,1.668,3.355,3.744v4.336c0,0.943-0.48,1.238-1.152,1.238h-0.275
				c-0.703,0-1.186-0.275-1.186-1.238v-3.948c0-1.206-0.609-1.945-1.668-1.945c-0.927,0-1.629,0.482-2.002,1.187v4.707
				c0,0.943-0.48,1.238-1.15,1.238h-0.273c-0.705,0-1.188-0.275-1.188-1.238V786.571z"/>
			<path id="Fill-54_2_" fill="#008BCE" d="M202.756,786.21c2.761,0,3.854,1.572,3.854,2.442c0,1.058-1.391,1.242-1.445,1.151
				c-0.353-0.873-1.019-1.5-2.298-1.5c-1.428,0-2.465,1.092-2.465,2.612c0,1.556,1.037,2.667,2.465,2.667
				c1.241,0,1.945-0.63,2.298-1.5c0.038-0.113,1.445,0.055,1.445,1.167c0,0.851-1.148,2.425-3.854,2.425
				c-2.797,0-4.762-1.962-4.762-4.759C197.994,788.171,199.996,786.21,202.756,786.21"/>
			<path id="Fill-56_2_" fill="#008BCE" d="M212.35,786.189c2.666,0,4.502,1.872,4.502,4.521v0.187
				c-0.018,0.463-0.147,0.722-0.63,0.722h-6.247c0.188,1.354,1.225,2.149,2.633,2.149c1.371,0,2.131-0.61,2.557-1.335
				c0.02-0.035,1.262,0.132,1.262,1.167c0,0.983-1.391,2.075-3.909,2.075c-2.948,0-4.892-1.832-4.892-4.687
				C207.625,788.229,209.607,786.189,212.35,786.189L212.35,786.189z M214.424,790.099c-0.057-1.258-0.854-2.092-2.111-2.092
				c-1.225,0-2.15,0.869-2.338,2.092H214.424z"/>
			<path id="Fill-59_2_" fill="#008BCE" d="M121.592,782.839c0-0.095,0.462-0.298,0.983-0.298c0.776,0,1.63,0.408,1.63,2.095v3.188
				c0.572-0.946,1.499-1.648,2.929-1.648c2.35,0,3.353,1.703,3.353,3.814v4.263c0,0.943-0.481,1.241-1.151,1.241h-0.278
				c-0.701,0-1.183-0.279-1.183-1.241v-3.891c0-1.261-0.631-2.001-1.652-2.001c-1.24,0-2.017,0.814-2.017,2.112v3.779
				c0,0.943-0.483,1.241-1.151,1.241h-0.276c-0.705,0-1.187-0.279-1.187-1.241V782.839z"/>
		</g>
	</g>
</g>
<g id="Page-1_3_">
	<g id="Artboard_3_" transform="translate(-162.000000, -137.000000)">
		<g id="Group-61_3_" transform="translate(162.000000, 137.000000)">
			<path id="Fill-1_3_" fill="#008BCE" d="M163.79,1045.812L163.79,1045.812c-1.651,0.007-2.983,1.343-2.991,2.992
				c0,0.006-0.003,0.01-0.008,0.01c-0.006,0-0.011-0.004-0.011-0.01c-0.005-1.65-1.343-2.988-2.994-2.992
				c-0.006,0-0.011-0.004-0.011-0.01s0.005-0.01,0.011-0.01c1.651-0.004,2.989-1.341,2.994-2.992c0-0.004,0.005-0.009,0.011-0.009
				c0.005,0,0.008,0.005,0.008,0.009v0.001c0.008,1.648,1.34,2.984,2.991,2.991c0.006,0,0.01,0.004,0.01,0.01
				S163.796,1045.812,163.79,1045.812L163.79,1045.812z M154.846,1045.812L154.846,1045.812c-1.648,0.007-2.981,1.343-2.987,2.992
				c0,0.006-0.005,0.01-0.01,0.01c-0.007,0-0.011-0.004-0.011-0.01c-0.005-1.65-1.344-2.988-2.994-2.992
				c-0.005,0-0.01-0.004-0.01-0.01s0.005-0.01,0.01-0.01c1.65-0.004,2.989-1.341,2.994-2.992c0-0.004,0.004-0.009,0.011-0.009
				c0.005,0,0.009,0.005,0.01,0.009v0.001c0.006,1.648,1.339,2.984,2.987,2.991c0.006,0,0.012,0.004,0.012,0.01
				S154.852,1045.812,154.846,1045.812L154.846,1045.812z M156.347,1038.35c0.163,1.499,1.429,2.668,2.972,2.675l0,0
				c0.005,0,0.01,0.003,0.01,0.009s-0.005,0.01-0.01,0.01l0,0c-1.65,0.006-2.984,1.344-2.99,2.992c0,0.005-0.004,0.01-0.009,0.01
				c-0.006,0-0.011-0.005-0.011-0.01c-0.006-1.65-1.341-2.988-2.994-2.991v-0.001c-0.004,0-0.011-0.004-0.011-0.01
				s0.007-0.01,0.011-0.01c1.594-0.004,2.894-1.248,2.988-2.817v-9.554h-12.605v9.697H134v12.605h9.697v9.697h12.605v-4.148
				c-0.011-3.04-2.472-5.502-5.516-5.508v-0.002c-0.01,0-0.018-0.008-0.018-0.018c0-0.012,0.008-0.02,0.018-0.02
				c3.044-0.007,5.505-2.469,5.516-5.509c0.001-0.01,0.008-0.019,0.019-0.019c0.009,0,0.018,0.009,0.018,0.019v0.001
				c0.012,3.009,2.424,5.45,5.422,5.506H166v-12.605H156.347z"/>
		</g>
	</g>
</g>
</svg>
