<?xml version="1.0" encoding="utf-8"?>
<!-- Generator: Adobe Illustrator 15.0.0, SVG Export Plug-In . SVG Version: 6.00 Build 0)  -->
<!DOCTYPE svg PUBLIC "-//W3C//DTD SVG 1.1//EN" "http://www.w3.org/Graphics/SVG/1.1/DTD/svg11.dtd">
<svg version="1.1" id="Layer_3" xmlns="http://www.w3.org/2000/svg" xmlns:xlink="http://www.w3.org/1999/xlink" x="0px" y="0px"
	 width="300px" height="1200px" viewBox="0 0 300 1200" enable-background="new 0 0 300 1200" xml:space="preserve">
<g id="Page-1">
	<g id="Artboard" transform="translate(-73.000000, -137.000000)">
		<g id="Group-59" transform="translate(73.000000, 137.000000)">
			<path id="Fill-1" fill="#FFFFFF" d="M71.271,150.085L71.271,150.085c-3.393,0.014-6.137,2.76-6.15,6.153
				c0,0.013-0.006,0.02-0.019,0.02c-0.01,0-0.02-0.006-0.02-0.02c-0.013-3.396-2.761-6.145-6.16-6.153
				c-0.011,0-0.022-0.01-0.022-0.019c0-0.013,0.012-0.022,0.022-0.022c3.399-0.007,6.147-2.758,6.16-6.154
				c0-0.01,0.01-0.019,0.02-0.019c0.013,0,0.019,0.009,0.019,0.019v0.002c0.014,3.391,2.758,6.139,6.15,6.152
				c0.012,0,0.021,0.009,0.021,0.022C71.292,150.076,71.283,150.085,71.271,150.085L71.271,150.085z M52.879,150.085L52.879,150.085
				c-3.394,0.014-6.137,2.76-6.148,6.153c0,0.013-0.009,0.02-0.021,0.02c-0.011,0-0.021-0.006-0.021-0.02
				c-0.013-3.396-2.762-6.145-6.16-6.153c-0.009,0-0.02-0.01-0.02-0.019c0-0.013,0.011-0.022,0.02-0.022
				c3.398-0.007,6.147-2.758,6.16-6.154c0-0.01,0.01-0.019,0.021-0.019c0.012,0,0.018,0.009,0.021,0.019v0.002
				c0.012,3.391,2.755,6.139,6.148,6.152c0.011,0,0.02,0.009,0.02,0.022C52.898,150.076,52.89,150.085,52.879,150.085
				L52.879,150.085z M55.964,134.734c0.335,3.083,2.937,5.487,6.108,5.501h0.004c0.009,0,0.019,0.007,0.019,0.02
				c0,0.011-0.01,0.019-0.019,0.019h-0.004c-3.392,0.014-6.135,2.763-6.147,6.154c0,0.012-0.006,0.021-0.019,0.021
				c-0.011,0-0.022-0.009-0.022-0.021c-0.01-3.396-2.758-6.146-6.157-6.152v-0.002c-0.011,0-0.02-0.008-0.02-0.019
				c0-0.013,0.009-0.022,0.02-0.022c3.277-0.005,5.95-2.566,6.147-5.794v-19.651h-25.93v19.947H10v25.928h19.944v19.945h25.93
				v-8.533c-0.023-6.251-5.087-11.316-11.344-11.331v-0.001c-0.022,0-0.037-0.016-0.037-0.037c0-0.022,0.015-0.039,0.037-0.039
				c6.257-0.016,11.32-5.079,11.344-11.332c0.001-0.021,0.017-0.036,0.036-0.036s0.037,0.015,0.037,0.036v0.002
				c0.023,6.188,4.984,11.209,11.151,11.325h8.722v-25.928H55.964z"/>
			<path id="Fill-3" fill="#FFFFFF" d="M174.008,153.779c0-1.187,0.562-1.766,1.607-1.766h0.512c1.095,0,1.658,0.579,1.658,1.766
				v13.733c0,1.158-0.563,1.766-1.658,1.766h-0.512c-1.046,0-1.607-0.607-1.607-1.766V153.779z"/>
			<path id="Fill-5" fill="#FFFFFF" d="M179.942,156.379c0-0.107,0.673-0.431,1.43-0.431c0.971,0,2.024,0.458,2.293,2.148
				c0.912-1.343,2.292-2.308,4.344-2.308c3.423,0,4.881,2.415,4.881,5.42v6.276c0,1.366-0.699,1.793-1.675,1.793h-0.404
				c-1.021,0-1.723-0.399-1.723-1.793v-5.714c0-1.745-0.89-2.817-2.429-2.817c-1.351,0-2.374,0.697-2.913,1.716v6.815
				c0,1.366-0.702,1.793-1.676,1.793h-0.4c-1.026,0-1.728-0.399-1.728-1.793V156.379z"/>
			<path id="Fill-7" fill="#FFFFFF" d="M196.188,164.931c0.902,0.952,2.36,1.72,4.274,1.72c1.458,0,2.276-0.421,2.276-1.244
				c0-0.979-1.031-1.137-2.785-1.511c-1.774-0.398-4.563-0.981-4.563-3.921c0-2.518,2.125-4.186,5.414-4.186
				c3.506,0,5.256,1.273,5.256,2.755c0,0.982-1.141,1.67-1.223,1.592c-0.875-1.008-2.282-1.724-3.794-1.724
				c-1.406,0-2.203,0.453-2.203,1.271c0,0.929,1.036,1.06,2.759,1.457c1.835,0.397,4.779,1.007,4.779,3.949
				c0,2.598-2.149,4.189-5.704,4.189c-3.798,0-5.625-1.328-5.625-2.812C195.049,165.514,196.107,164.853,196.188,164.931"/>
			<path id="Fill-9" fill="#FFFFFF" d="M207.996,157.603c0-1.357,0.703-1.813,1.676-1.813h0.406c0.999,0,1.729,0.428,1.729,1.813
				v5.729c0,1.731,0.892,2.802,2.487,2.802c1.271,0,2.296-0.694,2.839-1.708v-6.822c0-1.357,0.702-1.813,1.701-1.813h0.379
				c1.028,0,1.731,0.428,1.731,1.813v11.01c0,0.13-0.647,0.424-1.436,0.424c-0.943,0-1.998-0.396-2.297-2.052
				c-0.918,1.334-2.267,2.294-4.325,2.294c-3.459,0-4.891-2.401-4.891-5.382V157.603z"/>
			<path id="Fill-11" fill="#FFFFFF" d="M223.103,156.379c0-0.107,0.656-0.431,1.392-0.431c0.974,0,2.023,0.458,2.259,2.228
				c0.528-1.503,1.578-2.388,3.128-2.388c1.5,0,2.393,0.857,2.393,2.2c0,1.502-1.127,2.036-1.182,1.982
				c-0.395-0.373-0.974-0.64-1.682-0.64c-1.814,0-2.603,1.607-2.603,4.236v3.917c0,1.366-0.684,1.793-1.632,1.793h-0.391
				c-0.999,0-1.683-0.399-1.683-1.793V156.379z"/>
			<path id="Fill-13" fill="#FFFFFF" d="M241.662,161.16h0.424c0-1.666-0.927-2.564-2.645-2.564c-1.801,0-2.729,0.978-3.204,1.983
				c0,0.052-2.405,0.129-2.405-1.587c0-1.615,1.903-3.203,5.846-3.203c4.076,0,6.084,1.856,6.084,5.316v7.644
				c0,0.185-0.688,0.421-1.399,0.421c-1.192,0-1.986-0.633-2.199-2.035c-0.926,1.347-2.565,2.142-4.471,2.142
				c-2.698,0-4.34-1.533-4.34-3.729C233.353,162.586,236.002,161.239,241.662,161.16 M238.937,166.844
				c1.853,0,3.149-1.217,3.149-2.907v-0.741l-0.686,0.028c-2.938,0.077-4.476,0.659-4.476,2.062
				C236.925,166.236,237.692,166.844,238.937,166.844"/>
			<path id="Fill-15" fill="#FFFFFF" d="M247.919,156.379c0-0.107,0.674-0.431,1.43-0.431c0.971,0,2.027,0.458,2.294,2.148
				c0.918-1.342,2.291-2.308,4.341-2.308c3.425,0,4.883,2.416,4.883,5.42v6.276c0,1.366-0.699,1.793-1.675,1.793h-0.403
				c-1.021,0-1.724-0.399-1.724-1.793v-5.714c0-1.745-0.889-2.817-2.428-2.817c-1.352,0-2.372,0.697-2.914,1.718v6.813
				c0,1.366-0.702,1.793-1.676,1.793h-0.398c-1.028,0-1.729-0.399-1.729-1.793V156.379z"/>
			<path id="Fill-17" fill="#FFFFFF" d="M269.883,155.789c3.976,0,5.551,2.242,5.551,3.483c0,1.506-2.004,1.769-2.082,1.639
				c-0.506-1.243-1.467-2.137-3.309-2.137c-2.055,0-3.55,1.558-3.55,3.721c0,2.217,1.495,3.801,3.55,3.801
				c1.786,0,2.803-0.897,3.309-2.137c0.056-0.161,2.082,0.079,2.082,1.664c0,1.211-1.654,3.456-5.551,3.456
				c-4.027,0-6.857-2.797-6.857-6.783C263.025,158.586,265.909,155.789,269.883,155.789"/>
			<path id="Fill-19" fill="#FFFFFF" d="M283.416,155.789c3.899,0,6.584,2.661,6.584,6.428v0.266
				c-0.027,0.657-0.218,1.025-0.922,1.025h-9.131c0.273,1.925,1.79,3.056,3.85,3.056c2.001,0,3.112-0.868,3.736-1.899
				c0.028-0.049,1.843,0.189,1.843,1.661c0,1.397-2.032,2.952-5.715,2.952c-4.308,0-7.149-2.608-7.149-6.667
				C276.512,158.689,279.41,155.789,283.416,155.789L283.416,155.789z M286.45,161.348c-0.081-1.789-1.248-2.976-3.086-2.976
				c-1.791,0-3.144,1.237-3.417,2.976H286.45z"/>
			<path id="Fill-21" fill="#FFFFFF" d="M119.518,132.785c0-1.359,0.701-1.812,1.676-1.812h0.405c1.002,0,1.731,0.427,1.731,1.812
				v5.731c0,1.731,0.891,2.798,2.485,2.798c1.271,0,2.3-0.693,2.839-1.707v-6.823c0-1.359,0.705-1.812,1.704-1.812h0.377
				c1.027,0,1.731,0.427,1.731,1.812v11.008c0,0.133-0.65,0.427-1.434,0.427c-0.945,0-2-0.399-2.298-2.053
				c-0.92,1.334-2.27,2.292-4.324,2.292c-3.46,0-4.894-2.399-4.894-5.383V132.785z"/>
			<path id="Fill-23" fill="#FFFFFF" d="M136.265,134.097h-0.633c-1.049,0-1.547-0.451-1.547-1.299v-0.238
				c0-0.902,0.498-1.378,1.547-1.378h0.633v-1.644c0-1.22,0.629-1.802,1.678-1.802h0.314c0.998,0,1.654,0.424,1.654,1.802v1.644
				h2.231c1.049,0,1.495,0.451,1.495,1.324v0.212c0,0.902-0.47,1.379-1.521,1.379h-2.284v5.514c0,1.271,0.419,1.91,1.417,1.91
				c0.762,0,1.262-0.372,1.654-0.875c0.051-0.08,0.893,0.424,0.893,1.458c0,1.297-1.285,2.357-3.387,2.357
				c-2.834,0-4.146-1.51-4.146-4.426V134.097z"/>
			<path id="Fill-25" fill="#FFFFFF" d="M145.953,126.01c0-0.135,0.675-0.432,1.428-0.432c1.135,0,2.377,0.595,2.377,3.053v4.645
				c0.835-1.377,2.184-2.403,4.261-2.403c3.427,0,4.883,2.484,4.883,5.564v6.212c0,1.378-0.703,1.81-1.674,1.81h-0.404
				c-1.022,0-1.725-0.404-1.725-1.81v-5.672c0-1.836-0.919-2.918-2.4-2.918c-1.809,0-2.94,1.189-2.94,3.079v5.512
				c0,1.378-0.702,1.81-1.672,1.81h-0.405c-1.025,0-1.728-0.404-1.728-1.81V126.01z"/>
			<path id="Fill-27" fill="#FFFFFF" d="M167.427,130.973c3.9,0,6.581,2.66,6.581,6.427v0.265c-0.027,0.658-0.218,1.026-0.922,1.026
				h-9.126c0.272,1.924,1.786,3.056,3.847,3.056c2.005,0,3.115-0.868,3.734-1.896c0.029-0.053,1.844,0.185,1.844,1.659
				c0,1.397-2.03,2.951-5.715,2.951c-4.305,0-7.15-2.607-7.15-6.666C160.52,133.87,163.418,130.973,167.427,130.973L167.427,130.973
				z M170.462,136.532c-0.085-1.792-1.248-2.978-3.09-2.978c-1.786,0-3.14,1.237-3.412,2.978H170.462z"/>
			<path id="Fill-29" fill="#FFFFFF" d="M176.164,131.562c0-0.107,0.66-0.429,1.395-0.429c0.971,0,2.023,0.456,2.26,2.226
				c0.527-1.503,1.577-2.387,3.127-2.387c1.499,0,2.392,0.856,2.392,2.199c0,1.501-1.13,2.037-1.181,1.984
				c-0.396-0.375-0.975-0.644-1.682-0.644c-1.813,0-2.603,1.609-2.603,4.236v3.915c0,1.368-0.684,1.798-1.63,1.798h-0.393
				c-1.002,0-1.686-0.403-1.686-1.798V131.562z"/>
			<path id="Fill-31" fill="#FFFFFF" d="M186.955,131.562c0-0.107,0.675-0.429,1.43-0.429c0.972,0,2.023,0.456,2.294,2.145
				c0.916-1.342,2.292-2.306,4.342-2.306c3.427,0,4.883,2.413,4.883,5.416v6.273c0,1.368-0.702,1.798-1.673,1.798h-0.402
				c-1.025,0-1.73-0.403-1.73-1.798v-5.711c0-1.743-0.889-2.814-2.425-2.814c-1.35,0-2.375,0.697-2.913,1.716v6.809
				c0,1.368-0.701,1.798-1.672,1.798h-0.405c-1.025,0-1.728-0.403-1.728-1.798V131.562z"/>
			<path id="Fill-33" fill="#FFFFFF" d="M215.774,126.657c4.56,0,6.604,2.486,6.604,3.862c0,1.693-2.201,2.116-2.254,1.984
				c-0.849-1.482-2.467-2.329-4.19-2.329c-2.889,0-4.985,2.171-4.985,5.372c0,3.174,2.121,5.397,5.013,5.397
				c1.987,0,3.606-0.979,4.268-2.593c0.055-0.131,2.334,0.292,2.334,1.985c0,1.454-2.12,4.125-6.842,4.125
				c-5.199,0-8.804-3.649-8.804-8.887C206.917,130.361,210.521,126.657,215.774,126.657"/>
			<path id="Fill-35" fill="#FFFFFF" d="M224.722,131.562c0-0.107,0.656-0.429,1.391-0.429c0.975,0,2.026,0.456,2.263,2.226
				c0.524-1.503,1.574-2.387,3.127-2.387c1.495,0,2.39,0.856,2.39,2.199c0,1.501-1.13,2.037-1.182,1.984
				c-0.396-0.375-0.975-0.644-1.683-0.644c-1.812,0-2.602,1.609-2.602,4.236v3.915c0,1.368-0.682,1.798-1.627,1.798h-0.396
				c-0.999,0-1.682-0.403-1.682-1.798V131.562z"/>
			<path id="Fill-37" fill="#FFFFFF" d="M242.012,130.973c4.138,0,6.986,2.766,6.986,6.77s-2.849,6.718-7.037,6.718
				c-4.168,0-6.99-2.714-6.99-6.769C234.971,133.738,237.847,130.973,242.012,130.973 M241.984,141.536
				c2.097,0,3.655-1.607,3.655-3.794c0-2.24-1.532-3.872-3.655-3.872c-2.124,0-3.682,1.607-3.682,3.821
				C238.303,139.929,239.86,141.536,241.984,141.536"/>
			<path id="Fill-39" fill="#FFFFFF" d="M251.218,140.116c0.901,0.953,2.364,1.723,4.271,1.723c1.461,0,2.283-0.426,2.283-1.247
				c0-0.979-1.035-1.139-2.786-1.51c-1.78-0.397-4.565-0.98-4.565-3.922c0-2.518,2.124-4.188,5.414-4.188
				c3.504,0,5.255,1.273,5.255,2.757c0,0.979-1.141,1.669-1.222,1.59c-0.875-1.008-2.282-1.723-3.795-1.723
				c-1.405,0-2.201,0.45-2.201,1.272c0,0.927,1.034,1.06,2.76,1.457c1.829,0.397,4.775,1.005,4.775,3.948
				c0,2.598-2.146,4.186-5.705,4.186c-3.796,0-5.624-1.324-5.624-2.808C250.077,140.698,251.139,140.037,251.218,140.116"/>
			<path id="Fill-41" fill="#FFFFFF" d="M264.166,140.116c0.901,0.953,2.363,1.723,4.272,1.723c1.459,0,2.28-0.426,2.28-1.247
				c0-0.979-1.035-1.139-2.785-1.51c-1.778-0.397-4.566-0.98-4.566-3.922c0-2.518,2.125-4.188,5.414-4.188
				c3.504,0,5.255,1.273,5.255,2.757c0,0.979-1.14,1.669-1.221,1.59c-0.876-1.008-2.28-1.723-3.794-1.723
				c-1.406,0-2.203,0.45-2.203,1.272c0,0.927,1.037,1.06,2.762,1.457c1.83,0.397,4.774,1.005,4.774,3.948
				c0,2.598-2.147,4.186-5.705,4.186c-3.796,0-5.624-1.324-5.624-2.808C263.025,140.698,264.087,140.037,264.166,140.116"/>
			<path id="Fill-43" fill="#FFFFFF" d="M90.234,139.063c1.021,1.244,2.96,2.354,5.052,2.354c2.019,0,3.094-0.768,3.094-2.091
				c0-1.533-1.704-1.772-3.692-2.221c-2.726-0.608-5.501-1.666-5.501-5.158c0-3.174,2.539-5.291,6.626-5.291
				c4.086,0,6.076,1.667,6.076,3.123c0,1.215-1.468,2.115-1.545,2.036c-0.997-1.191-2.698-2.117-4.506-2.117
				c-1.859,0-2.933,0.795-2.933,2.037c0,1.482,1.519,1.615,3.614,2.089c3.063,0.689,5.734,1.984,5.734,5.211
				c0,3.413-2.462,5.423-6.94,5.423c-4.503,0-6.546-1.879-6.546-3.439C88.768,139.937,90.104,138.958,90.234,139.063"/>
			<path id="Fill-45" fill="#FFFFFF" d="M110.913,130.973c4.141,0,6.986,2.766,6.986,6.77s-2.846,6.718-7.041,6.718
				c-4.163,0-6.986-2.714-6.986-6.769C103.872,133.738,106.748,130.973,110.913,130.973 M110.886,141.536
				c2.099,0,3.655-1.607,3.655-3.794c0-2.24-1.531-3.872-3.655-3.872c-2.121,0-3.68,1.607-3.68,3.821
				C107.206,139.929,108.765,141.536,110.886,141.536"/>
			<path id="Fill-47" fill="#FFFFFF" d="M88.768,153.779c0-1.187,0.576-1.766,1.624-1.766h0.577c1.103,0,1.678,0.579,1.678,1.766
				v5.193h7.347v-5.193c0-1.187,0.575-1.766,1.623-1.766h0.55c1.13,0,1.706,0.579,1.706,1.766v13.732
				c0,1.159-0.576,1.767-1.706,1.767h-0.55c-1.048,0-1.623-0.608-1.623-1.767v-5.246h-7.347v5.246c0,1.159-0.575,1.767-1.678,1.767
				h-0.577c-1.048,0-1.624-0.608-1.624-1.767V153.779z"/>
			<path id="Fill-49" fill="#FFFFFF" d="M112.935,155.789c3.901,0,6.583,2.662,6.583,6.427v0.267
				c-0.027,0.657-0.217,1.025-0.921,1.025h-9.13c0.273,1.921,1.791,3.057,3.847,3.057c2.005,0,3.114-0.869,3.738-1.899
				c0.027-0.05,1.844,0.189,1.844,1.66c0,1.398-2.032,2.952-5.714,2.952c-4.312,0-7.15-2.607-7.15-6.667
				C106.031,158.687,108.929,155.789,112.935,155.789L112.935,155.789z M115.97,161.348c-0.081-1.789-1.248-2.975-3.088-2.975
				c-1.788,0-3.142,1.237-3.415,2.975H115.97z"/>
			<path id="Fill-51" fill="#FFFFFF" d="M129.445,161.159h0.425c0-1.667-0.926-2.568-2.644-2.568c-1.803,0-2.729,0.979-3.204,1.985
				c0,0.051-2.405,0.134-2.405-1.588c0-1.614,1.901-3.199,5.844-3.199c4.076,0,6.084,1.852,6.084,5.318v7.643
				c0,0.185-0.686,0.424-1.399,0.424c-1.19,0-1.984-0.636-2.196-2.039c-0.928,1.348-2.567,2.143-4.473,2.143
				c-2.697,0-4.339-1.534-4.339-3.731C121.138,162.584,123.786,161.235,129.445,161.159 M126.722,166.843
				c1.851,0,3.148-1.212,3.148-2.906v-0.742l-0.688,0.027c-2.937,0.078-4.472,0.659-4.472,2.062
				C124.711,166.234,125.477,166.843,126.722,166.843"/>
			<path id="Fill-53" fill="#FFFFFF" d="M135.704,150.828c0-0.137,0.666-0.434,1.421-0.434c1.125,0,2.355,0.595,2.355,3.054v14.018
				c0,1.376-0.697,1.811-1.661,1.811h-0.401c-0.99,0-1.714-0.407-1.714-1.811V150.828z"/>
			<path id="Fill-55" fill="#FFFFFF" d="M143.816,158.913h-0.626c-1.053,0-1.553-0.449-1.553-1.299v-0.237
				c0-0.902,0.5-1.378,1.553-1.378h0.626v-1.646c0-1.217,0.633-1.8,1.681-1.8h0.315c0.996,0,1.653,0.422,1.653,1.8v1.646h2.229
				c1.049,0,1.498,0.449,1.498,1.323v0.214c0,0.9-0.477,1.376-1.525,1.376h-2.284v5.514c0,1.27,0.423,1.908,1.419,1.908
				c0.76,0,1.261-0.374,1.653-0.873c0.051-0.083,0.893,0.421,0.893,1.456c0,1.301-1.285,2.36-3.382,2.36
				c-2.835,0-4.15-1.513-4.15-4.427V158.913z"/>
			<path id="Fill-57" fill="#FFFFFF" d="M152.967,150.828c0-0.137,0.675-0.434,1.431-0.434c1.132,0,2.374,0.595,2.374,3.054v4.646
				c0.834-1.379,2.184-2.403,4.263-2.403c3.422,0,4.881,2.484,4.881,5.561v6.213c0,1.376-0.699,1.811-1.675,1.811h-0.404
				c-1.021,0-1.723-0.407-1.723-1.811v-5.67c0-1.839-0.92-2.918-2.405-2.918c-1.805,0-2.937,1.188-2.937,3.078v5.51
				c0,1.376-0.702,1.811-1.676,1.811h-0.4c-1.026,0-1.729-0.407-1.729-1.811V150.828z"/>
		</g>
	</g>
</g>
<g id="Page-1_1_">
	<g id="Artboard_1_" transform="translate(-73.000000, -137.000000)">
		<g id="Group-59_1_" transform="translate(73.000000, 137.000000)">
			<path id="Fill-1_1_" fill="#FFFFFF" d="M96.732,451.039L96.732,451.039c-2.423,0.01-4.383,1.971-4.393,4.395
				c0,0.01-0.004,0.014-0.013,0.014c-0.007,0-0.014-0.004-0.014-0.014c-0.009-2.426-1.972-4.389-4.4-4.395
				c-0.008,0-0.016-0.007-0.016-0.014c0-0.009,0.008-0.016,0.016-0.016c2.428-0.005,4.391-1.97,4.4-4.396
				c0-0.007,0.007-0.014,0.014-0.014c0.009,0,0.013,0.006,0.013,0.014v0.001c0.01,2.422,1.97,4.385,4.393,4.395
				c0.009,0,0.015,0.006,0.015,0.016C96.747,451.031,96.741,451.039,96.732,451.039L96.732,451.039z M83.595,451.039L83.595,451.039
				c-2.424,0.01-4.383,1.971-4.392,4.395c0,0.01-0.006,0.014-0.015,0.014c-0.007,0-0.015-0.004-0.015-0.014
				c-0.009-2.426-1.973-4.389-4.4-4.395c-0.006,0-0.014-0.007-0.014-0.014c0-0.009,0.008-0.016,0.014-0.016
				c2.427-0.005,4.391-1.97,4.4-4.396c0-0.007,0.007-0.014,0.015-0.014c0.009,0,0.013,0.006,0.015,0.014v0.001
				c0.009,2.422,1.968,4.385,4.392,4.395c0.007,0,0.014,0.006,0.014,0.016C83.608,451.031,83.602,451.039,83.595,451.039
				L83.595,451.039z M85.798,440.073c0.239,2.202,2.097,3.919,4.363,3.93h0.003c0.006,0,0.013,0.005,0.013,0.014
				c0,0.008-0.007,0.014-0.013,0.014h-0.003c-2.422,0.01-4.382,1.974-4.391,4.396c0,0.008-0.004,0.015-0.013,0.015
				c-0.007,0-0.016-0.007-0.016-0.015c-0.007-2.425-1.97-4.39-4.398-4.394v-0.001c-0.007,0-0.014-0.006-0.014-0.014
				c0-0.009,0.006-0.016,0.014-0.016c2.341-0.003,4.25-1.833,4.391-4.139v-14.037H67.212v14.248H52.967v18.521h14.245v14.247h18.522
				v-6.095c-0.017-4.465-3.633-8.083-8.103-8.093v-0.001c-0.016,0-0.026-0.012-0.026-0.027c0-0.016,0.01-0.027,0.026-0.027
				c4.469-0.011,8.086-3.628,8.103-8.094c0.001-0.016,0.012-0.026,0.026-0.026s0.026,0.01,0.026,0.026v0.001
				c0.017,4.42,3.561,8.006,7.965,8.089h6.23v-18.521H85.798z"/>
			<path id="Fill-3_1_" fill="#FFFFFF" d="M170.115,453.676c0-0.847,0.401-1.261,1.148-1.261h0.365c0.782,0,1.185,0.414,1.185,1.261
				v9.81c0,0.828-0.402,1.261-1.185,1.261h-0.365c-0.747,0-1.148-0.434-1.148-1.261V453.676z"/>
			<path id="Fill-5_1_" fill="#FFFFFF" d="M174.354,455.534c0-0.077,0.48-0.308,1.021-0.308c0.693,0,1.446,0.327,1.639,1.535
				c0.651-0.959,1.637-1.649,3.103-1.649c2.444,0,3.486,1.725,3.486,3.872v4.482c0,0.976-0.5,1.281-1.196,1.281h-0.289
				c-0.729,0-1.23-0.285-1.23-1.281v-4.082c0-1.247-0.636-2.012-1.734-2.012c-0.965,0-1.696,0.498-2.081,1.226v4.868
				c0,0.976-0.502,1.281-1.197,1.281h-0.286c-0.732,0-1.233-0.285-1.233-1.281V455.534z"/>
			<path id="Fill-7_1_" fill="#FFFFFF" d="M185.958,461.642c0.645,0.68,1.686,1.229,3.053,1.229c1.042,0,1.626-0.3,1.626-0.889
				c0-0.699-0.736-0.812-1.989-1.079c-1.268-0.285-3.26-0.701-3.26-2.801c0-1.798,1.519-2.99,3.867-2.99
				c2.505,0,3.755,0.909,3.755,1.968c0,0.702-0.815,1.193-0.874,1.137c-0.625-0.72-1.63-1.231-2.71-1.231
				c-1.004,0-1.573,0.323-1.573,0.908c0,0.664,0.74,0.757,1.971,1.04c1.311,0.284,3.413,0.719,3.413,2.821
				c0,1.855-1.535,2.992-4.074,2.992c-2.713,0-4.018-0.948-4.018-2.008C185.145,462.059,185.9,461.586,185.958,461.642"/>
			<path id="Fill-9_1_" fill="#FFFFFF" d="M194.393,456.408c0-0.97,0.502-1.295,1.197-1.295h0.29c0.714,0,1.234,0.306,1.234,1.295
				v4.092c0,1.236,0.637,2.001,1.776,2.001c0.908,0,1.641-0.496,2.028-1.22v-4.873c0-0.97,0.501-1.295,1.215-1.295h0.271
				c0.734,0,1.237,0.306,1.237,1.295v7.864c0,0.093-0.463,0.303-1.025,0.303c-0.674,0-1.428-0.283-1.641-1.466
				c-0.656,0.953-1.619,1.638-3.09,1.638c-2.471,0-3.493-1.715-3.493-3.844V456.408z"/>
			<path id="Fill-11_1_" fill="#FFFFFF" d="M205.183,455.534c0-0.077,0.469-0.308,0.994-0.308c0.695,0,1.445,0.327,1.613,1.591
				c0.378-1.074,1.128-1.706,2.234-1.706c1.071,0,1.709,0.612,1.709,1.572c0,1.073-0.805,1.454-0.844,1.416
				c-0.282-0.266-0.695-0.458-1.201-0.458c-1.296,0-1.859,1.148-1.859,3.026v2.798c0,0.976-0.488,1.281-1.165,1.281h-0.279
				c-0.714,0-1.202-0.285-1.202-1.281V455.534z"/>
			<path id="Fill-13_1_" fill="#FFFFFF" d="M218.439,458.949h0.303c0-1.19-0.662-1.832-1.889-1.832
				c-1.286,0-1.949,0.699-2.289,1.417c0,0.037-1.718,0.093-1.718-1.133c0-1.153,1.359-2.288,4.176-2.288
				c2.911,0,4.346,1.326,4.346,3.797v5.46c0,0.132-0.491,0.301-1,0.301c-0.852,0-1.419-0.453-1.57-1.454
				c-0.661,0.962-1.833,1.53-3.193,1.53c-1.928,0-3.101-1.095-3.101-2.664C212.504,459.968,214.396,459.005,218.439,458.949
				 M216.493,463.009c1.323,0,2.249-0.869,2.249-2.076v-0.529l-0.489,0.02c-2.099,0.055-3.197,0.47-3.197,1.472
				C215.056,462.575,215.604,463.009,216.493,463.009"/>
			<path id="Fill-15_1_" fill="#FFFFFF" d="M222.909,455.534c0-0.077,0.481-0.308,1.021-0.308c0.693,0,1.448,0.327,1.639,1.535
				c0.656-0.959,1.637-1.649,3.101-1.649c2.446,0,3.488,1.726,3.488,3.872v4.482c0,0.976-0.5,1.281-1.196,1.281h-0.288
				c-0.729,0-1.231-0.285-1.231-1.281v-4.082c0-1.247-0.635-2.012-1.734-2.012c-0.965,0-1.694,0.498-2.081,1.228v4.866
				c0,0.976-0.502,1.281-1.197,1.281h-0.284c-0.734,0-1.235-0.285-1.235-1.281V455.534z"/>
			<path id="Fill-17_1_" fill="#FFFFFF" d="M238.598,455.112c2.84,0,3.965,1.602,3.965,2.488c0,1.076-1.432,1.263-1.487,1.171
				c-0.361-0.888-1.048-1.527-2.363-1.527c-1.468,0-2.536,1.113-2.536,2.658c0,1.583,1.068,2.715,2.536,2.715
				c1.275,0,2.002-0.641,2.363-1.526c0.04-0.115,1.487,0.056,1.487,1.188c0,0.865-1.182,2.468-3.965,2.468
				c-2.877,0-4.898-1.998-4.898-4.845C233.699,457.11,235.759,455.112,238.598,455.112"/>
			<path id="Fill-19_1_" fill="#FFFFFF" d="M248.264,455.112c2.785,0,4.703,1.901,4.703,4.591v0.19
				c-0.02,0.469-0.155,0.732-0.658,0.732h-6.522c0.195,1.375,1.278,2.183,2.75,2.183c1.429,0,2.223-0.62,2.669-1.356
				c0.02-0.035,1.316,0.135,1.316,1.187c0,0.998-1.452,2.108-4.082,2.108c-3.077,0-5.107-1.863-5.107-4.762
				C243.332,457.184,245.402,455.112,248.264,455.112L248.264,455.112z M250.432,459.083c-0.059-1.277-0.892-2.125-2.205-2.125
				c-1.279,0-2.245,0.884-2.44,2.125H250.432z"/>
			<path id="Fill-21_1_" fill="#FFFFFF" d="M131.194,438.681c0-0.971,0.5-1.295,1.197-1.295h0.29c0.716,0,1.237,0.305,1.237,1.295
				v4.094c0,1.237,0.636,1.999,1.775,1.999c0.908,0,1.643-0.495,2.028-1.22v-4.873c0-0.971,0.504-1.295,1.217-1.295h0.27
				c0.733,0,1.236,0.305,1.236,1.295v7.863c0,0.095-0.464,0.305-1.024,0.305c-0.675,0-1.428-0.286-1.641-1.466
				c-0.657,0.953-1.621,1.637-3.089,1.637c-2.471,0-3.495-1.714-3.495-3.845V438.681z"/>
			<path id="Fill-23_1_" fill="#FFFFFF" d="M143.156,439.618h-0.452c-0.749,0-1.104-0.322-1.104-0.928v-0.17
				c0-0.645,0.355-0.984,1.104-0.984h0.452v-1.174c0-0.872,0.449-1.288,1.198-1.288h0.225c0.713,0,1.182,0.303,1.182,1.288v1.174
				h1.594c0.749,0,1.068,0.322,1.068,0.946v0.151c0,0.644-0.335,0.985-1.086,0.985h-1.632v3.938c0,0.908,0.299,1.364,1.012,1.364
				c0.544,0,0.901-0.266,1.182-0.625c0.036-0.057,0.638,0.303,0.638,1.042c0,0.927-0.918,1.684-2.419,1.684
				c-2.024,0-2.961-1.078-2.961-3.162V439.618z"/>
			<path id="Fill-25_1_" fill="#FFFFFF" d="M150.076,433.841c0-0.097,0.482-0.308,1.02-0.308c0.811,0,1.698,0.425,1.698,2.181v3.318
				c0.597-0.984,1.56-1.716,3.043-1.716c2.448,0,3.488,1.774,3.488,3.975v4.438c0,0.984-0.503,1.292-1.196,1.292h-0.288
				c-0.73,0-1.232-0.289-1.232-1.292v-4.052c0-1.312-0.656-2.084-1.714-2.084c-1.292,0-2.101,0.85-2.101,2.199v3.937
				c0,0.984-0.502,1.292-1.194,1.292h-0.289c-0.732,0-1.234-0.289-1.234-1.292V433.841z"/>
			<path id="Fill-27_1_" fill="#FFFFFF" d="M165.414,437.386c2.786,0,4.701,1.9,4.701,4.591v0.189
				c-0.02,0.47-0.155,0.732-0.658,0.732h-6.519c0.194,1.375,1.275,2.183,2.747,2.183c1.433,0,2.226-0.62,2.668-1.354
				c0.021-0.038,1.316,0.132,1.316,1.185c0,0.998-1.45,2.108-4.082,2.108c-3.074,0-5.107-1.862-5.107-4.761
				C160.48,439.456,162.551,437.386,165.414,437.386L165.414,437.386z M167.582,441.357c-0.061-1.28-0.891-2.126-2.207-2.126
				c-1.275,0-2.242,0.884-2.437,2.126H167.582z"/>
			<path id="Fill-29_1_" fill="#FFFFFF" d="M171.655,437.807c0-0.076,0.472-0.306,0.996-0.306c0.693,0,1.445,0.326,1.614,1.59
				c0.377-1.074,1.127-1.705,2.233-1.705c1.071,0,1.708,0.612,1.708,1.571c0,1.072-0.807,1.455-0.843,1.417
				c-0.282-0.268-0.696-0.46-1.201-0.46c-1.296,0-1.859,1.149-1.859,3.025v2.796c0,0.978-0.488,1.284-1.164,1.284h-0.28
				c-0.716,0-1.204-0.288-1.204-1.284V437.807z"/>
			<path id="Fill-31_1_" fill="#FFFFFF" d="M179.363,437.807c0-0.076,0.482-0.306,1.021-0.306c0.693,0,1.445,0.326,1.639,1.532
				c0.654-0.958,1.637-1.647,3.101-1.647c2.448,0,3.488,1.724,3.488,3.869v4.481c0,0.978-0.502,1.284-1.195,1.284h-0.287
				c-0.732,0-1.236-0.288-1.236-1.284v-4.079c0-1.245-0.635-2.01-1.731-2.01c-0.965,0-1.697,0.498-2.081,1.226v4.863
				c0,0.978-0.501,1.284-1.194,1.284h-0.289c-0.732,0-1.234-0.288-1.234-1.284V437.807z"/>
			<path id="Fill-33_1_" fill="#FFFFFF" d="M199.948,434.304c3.257,0,4.717,1.775,4.717,2.759c0,1.209-1.572,1.511-1.609,1.417
				c-0.606-1.059-1.763-1.664-2.993-1.664c-2.063,0-3.562,1.551-3.562,3.837c0,2.267,1.516,3.855,3.581,3.855
				c1.419,0,2.576-0.7,3.048-1.852c0.039-0.094,1.667,0.208,1.667,1.418c0,1.039-1.514,2.946-4.887,2.946
				c-3.714,0-6.288-2.606-6.288-6.348C193.622,436.949,196.196,434.304,199.948,434.304"/>
			<path id="Fill-35_1_" fill="#FFFFFF" d="M206.34,437.807c0-0.076,0.469-0.306,0.993-0.306c0.696,0,1.447,0.326,1.616,1.59
				c0.374-1.074,1.124-1.705,2.233-1.705c1.067,0,1.707,0.612,1.707,1.571c0,1.072-0.808,1.455-0.845,1.417
				c-0.282-0.268-0.695-0.46-1.201-0.46c-1.295,0-1.858,1.149-1.858,3.025v2.796c0,0.978-0.487,1.284-1.162,1.284h-0.282
				c-0.714,0-1.201-0.288-1.201-1.284V437.807z"/>
			<path id="Fill-37_1_" fill="#FFFFFF" d="M218.689,437.386c2.955,0,4.99,1.976,4.99,4.835s-2.035,4.798-5.026,4.798
				c-2.978,0-4.993-1.938-4.993-4.834C213.66,439.362,215.715,437.386,218.689,437.386 M218.67,444.932
				c1.498,0,2.611-1.148,2.611-2.71c0-1.6-1.095-2.766-2.611-2.766c-1.518,0-2.63,1.148-2.63,2.729
				C216.04,443.784,217.152,444.932,218.67,444.932"/>
			<path id="Fill-39_1_" fill="#FFFFFF" d="M225.266,443.917c0.644,0.681,1.688,1.23,3.05,1.23c1.044,0,1.631-0.304,1.631-0.89
				c0-0.699-0.739-0.813-1.99-1.079c-1.271-0.284-3.261-0.7-3.261-2.801c0-1.798,1.518-2.991,3.867-2.991
				c2.503,0,3.754,0.909,3.754,1.969c0,0.7-0.815,1.192-0.873,1.136c-0.625-0.72-1.63-1.231-2.711-1.231
				c-1.004,0-1.572,0.321-1.572,0.909c0,0.662,0.739,0.757,1.972,1.041c1.307,0.283,3.411,0.718,3.411,2.82
				c0,1.855-1.533,2.99-4.075,2.99c-2.712,0-4.018-0.946-4.018-2.006C224.45,444.333,225.209,443.861,225.266,443.917"/>
			<path id="Fill-41_1_" fill="#FFFFFF" d="M234.514,443.917c0.645,0.681,1.688,1.23,3.052,1.23c1.042,0,1.629-0.304,1.629-0.89
				c0-0.699-0.739-0.813-1.989-1.079c-1.271-0.284-3.262-0.7-3.262-2.801c0-1.798,1.518-2.991,3.867-2.991
				c2.503,0,3.754,0.909,3.754,1.969c0,0.7-0.814,1.192-0.872,1.136c-0.626-0.72-1.629-1.231-2.71-1.231
				c-1.005,0-1.574,0.321-1.574,0.909c0,0.662,0.741,0.757,1.973,1.041c1.308,0.283,3.41,0.718,3.41,2.82
				c0,1.855-1.533,2.99-4.074,2.99c-2.712,0-4.018-0.946-4.018-2.006C233.699,444.333,234.457,443.861,234.514,443.917"/>
			<path id="Fill-43_1_" fill="#FFFFFF" d="M110.277,443.166c0.73,0.888,2.114,1.682,3.608,1.682c1.442,0,2.21-0.548,2.21-1.493
				c0-1.095-1.217-1.266-2.637-1.587c-1.947-0.434-3.929-1.19-3.929-3.684c0-2.268,1.813-3.779,4.732-3.779s4.34,1.19,4.34,2.23
				c0,0.868-1.048,1.511-1.104,1.454c-0.712-0.851-1.927-1.512-3.218-1.512c-1.328,0-2.095,0.568-2.095,1.455
				c0,1.059,1.084,1.153,2.582,1.492c2.188,0.493,4.096,1.417,4.096,3.723c0,2.438-1.758,3.874-4.958,3.874
				c-3.216,0-4.675-1.342-4.675-2.457C109.229,443.789,110.184,443.09,110.277,443.166"/>
			<path id="Fill-45_1_" fill="#FFFFFF" d="M125.047,437.386c2.958,0,4.99,1.976,4.99,4.835s-2.032,4.798-5.029,4.798
				c-2.974,0-4.99-1.938-4.99-4.834C120.018,439.362,122.073,437.386,125.047,437.386 M125.028,444.932
				c1.499,0,2.611-1.148,2.611-2.71c0-1.6-1.094-2.766-2.611-2.766c-1.515,0-2.628,1.148-2.628,2.729
				C122.4,443.784,123.513,444.932,125.028,444.932"/>
			<path id="Fill-47_1_" fill="#FFFFFF" d="M109.229,453.676c0-0.847,0.412-1.261,1.16-1.261h0.413c0.788,0,1.198,0.414,1.198,1.261
				v3.709h5.248v-3.709c0-0.847,0.411-1.261,1.159-1.261h0.393c0.807,0,1.218,0.414,1.218,1.261v9.809
				c0,0.828-0.411,1.262-1.218,1.262h-0.393c-0.748,0-1.159-0.435-1.159-1.262v-3.747H112v3.747c0,0.828-0.411,1.262-1.198,1.262
				h-0.413c-0.748,0-1.16-0.435-1.16-1.262V453.676z"/>
			<path id="Fill-49_1_" fill="#FFFFFF" d="M126.492,455.112c2.787,0,4.702,1.901,4.702,4.591v0.19
				c-0.02,0.469-0.155,0.732-0.658,0.732h-6.521c0.195,1.373,1.279,2.184,2.748,2.184c1.432,0,2.225-0.621,2.67-1.356
				c0.02-0.036,1.317,0.135,1.317,1.186c0,0.999-1.452,2.108-4.082,2.108c-3.08,0-5.107-1.862-5.107-4.762
				C121.561,457.182,123.63,455.112,126.492,455.112L126.492,455.112z M128.66,459.083c-0.058-1.277-0.892-2.125-2.206-2.125
				c-1.277,0-2.244,0.883-2.439,2.125H128.66z"/>
			<path id="Fill-51_1_" fill="#FFFFFF" d="M138.285,458.948h0.304c0-1.191-0.661-1.834-1.888-1.834c-1.288,0-1.95,0.7-2.289,1.418
				c0,0.036-1.718,0.096-1.718-1.134c0-1.153,1.358-2.285,4.174-2.285c2.911,0,4.346,1.323,4.346,3.798v5.459
				c0,0.132-0.49,0.303-1,0.303c-0.85,0-1.417-0.455-1.568-1.457c-0.663,0.963-1.834,1.531-3.195,1.531
				c-1.927,0-3.099-1.095-3.099-2.665C132.351,459.966,134.243,459.002,138.285,458.948 M136.339,463.008
				c1.322,0,2.249-0.866,2.249-2.076v-0.53l-0.491,0.02c-2.098,0.056-3.194,0.471-3.194,1.473
				C134.903,462.573,135.45,463.008,136.339,463.008"/>
			<path id="Fill-53_1_" fill="#FFFFFF" d="M142.755,451.569c0-0.098,0.476-0.31,1.015-0.31c0.803,0,1.682,0.425,1.682,2.182v10.013
				c0,0.983-0.498,1.293-1.187,1.293h-0.287c-0.707,0-1.224-0.291-1.224-1.293V451.569z"/>
			<path id="Fill-55_1_" fill="#FFFFFF" d="M148.55,457.343h-0.447c-0.752,0-1.109-0.32-1.109-0.928v-0.169
				c0-0.644,0.357-0.984,1.109-0.984h0.447v-1.176c0-0.869,0.452-1.285,1.201-1.285h0.225c0.712,0,1.181,0.301,1.181,1.285v1.176
				h1.593c0.749,0,1.07,0.321,1.07,0.945v0.153c0,0.643-0.341,0.983-1.09,0.983h-1.632v3.939c0,0.907,0.303,1.363,1.014,1.363
				c0.543,0,0.9-0.267,1.182-0.624c0.036-0.059,0.637,0.301,0.637,1.04c0,0.929-0.918,1.686-2.415,1.686
				c-2.025,0-2.965-1.081-2.965-3.162V457.343z"/>
			<path id="Fill-57_1_" fill="#FFFFFF" d="M155.086,451.569c0-0.098,0.482-0.31,1.021-0.31c0.809,0,1.696,0.425,1.696,2.182v3.319
				c0.596-0.985,1.56-1.716,3.045-1.716c2.444,0,3.486,1.774,3.486,3.972v4.438c0,0.983-0.5,1.293-1.196,1.293h-0.289
				c-0.729,0-1.23-0.291-1.23-1.293v-4.05c0-1.313-0.657-2.084-1.718-2.084c-1.289,0-2.098,0.848-2.098,2.199v3.936
				c0,0.983-0.502,1.293-1.197,1.293h-0.286c-0.732,0-1.234-0.291-1.234-1.293V451.569z"/>
		</g>
	</g>
</g>
<g id="Page-1_2_">
	<g id="Artboard_2_" transform="translate(-73.000000, -137.000000)">
		<g id="Group-59_2_" transform="translate(73.000000, 137.000000)">
			<path id="Fill-1_2_" fill="#FFFFFF" d="M103.704,742.635L103.704,742.635c-2.181,0.009-3.945,1.774-3.954,3.955
				c0,0.008-0.003,0.012-0.011,0.012c-0.007,0-0.013-0.004-0.013-0.012c-0.008-2.183-1.775-3.949-3.96-3.955
				c-0.007,0-0.015-0.007-0.015-0.012c0-0.008,0.007-0.015,0.015-0.015c2.185-0.005,3.952-1.772,3.96-3.956
				c0-0.007,0.006-0.014,0.013-0.014c0.008,0,0.011,0.007,0.011,0.014v0.001c0.009,2.18,1.773,3.946,3.954,3.955
				c0.008,0,0.013,0.007,0.013,0.015C103.717,742.628,103.712,742.635,103.704,742.635L103.704,742.635z M91.881,742.635
				L91.881,742.635c-2.182,0.009-3.945,1.774-3.953,3.955c0,0.008-0.006,0.012-0.013,0.012s-0.014-0.004-0.014-0.012
				c-0.008-2.183-1.775-3.949-3.96-3.955c-0.006,0-0.013-0.007-0.013-0.012c0-0.008,0.007-0.015,0.013-0.015
				c2.185-0.005,3.952-1.772,3.96-3.956c0-0.007,0.006-0.014,0.014-0.014s0.011,0.007,0.013,0.014v0.001
				c0.007,2.18,1.771,3.946,3.953,3.955c0.006,0,0.012,0.007,0.012,0.015C91.893,742.628,91.887,742.635,91.881,742.635
				L91.881,742.635z M93.864,732.766c0.215,1.982,1.888,3.527,3.927,3.537h0.002c0.005,0,0.012,0.004,0.012,0.013
				c0,0.007-0.007,0.012-0.012,0.012h-0.002c-2.181,0.009-3.944,1.775-3.952,3.955c0,0.008-0.004,0.014-0.012,0.014
				c-0.007,0-0.014-0.006-0.014-0.014c-0.006-2.182-1.773-3.949-3.958-3.954v-0.001c-0.007,0-0.013-0.005-0.013-0.012
				c0-0.009,0.005-0.016,0.013-0.016c2.107-0.002,3.825-1.649,3.952-3.723v-12.635h-16.67v12.823H64.315v16.668h12.821v12.821h16.67
				v-5.484c-0.016-4.019-3.271-7.274-7.292-7.283v-0.001c-0.015,0-0.024-0.012-0.024-0.024c0-0.015,0.009-0.025,0.024-0.025
				c4.022-0.01,7.277-3.266,7.292-7.284c0-0.014,0.011-0.024,0.023-0.024c0.013,0,0.023,0.011,0.023,0.024v0.001
				c0.016,3.979,3.205,7.206,7.169,7.28h5.606v-16.668H93.864z"/>
			<path id="Fill-3_2_" fill="#FFFFFF" d="M169.749,745.009c0-0.763,0.361-1.135,1.034-1.135h0.328c0.705,0,1.066,0.372,1.066,1.135
				v8.828c0,0.745-0.361,1.136-1.066,1.136h-0.328c-0.673,0-1.034-0.391-1.034-1.136V745.009z"/>
			<path id="Fill-5_2_" fill="#FFFFFF" d="M173.565,746.681c0-0.068,0.431-0.277,0.918-0.277c0.623,0,1.302,0.295,1.474,1.382
				c0.587-0.864,1.473-1.484,2.793-1.484c2.2,0,3.138,1.553,3.138,3.484v4.034c0,0.879-0.45,1.153-1.076,1.153h-0.261
				c-0.655,0-1.107-0.257-1.107-1.153v-3.673c0-1.122-0.572-1.812-1.562-1.812c-0.868,0-1.526,0.449-1.873,1.103v4.382
				c0,0.879-0.451,1.153-1.077,1.153h-0.257c-0.66,0-1.109-0.257-1.109-1.153V746.681z"/>
			<path id="Fill-7_2_" fill="#FFFFFF" d="M184.007,752.179c0.58,0.61,1.518,1.104,2.748,1.104c0.938,0,1.464-0.27,1.464-0.799
				c0-0.631-0.663-0.731-1.79-0.972c-1.142-0.256-2.935-0.63-2.935-2.521c0-1.618,1.367-2.69,3.48-2.69
				c2.255,0,3.379,0.818,3.379,1.772c0,0.63-0.733,1.073-0.786,1.022c-0.563-0.648-1.467-1.109-2.438-1.109
				c-0.903,0-1.416,0.292-1.416,0.818c0,0.598,0.666,0.682,1.773,0.937c1.179,0.256,3.071,0.646,3.071,2.539
				c0,1.669-1.382,2.692-3.667,2.692c-2.441,0-3.615-0.854-3.615-1.808C183.275,752.552,183.956,752.128,184.007,752.179"/>
			<path id="Fill-9_2_" fill="#FFFFFF" d="M191.599,747.467c0-0.872,0.452-1.166,1.077-1.166h0.262c0.642,0,1.111,0.275,1.111,1.166
				v3.683c0,1.113,0.572,1.801,1.598,1.801c0.818,0,1.478-0.445,1.826-1.098v-4.386c0-0.872,0.451-1.166,1.094-1.166h0.242
				c0.662,0,1.114,0.275,1.114,1.166v7.077c0,0.084-0.416,0.273-0.923,0.273c-0.606,0-1.285-0.255-1.477-1.319
				c-0.592,0.857-1.457,1.475-2.78,1.475c-2.225,0-3.145-1.544-3.145-3.46V747.467z"/>
			<path id="Fill-11_2_" fill="#FFFFFF" d="M201.309,746.681c0-0.068,0.423-0.277,0.896-0.277c0.626,0,1.302,0.295,1.452,1.433
				c0.341-0.966,1.015-1.535,2.012-1.535c0.964,0,1.538,0.552,1.538,1.415c0,0.966-0.725,1.309-0.76,1.274
				c-0.255-0.239-0.626-0.412-1.082-0.412c-1.165,0-1.673,1.033-1.673,2.724v2.518c0,0.879-0.44,1.153-1.048,1.153h-0.253
				c-0.642,0-1.082-0.257-1.082-1.153V746.681z"/>
			<path id="Fill-13_2_" fill="#FFFFFF" d="M213.24,749.754h0.273c0-1.071-0.597-1.649-1.7-1.649c-1.157,0-1.755,0.629-2.061,1.276
				c0,0.032-1.545,0.083-1.545-1.021c0-1.037,1.223-2.059,3.757-2.059c2.621,0,3.911,1.193,3.911,3.418v4.914
				c0,0.12-0.441,0.271-0.899,0.271c-0.766,0-1.276-0.408-1.413-1.309c-0.595,0.865-1.649,1.377-2.874,1.377
				c-1.734,0-2.79-0.986-2.79-2.398C207.899,750.671,209.603,749.804,213.24,749.754 M211.489,753.407
				c1.191,0,2.024-0.781,2.024-1.869v-0.475l-0.441,0.018c-1.888,0.049-2.877,0.423-2.877,1.324
				C210.195,753.017,210.689,753.407,211.489,753.407"/>
			<path id="Fill-15_2_" fill="#FFFFFF" d="M217.264,746.681c0-0.068,0.434-0.277,0.918-0.277c0.625,0,1.304,0.295,1.476,1.382
				c0.591-0.863,1.473-1.484,2.79-1.484c2.201,0,3.14,1.553,3.14,3.484v4.034c0,0.879-0.45,1.153-1.077,1.153h-0.259
				c-0.657,0-1.108-0.257-1.108-1.153v-3.673c0-1.122-0.571-1.812-1.561-1.812c-0.868,0-1.525,0.449-1.874,1.104v4.38
				c0,0.879-0.452,1.153-1.076,1.153h-0.257c-0.66,0-1.111-0.257-1.111-1.153V746.681z"/>
			<path id="Fill-17_2_" fill="#FFFFFF" d="M231.383,746.301c2.556,0,3.569,1.441,3.569,2.239c0,0.969-1.289,1.137-1.34,1.054
				c-0.325-0.798-0.942-1.373-2.127-1.373c-1.321,0-2.281,1-2.281,2.392c0,1.425,0.96,2.443,2.281,2.443
				c1.148,0,1.802-0.577,2.127-1.374c0.036-0.103,1.34,0.05,1.34,1.068c0,0.78-1.063,2.223-3.569,2.223
				c-2.589,0-4.408-1.799-4.408-4.36C226.975,748.1,228.828,746.301,231.383,746.301"/>
			<path id="Fill-19_2_" fill="#FFFFFF" d="M240.082,746.301c2.507,0,4.233,1.711,4.233,4.132v0.171
				c-0.018,0.423-0.14,0.66-0.592,0.66h-5.871c0.176,1.238,1.151,1.964,2.475,1.964c1.287,0,2.001-0.558,2.403-1.221
				c0.018-0.031,1.185,0.121,1.185,1.067c0,0.898-1.308,1.898-3.674,1.898c-2.771,0-4.597-1.678-4.597-4.287
				C235.645,748.165,237.507,746.301,240.082,746.301L240.082,746.301z M242.033,749.875c-0.052-1.15-0.802-1.913-1.983-1.913
				c-1.152,0-2.021,0.796-2.197,1.913H242.033z"/>
			<path id="Fill-21_2_" fill="#FFFFFF" d="M134.72,731.513c0-0.875,0.45-1.165,1.077-1.165h0.26c0.645,0,1.114,0.274,1.114,1.165
				v3.685c0,1.112,0.572,1.8,1.597,1.8c0.817,0,1.479-0.446,1.825-1.099v-4.386c0-0.875,0.454-1.165,1.095-1.165h0.243
				c0.661,0,1.113,0.274,1.113,1.165v7.077c0,0.085-0.418,0.273-0.922,0.273c-0.607,0-1.285-0.256-1.477-1.318
				c-0.591,0.857-1.459,1.474-2.779,1.474c-2.224,0-3.146-1.544-3.146-3.461V731.513z"/>
			<path id="Fill-23_2_" fill="#FFFFFF" d="M145.486,732.356h-0.407c-0.674,0-0.994-0.289-0.994-0.834v-0.154
				c0-0.581,0.32-0.887,0.994-0.887h0.407v-1.056c0-0.785,0.404-1.159,1.078-1.159h0.202c0.642,0,1.063,0.272,1.063,1.159v1.056
				h1.435c0.674,0,0.961,0.29,0.961,0.851v0.138c0,0.579-0.302,0.887-0.978,0.887h-1.468v3.544c0,0.818,0.269,1.228,0.911,1.228
				c0.49,0,0.811-0.239,1.063-0.563c0.032-0.051,0.573,0.272,0.573,0.938c0,0.833-0.826,1.516-2.177,1.516
				c-1.822,0-2.665-0.971-2.665-2.847V732.356z"/>
			<path id="Fill-25_2_" fill="#FFFFFF" d="M151.714,727.157c0-0.087,0.435-0.278,0.917-0.278c0.73,0,1.528,0.383,1.528,1.963v2.987
				c0.537-0.887,1.404-1.546,2.739-1.546c2.203,0,3.141,1.598,3.141,3.578v3.993c0,0.887-0.453,1.164-1.078,1.164h-0.259
				c-0.658,0-1.109-0.26-1.109-1.164v-3.646c0-1.18-0.591-1.876-1.542-1.876c-1.163,0-1.892,0.765-1.892,1.979v3.544
				c0,0.887-0.451,1.164-1.074,1.164h-0.26c-0.659,0-1.111-0.26-1.111-1.164V727.157z"/>
			<path id="Fill-27_2_" fill="#FFFFFF" d="M165.519,730.348c2.507,0,4.23,1.711,4.23,4.131v0.171
				c-0.018,0.424-0.14,0.66-0.593,0.66h-5.866c0.175,1.236,1.148,1.964,2.472,1.964c1.29,0,2.004-0.558,2.402-1.219
				c0.019-0.034,1.185,0.119,1.185,1.066c0,0.897-1.306,1.897-3.674,1.897c-2.767,0-4.598-1.676-4.598-4.285
				C161.077,732.21,162.94,730.348,165.519,730.348L165.519,730.348z M167.47,733.921c-0.055-1.15-0.803-1.914-1.986-1.914
				c-1.148,0-2.019,0.796-2.193,1.914H167.47z"/>
			<path id="Fill-29_2_" fill="#FFFFFF" d="M171.136,730.727c0-0.069,0.424-0.276,0.896-0.276c0.623,0,1.301,0.294,1.452,1.433
				c0.34-0.967,1.015-1.535,2.01-1.535c0.964,0,1.537,0.551,1.537,1.414c0,0.964-0.726,1.309-0.759,1.275
				c-0.254-0.24-0.626-0.414-1.08-0.414c-1.167,0-1.674,1.035-1.674,2.723v2.517c0,0.88-0.439,1.156-1.048,1.156h-0.252
				c-0.644,0-1.083-0.26-1.083-1.156V730.727z"/>
			<path id="Fill-31_2_" fill="#FFFFFF" d="M178.072,730.727c0-0.069,0.435-0.276,0.919-0.276c0.625,0,1.302,0.294,1.476,1.38
				c0.588-0.862,1.473-1.482,2.79-1.482c2.203,0,3.14,1.553,3.14,3.481v4.033c0,0.88-0.451,1.156-1.076,1.156h-0.259
				c-0.659,0-1.111-0.26-1.111-1.156v-3.672c0-1.12-0.572-1.809-1.559-1.809c-0.868,0-1.527,0.447-1.874,1.104v4.377
				c0,0.88-0.449,1.156-1.074,1.156h-0.261c-0.658,0-1.11-0.26-1.11-1.156V730.727z"/>
			<path id="Fill-33_2_" fill="#FFFFFF" d="M196.599,727.573c2.931,0,4.245,1.598,4.245,2.482c0,1.089-1.415,1.36-1.448,1.275
				c-0.546-0.952-1.587-1.497-2.694-1.497c-1.856,0-3.205,1.396-3.205,3.455c0,2.039,1.365,3.468,3.223,3.468
				c1.276,0,2.318-0.629,2.744-1.666c0.035-0.086,1.499,0.188,1.499,1.276c0,0.933-1.361,2.651-4.397,2.651
				c-3.343,0-5.659-2.346-5.659-5.713C190.905,729.954,193.222,727.573,196.599,727.573"/>
			<path id="Fill-35_2_" fill="#FFFFFF" d="M202.351,730.727c0-0.069,0.423-0.276,0.895-0.276c0.626,0,1.303,0.294,1.455,1.433
				c0.336-0.967,1.011-1.535,2.009-1.535c0.962,0,1.537,0.551,1.537,1.414c0,0.964-0.727,1.309-0.761,1.275
				c-0.253-0.24-0.626-0.414-1.081-0.414c-1.165,0-1.673,1.035-1.673,2.723v2.517c0,0.88-0.438,1.156-1.046,1.156h-0.254
				c-0.642,0-1.081-0.26-1.081-1.156V730.727z"/>
			<path id="Fill-37_2_" fill="#FFFFFF" d="M213.467,730.348c2.659,0,4.49,1.777,4.49,4.352s-1.831,4.319-4.524,4.319
				c-2.68,0-4.493-1.745-4.493-4.353C208.939,732.125,210.788,730.348,213.467,730.348 M213.448,737.139
				c1.348,0,2.351-1.033,2.351-2.439c0-1.439-0.986-2.489-2.351-2.489c-1.365,0-2.366,1.034-2.366,2.456
				C211.082,736.105,212.083,737.139,213.448,737.139"/>
			<path id="Fill-39_2_" fill="#FFFFFF" d="M219.384,736.225c0.579,0.613,1.52,1.108,2.746,1.108c0.938,0,1.468-0.274,1.468-0.802
				c0-0.63-0.666-0.732-1.792-0.972c-1.145-0.254-2.935-0.63-2.935-2.521c0-1.618,1.365-2.691,3.48-2.691
				c2.252,0,3.378,0.818,3.378,1.773c0,0.629-0.733,1.071-0.785,1.021c-0.562-0.648-1.467-1.108-2.44-1.108
				c-0.902,0-1.414,0.29-1.414,0.818c0,0.596,0.666,0.682,1.773,0.937c1.178,0.256,3.07,0.646,3.07,2.538
				c0,1.67-1.379,2.691-3.667,2.691c-2.44,0-3.616-0.852-3.616-1.806C218.65,736.6,219.334,736.175,219.384,736.225"/>
			<path id="Fill-41_2_" fill="#FFFFFF" d="M227.708,736.225c0.58,0.613,1.519,1.108,2.746,1.108c0.938,0,1.466-0.274,1.466-0.802
				c0-0.63-0.665-0.732-1.79-0.972c-1.144-0.254-2.936-0.63-2.936-2.521c0-1.618,1.365-2.691,3.48-2.691
				c2.252,0,3.379,0.818,3.379,1.773c0,0.629-0.733,1.071-0.785,1.021c-0.563-0.648-1.467-1.108-2.439-1.108
				c-0.903,0-1.417,0.29-1.417,0.818c0,0.596,0.667,0.682,1.775,0.937c1.177,0.256,3.07,0.646,3.07,2.538
				c0,1.67-1.38,2.691-3.668,2.691c-2.439,0-3.615-0.852-3.615-1.806C226.975,736.6,227.656,736.175,227.708,736.225"/>
			<path id="Fill-43_2_" fill="#FFFFFF" d="M115.895,735.549c0.657,0.799,1.903,1.514,3.248,1.514c1.298,0,1.989-0.494,1.989-1.345
				c0-0.984-1.096-1.139-2.374-1.428c-1.752-0.391-3.536-1.071-3.536-3.315c0-2.041,1.632-3.401,4.259-3.401
				s3.906,1.071,3.906,2.007c0,0.783-0.944,1.36-0.993,1.311c-0.641-0.766-1.735-1.362-2.896-1.362
				c-1.195,0-1.886,0.512-1.886,1.311c0,0.952,0.977,1.037,2.324,1.343c1.969,0.443,3.686,1.275,3.686,3.35
				c0,2.194-1.583,3.487-4.462,3.487c-2.895,0-4.208-1.208-4.208-2.211C114.952,736.111,115.811,735.481,115.895,735.549"/>
			<path id="Fill-45_2_" fill="#FFFFFF" d="M129.188,730.348c2.662,0,4.491,1.777,4.491,4.352s-1.83,4.319-4.526,4.319
				c-2.676,0-4.491-1.745-4.491-4.353C124.662,732.125,126.511,730.348,129.188,730.348 M129.17,737.139
				c1.349,0,2.35-1.033,2.35-2.439c0-1.439-0.985-2.489-2.35-2.489c-1.364,0-2.365,1.034-2.365,2.456
				C126.805,736.105,127.807,737.139,129.17,737.139"/>
			<path id="Fill-47_2_" fill="#FFFFFF" d="M114.952,745.009c0-0.763,0.371-1.135,1.044-1.135h0.371
				c0.709,0,1.078,0.372,1.078,1.135v3.339h4.723v-3.339c0-0.763,0.37-1.135,1.043-1.135h0.354c0.726,0,1.097,0.372,1.097,1.135
				v8.828c0,0.744-0.371,1.136-1.097,1.136h-0.354c-0.674,0-1.043-0.392-1.043-1.136v-3.373h-4.723v3.373
				c0,0.744-0.369,1.136-1.078,1.136h-0.371c-0.673,0-1.044-0.392-1.044-1.136V745.009z"/>
			<path id="Fill-49_2_" fill="#FFFFFF" d="M130.488,746.301c2.508,0,4.232,1.711,4.232,4.132v0.171
				c-0.018,0.423-0.14,0.66-0.592,0.66h-5.869c0.176,1.234,1.151,1.965,2.473,1.965c1.289,0,2.001-0.559,2.403-1.222
				c0.018-0.031,1.186,0.122,1.186,1.067c0,0.899-1.306,1.898-3.673,1.898c-2.772,0-4.597-1.677-4.597-4.287
				C126.05,748.164,127.913,746.301,130.488,746.301L130.488,746.301z M132.439,749.875c-0.053-1.15-0.803-1.913-1.985-1.913
				c-1.15,0-2.02,0.796-2.195,1.913H132.439z"/>
			<path id="Fill-51_2_" fill="#FFFFFF" d="M141.102,749.754h0.273c0-1.072-0.595-1.651-1.7-1.651c-1.159,0-1.755,0.629-2.06,1.275
				c0,0.032-1.546,0.087-1.546-1.021c0-1.038,1.222-2.057,3.757-2.057c2.62,0,3.911,1.19,3.911,3.419v4.913
				c0,0.12-0.44,0.271-0.9,0.271c-0.765,0-1.275-0.408-1.412-1.31c-0.596,0.866-1.65,1.378-2.875,1.378
				c-1.734,0-2.79-0.986-2.79-2.399C135.761,750.668,137.463,749.804,141.102,749.754 M139.351,753.407
				c1.189,0,2.024-0.779,2.024-1.869v-0.476l-0.442,0.018c-1.888,0.05-2.875,0.422-2.875,1.324
				C138.059,753.016,138.551,753.407,139.351,753.407"/>
			<path id="Fill-53_2_" fill="#FFFFFF" d="M145.125,743.111c0-0.088,0.428-0.277,0.914-0.277c0.723,0,1.514,0.382,1.514,1.963
				v9.011c0,0.885-0.448,1.165-1.068,1.165h-0.258c-0.636,0-1.102-0.263-1.102-1.165V743.111z"/>
			<path id="Fill-55_2_" fill="#FFFFFF" d="M150.34,748.309h-0.402c-0.677,0-0.998-0.288-0.998-0.835v-0.152
				c0-0.579,0.321-0.886,0.998-0.886h0.402v-1.059c0-0.781,0.407-1.156,1.081-1.156h0.203c0.64,0,1.062,0.271,1.062,1.156v1.059
				h1.434c0.674,0,0.962,0.289,0.962,0.851v0.139c0,0.578-0.306,0.884-0.979,0.884h-1.47v3.545c0,0.817,0.273,1.227,0.913,1.227
				c0.488,0,0.81-0.24,1.063-0.562c0.032-0.052,0.573,0.271,0.573,0.937c0,0.836-0.827,1.518-2.174,1.518
				c-1.823,0-2.668-0.974-2.668-2.846V748.309z"/>
			<path id="Fill-57_2_" fill="#FFFFFF" d="M156.223,743.111c0-0.088,0.434-0.277,0.92-0.277c0.727,0,1.526,0.382,1.526,1.963v2.987
				c0.535-0.887,1.403-1.545,2.74-1.545c2.2,0,3.138,1.597,3.138,3.575v3.993c0,0.885-0.45,1.165-1.076,1.165h-0.261
				c-0.657,0-1.107-0.263-1.107-1.165v-3.644c0-1.183-0.591-1.877-1.545-1.877c-1.161,0-1.889,0.764-1.889,1.979v3.542
				c0,0.885-0.452,1.165-1.077,1.165h-0.259c-0.659,0-1.11-0.263-1.11-1.165V743.111z"/>
		</g>
	</g>
</g>
<g id="Page-1_3_">
	<g id="Artboard_3_" transform="translate(-73.000000, -137.000000)">
		<g id="Group-59_3_" transform="translate(73.000000, 137.000000)">
			<path id="Fill-1_3_" fill="#FFFFFF" d="M163.788,1043.293L163.788,1043.293c-1.649,0.007-2.983,1.342-2.99,2.991
				c0,0.007-0.002,0.01-0.009,0.01c-0.005,0-0.009-0.003-0.009-0.01c-0.007-1.65-1.343-2.987-2.995-2.991
				c-0.006,0-0.011-0.004-0.011-0.009c0-0.006,0.005-0.011,0.011-0.011c1.652-0.004,2.988-1.341,2.995-2.992
				c0-0.005,0.004-0.01,0.009-0.01c0.007,0,0.009,0.005,0.009,0.01v0.001c0.007,1.648,1.341,2.984,2.99,2.991
				c0.006,0,0.011,0.005,0.011,0.011C163.799,1043.289,163.794,1043.293,163.788,1043.293L163.788,1043.293z M154.847,1043.293
				L154.847,1043.293c-1.65,0.007-2.983,1.342-2.989,2.991c0,0.007-0.004,0.01-0.01,0.01s-0.011-0.003-0.011-0.01
				c-0.006-1.65-1.342-2.987-2.995-2.991c-0.004,0-0.009-0.004-0.009-0.009c0-0.006,0.005-0.011,0.009-0.011
				c1.652-0.004,2.989-1.341,2.995-2.992c0-0.005,0.005-0.01,0.011-0.01s0.008,0.005,0.01,0.01v0.001
				c0.006,1.648,1.339,2.984,2.989,2.991c0.005,0,0.01,0.005,0.01,0.011C154.856,1043.289,154.852,1043.293,154.847,1043.293
				L154.847,1043.293z M156.347,1035.83c0.162,1.499,1.428,2.667,2.97,2.674h0.002c0.004,0,0.009,0.004,0.009,0.011
				c0,0.005-0.005,0.009-0.009,0.009h-0.002c-1.649,0.007-2.982,1.343-2.989,2.991c0,0.006-0.003,0.011-0.009,0.011
				c-0.005,0-0.011-0.005-0.011-0.011c-0.005-1.65-1.341-2.987-2.994-2.99v-0.001c-0.005,0-0.009-0.004-0.009-0.009
				c0-0.007,0.004-0.012,0.009-0.012c1.594-0.002,2.894-1.248,2.989-2.816v-9.555h-12.607v9.698H134v12.605h9.696v9.696h12.607
				v-4.147c-0.012-3.039-2.474-5.502-5.516-5.51l0,0c-0.01,0-0.018-0.008-0.018-0.018c0-0.012,0.008-0.019,0.018-0.019
				c3.042-0.008,5.504-2.47,5.516-5.51c0-0.011,0.008-0.018,0.018-0.018s0.018,0.007,0.018,0.018v0.001
				c0.012,3.008,2.424,5.449,5.422,5.506H166v-12.605H156.347z"/>
		</g>
	</g>
</g>
</svg>
