<?xml version="1.0" encoding="utf-8"?>
<!-- Generator: Adobe Illustrator 15.0.0, SVG Export Plug-In . SVG Version: 6.00 Build 0)  -->
<!DOCTYPE svg PUBLIC "-//W3C//DTD SVG 1.1//EN" "http://www.w3.org/Graphics/SVG/1.1/DTD/svg11.dtd">
<svg version="1.1" id="Layer_1" xmlns="http://www.w3.org/2000/svg" xmlns:xlink="http://www.w3.org/1999/xlink" x="0px" y="0px"
	 width="300px" height="1200px" viewBox="0 0 300 1200" enable-background="new 0 0 300 1200" xml:space="preserve">
<rect x="308" y="900.2" fill="none" stroke="#2C2C2C" stroke-miterlimit="10" width="300" height="300"/>
<rect x="308" y="-0.5" fill="none" stroke="#2C2C2C" stroke-miterlimit="10" width="300" height="300"/>
<rect x="308.3" y="297.7" fill="none" stroke="#2C2C2C" stroke-miterlimit="10" width="300" height="300"/>
<rect x="308" y="599.3" fill="none" stroke="#2C2C2C" stroke-miterlimit="10" width="300" height="300"/>
<g>
	<g>
		<path fill="#3093CC" d="M53.904,121.151c0.395,3.632,3.461,6.462,7.197,6.477h0c0.013,0,0.024,0.01,0.024,0.024
			c0,0.013-0.011,0.023-0.024,0.023c0,0,0,0,0,0l0,0c-3.995,0.016-7.227,3.253-7.242,7.247v0.001c0,0.013-0.01,0.023-0.024,0.023
			c-0.012,0-0.023-0.01-0.023-0.023v-0.001c-0.014-3.998-3.251-7.237-7.253-7.246v-0.001c-0.014,0-0.024-0.01-0.024-0.023
			c0-0.014,0.011-0.025,0.024-0.025l0,0c3.86-0.008,7.008-3.022,7.239-6.824V97.661H23.261v23.49h-23.49v30.537h23.49v23.489h30.537
			v-10.045c0,0,0,0,0-0.001l0,0c-0.025-7.365-5.989-13.33-13.36-13.346v-0.001c-0.024,0-0.044-0.02-0.044-0.045
			c0-0.024,0.021-0.045,0.044-0.045v0c7.37-0.016,13.334-5.98,13.36-13.346l0,0c0.001-0.023,0.021-0.042,0.044-0.042
			s0.043,0.019,0.044,0.042l0,0v0.001v0.001c0.027,7.289,5.869,13.201,13.132,13.339h10.271v-30.537H53.904z M50.271,139.231
			L50.271,139.231L50.271,139.231c-3.997,0.016-7.228,3.252-7.242,7.247v0.001c0,0.013-0.01,0.023-0.024,0.023
			c-0.013,0-0.024-0.011-0.024-0.023v0c-0.014-4-3.252-7.238-7.253-7.247v-0.001c-0.014,0-0.025-0.011-0.025-0.024
			s0.011-0.024,0.025-0.025l0,0c4.001-0.009,7.239-3.248,7.253-7.246l0,0c0-0.013,0.011-0.023,0.024-0.023s0.023,0.01,0.024,0.023
			c0,0,0,0,0,0.001l0,0c0.015,3.994,3.246,7.23,7.241,7.246h0.001c0.012,0,0.023,0.011,0.023,0.024S50.283,139.231,50.271,139.231z
			 M71.933,139.231L71.933,139.231L71.933,139.231c-3.996,0.016-7.228,3.252-7.242,7.247v0.001c0,0.013-0.01,0.023-0.023,0.023
			s-0.024-0.011-0.024-0.023v0c-0.014-4-3.251-7.238-7.254-7.247v-0.001c-0.013,0-0.025-0.011-0.025-0.024s0.012-0.024,0.025-0.025
			l0,0c4.001-0.009,7.24-3.248,7.254-7.246l0,0c0.001-0.013,0.011-0.023,0.024-0.023s0.023,0.01,0.023,0.023c0,0,0,0,0,0.001l0,0
			c0.015,3.994,3.246,7.23,7.242,7.246l0,0c0.014,0,0.024,0.011,0.024,0.024S71.947,139.231,71.933,139.231z"/>
		<g>
			<path fill="#3093CC" d="M88.983,176.542c-1.665,0-3.081-0.237-4.248-0.711c-1.168-0.474-2.076-1.046-2.722-1.716
				c-0.394-0.394-0.676-0.77-0.85-1.128c-0.173-0.359-0.259-0.664-0.259-0.92c0-0.183,0.051-0.346,0.155-0.485
				c0.104-0.138,0.214-0.254,0.33-0.346c0.115-0.093,0.23-0.157,0.346-0.191c0.115-0.035,0.185-0.04,0.208-0.017
				c0.23,0.508,0.543,1,0.936,1.472c0.393,0.475,0.872,0.903,1.44,1.284c0.566,0.383,1.236,0.688,2.011,0.919
				c0.774,0.232,1.647,0.347,2.618,0.347c1.85,0,3.3-0.411,4.353-1.23c1.052-0.821,1.578-1.936,1.578-3.347
				c0-0.808-0.179-1.486-0.538-2.028c-0.359-0.544-0.832-0.994-1.422-1.353c-0.589-0.358-1.271-0.647-2.046-0.868
				c-0.775-0.22-1.59-0.434-2.445-0.642c-0.856-0.207-1.7-0.445-2.531-0.71c-0.833-0.266-1.578-0.625-2.237-1.077
				c-0.659-0.449-1.186-1.022-1.578-1.716c-0.394-0.693-0.59-1.571-0.59-2.635c0-0.879,0.185-1.688,0.555-2.428
				c0.37-0.74,0.884-1.375,1.543-1.908c0.659-0.531,1.428-0.947,2.307-1.248c0.878-0.3,1.838-0.451,2.878-0.451
				c1.525,0,2.814,0.219,3.867,0.658c1.052,0.44,1.866,0.938,2.445,1.492c0.646,0.693,0.971,1.296,0.971,1.804
				c0,0.185-0.052,0.353-0.157,0.503c-0.103,0.15-0.213,0.265-0.329,0.346c-0.116,0.082-0.231,0.146-0.347,0.19
				c-0.116,0.047-0.185,0.059-0.208,0.037c-0.208-0.463-0.491-0.909-0.85-1.336c-0.358-0.428-0.797-0.803-1.317-1.126
				c-0.521-0.324-1.117-0.585-1.787-0.781c-0.67-0.196-1.422-0.294-2.254-0.294c-0.81,0-1.561,0.104-2.254,0.311
				c-0.694,0.208-1.29,0.51-1.787,0.901c-0.498,0.395-0.884,0.868-1.162,1.422c-0.278,0.555-0.416,1.179-0.416,1.874
				c0,0.762,0.155,1.393,0.468,1.89c0.312,0.498,0.74,0.913,1.283,1.248c0.542,0.336,1.184,0.608,1.924,0.815
				c0.74,0.208,1.548,0.417,2.428,0.625c0.901,0.207,1.786,0.457,2.653,0.745c0.867,0.289,1.647,0.67,2.341,1.145
				c0.694,0.474,1.249,1.07,1.665,1.786c0.417,0.717,0.625,1.619,0.625,2.705c0,0.925-0.179,1.768-0.537,2.532
				c-0.359,0.762-0.873,1.411-1.543,1.942c-0.671,0.533-1.469,0.948-2.393,1.249C91.18,176.39,90.139,176.542,88.983,176.542z"/>
			<path fill="#3093CC" d="M107.399,176.542c-1.226,0-2.354-0.219-3.382-0.658c-1.029-0.438-1.913-1.042-2.652-1.804
				c-0.74-0.763-1.318-1.666-1.734-2.706s-0.625-2.174-0.625-3.399s0.208-2.358,0.625-3.398s0.994-1.941,1.734-2.704
				c0.74-0.764,1.624-1.358,2.652-1.786c1.028-0.428,2.156-0.642,3.382-0.642c1.225,0,2.346,0.219,3.364,0.658
				c1.017,0.439,1.896,1.041,2.636,1.803c0.74,0.764,1.317,1.671,1.734,2.722c0.416,1.053,0.624,2.192,0.624,3.417
				c0,1.203-0.208,2.324-0.624,3.364c-0.417,1.042-0.995,1.942-1.734,2.706c-0.74,0.762-1.619,1.358-2.636,1.786
				C109.745,176.328,108.623,176.542,107.399,176.542z M107.399,175.084c0.971,0,1.86-0.179,2.67-0.537
				c0.809-0.358,1.515-0.85,2.116-1.475c0.601-0.623,1.069-1.37,1.404-2.236c0.335-0.867,0.502-1.797,0.502-2.792
				c0-1.017-0.167-1.96-0.502-2.826c-0.335-0.867-0.797-1.618-1.387-2.254c-0.589-0.636-1.295-1.139-2.116-1.509
				c-0.821-0.369-1.716-0.555-2.687-0.555c-0.971,0-1.868,0.181-2.688,0.539c-0.821,0.358-1.532,0.855-2.133,1.49
				c-0.602,0.636-1.07,1.382-1.404,2.237c-0.335,0.855-0.503,1.792-0.503,2.808c0,0.995,0.167,1.925,0.503,2.792
				c0.334,0.866,0.803,1.625,1.404,2.272c0.601,0.647,1.312,1.15,2.133,1.509C105.531,174.906,106.427,175.084,107.399,175.084z"/>
			<path fill="#3093CC" d="M125.501,176.542c-1.087,0-2.041-0.173-2.86-0.521c-0.822-0.346-1.504-0.843-2.047-1.49
				c-0.543-0.647-0.954-1.417-1.231-2.308c-0.277-0.89-0.416-1.89-0.416-3v-8.739c0-0.324,0.069-0.538,0.208-0.642
				c0.138-0.104,0.312-0.157,0.52-0.157h0.208c0.208,0,0.382,0.053,0.521,0.157c0.138,0.104,0.208,0.318,0.208,0.642v8.634
				c0,1.803,0.427,3.231,1.283,4.284c0.854,1.052,2.092,1.578,3.71,1.578c1.388,0,2.572-0.347,3.555-1.041s1.729-1.618,2.237-2.773
				v-10.682c0-0.324,0.069-0.538,0.208-0.642c0.139-0.104,0.312-0.157,0.521-0.157h0.208c0.208,0,0.381,0.053,0.52,0.157
				c0.139,0.104,0.208,0.318,0.208,0.642v15.64c0,0.023-0.058,0.058-0.173,0.104c-0.116,0.046-0.255,0.07-0.417,0.07
				c-0.277,0-0.52-0.11-0.728-0.33c-0.208-0.219-0.312-0.664-0.312-1.336v-1.492c-0.556,0.973-1.335,1.781-2.341,2.428
				C128.085,176.216,126.888,176.542,125.501,176.542z"/>
			<path fill="#3093CC" d="M142.806,176.542c-1.457,0-2.538-0.417-3.243-1.249s-1.058-2.115-1.058-3.85v-10.162h-2.011
				c-0.324,0-0.538-0.057-0.642-0.173c-0.104-0.116-0.156-0.278-0.156-0.486v-0.172c0-0.208,0.052-0.37,0.156-0.486
				c0.104-0.115,0.317-0.174,0.642-0.174h2.011v-3.19c0-0.323,0.07-0.543,0.208-0.658c0.139-0.117,0.312-0.173,0.521-0.173h0.208
				c0.208,0,0.376,0.057,0.504,0.173c0.126,0.115,0.19,0.335,0.19,0.658v3.19h4.751c0.324,0,0.543,0.059,0.659,0.174
				c0.116,0.117,0.173,0.278,0.173,0.486v0.172c0,0.208-0.057,0.371-0.173,0.486c-0.116,0.116-0.335,0.173-0.659,0.173h-4.751v9.988
				c0,1.364,0.214,2.347,0.642,2.947c0.428,0.603,1.127,0.902,2.098,0.902c0.601,0,1.122-0.127,1.562-0.38
				c0.438-0.255,0.808-0.603,1.108-1.042c0.047-0.022,0.15,0.03,0.312,0.155c0.162,0.128,0.243,0.353,0.243,0.678
				c0,0.139-0.042,0.3-0.122,0.485c-0.081,0.184-0.225,0.37-0.433,0.554c-0.254,0.277-0.606,0.51-1.057,0.694
				C144.036,176.449,143.476,176.542,142.806,176.542z"/>
			<path fill="#3093CC" d="M148.872,176.142c-0.138-0.103-0.207-0.317-0.207-0.642v-22.645c0-0.023,0.052-0.058,0.157-0.104
				c0.103-0.046,0.236-0.069,0.397-0.069c0.3,0,0.562,0.104,0.78,0.312c0.22,0.208,0.33,0.649,0.33,1.318v8.706
				c0.485-1.064,1.237-1.925,2.254-2.585c1.018-0.658,2.208-0.987,3.572-0.987c1.11,0,2.074,0.172,2.896,0.52
				c0.82,0.347,1.509,0.844,2.062,1.491c0.555,0.647,0.971,1.417,1.249,2.306c0.277,0.892,0.417,1.891,0.417,3v8.739
				c0,0.325-0.07,0.539-0.209,0.642c-0.139,0.105-0.312,0.157-0.521,0.157h-0.207c-0.208,0-0.384-0.052-0.521-0.157
				c-0.139-0.103-0.208-0.317-0.208-0.642v-8.635c0-1.826-0.434-3.26-1.301-4.3c-0.867-1.04-2.121-1.561-3.762-1.561
				c-0.833,0-1.596,0.139-2.288,0.416c-0.695,0.278-1.296,0.666-1.805,1.163c-0.51,0.498-0.907,1.098-1.196,1.803
				c-0.29,0.706-0.434,1.498-0.434,2.375v8.739c0,0.325-0.068,0.539-0.208,0.642c-0.139,0.105-0.312,0.157-0.521,0.157h-0.207
				C149.187,176.299,149.012,176.247,148.872,176.142z"/>
			<path fill="#3093CC" d="M168.138,170.975c0.335,0.844,0.803,1.572,1.404,2.185c0.601,0.612,1.312,1.087,2.133,1.422
				c0.82,0.334,1.717,0.502,2.688,0.502c0.854,0,1.602-0.098,2.238-0.296c0.635-0.194,1.188-0.45,1.663-0.761
				c0.475-0.314,0.867-0.666,1.18-1.059s0.572-0.797,0.78-1.214c0.023-0.022,0.088-0.022,0.19,0c0.104,0.022,0.214,0.075,0.33,0.156
				c0.114,0.082,0.22,0.186,0.312,0.312c0.092,0.127,0.139,0.295,0.139,0.503c0,0.185-0.08,0.433-0.241,0.746
				c-0.164,0.312-0.43,0.652-0.799,1.022c-0.51,0.51-1.254,0.978-2.237,1.406s-2.167,0.642-3.555,0.642
				c-1.248,0-2.393-0.214-3.433-0.642c-1.041-0.428-1.926-1.017-2.653-1.77c-0.729-0.75-1.296-1.647-1.698-2.687
				c-0.406-1.041-0.608-2.174-0.608-3.399c0-1.225,0.208-2.364,0.625-3.417c0.417-1.051,0.988-1.958,1.717-2.722
				c0.728-0.763,1.589-1.364,2.583-1.803s2.081-0.658,3.26-0.658c1.132,0,2.163,0.19,3.088,0.572
				c0.923,0.38,1.717,0.925,2.375,1.629c0.658,0.706,1.166,1.55,1.524,2.532c0.358,0.983,0.539,2.075,0.539,3.278v0.172
				c0,0.256-0.059,0.417-0.174,0.486s-0.301,0.104-0.554,0.104H167.6C167.622,169.212,167.803,170.13,168.138,170.975z
				 M179.946,166.796c-0.023-0.878-0.184-1.676-0.484-2.393s-0.699-1.335-1.197-1.855c-0.497-0.52-1.097-0.924-1.803-1.214
				c-0.705-0.289-1.475-0.433-2.307-0.433c-0.855,0-1.647,0.145-2.375,0.433c-0.729,0.291-1.377,0.695-1.943,1.214
				c-0.566,0.521-1.033,1.145-1.403,1.874c-0.37,0.728-0.613,1.521-0.729,2.375H179.946z"/>
			<path fill="#3093CC" d="M184.941,175.5v-15.64c0-0.022,0.052-0.057,0.157-0.104c0.103-0.046,0.235-0.069,0.397-0.069
				c0.3,0,0.555,0.111,0.764,0.331c0.208,0.22,0.311,0.664,0.311,1.334v2.081c0.348-1.388,0.908-2.398,1.684-3.035
				c0.773-0.635,1.717-0.953,2.825-0.953c0.671,0,1.225,0.126,1.665,0.381c0.438,0.255,0.66,0.59,0.66,1.005
				c0,0.325-0.07,0.556-0.209,0.694s-0.231,0.197-0.277,0.174c-0.23-0.185-0.514-0.342-0.851-0.468
				c-0.336-0.128-0.711-0.192-1.127-0.192c-1.479,0-2.573,0.671-3.276,2.011c-0.706,1.342-1.058,3.123-1.058,5.341v7.109
				c0,0.301-0.069,0.51-0.208,0.625s-0.312,0.174-0.521,0.174h-0.174C185.195,176.299,184.941,176.033,184.941,175.5z"/>
			<path fill="#3093CC" d="M196.175,176.142c-0.139-0.103-0.208-0.317-0.208-0.642v-15.64c0-0.022,0.053-0.057,0.157-0.104
				c0.104-0.046,0.237-0.069,0.398-0.069c0.3,0,0.556,0.111,0.764,0.331c0.207,0.22,0.312,0.664,0.312,1.334v1.492
				c0.53-0.971,1.3-1.78,2.306-2.427c1.005-0.647,2.202-0.971,3.59-0.971c1.086,0,2.04,0.172,2.861,0.52s1.508,0.844,2.062,1.491
				c0.556,0.647,0.972,1.417,1.25,2.306c0.276,0.892,0.415,1.891,0.415,3v8.739c0,0.325-0.069,0.539-0.208,0.642
				c-0.138,0.105-0.312,0.157-0.521,0.157h-0.207c-0.208,0-0.382-0.052-0.521-0.157c-0.139-0.103-0.208-0.317-0.208-0.642v-8.635
				c0-1.803-0.428-3.23-1.283-4.282c-0.855-1.052-2.092-1.579-3.71-1.579c-1.388,0-2.572,0.347-3.555,1.04
				c-0.982,0.694-1.729,1.619-2.237,2.775V175.5c0,0.325-0.069,0.539-0.208,0.642c-0.138,0.105-0.312,0.157-0.521,0.157h-0.206
				C196.488,176.299,196.315,176.247,196.175,176.142z"/>
			<path fill="#3093CC" d="M230.509,176.542c-1.665,0-3.181-0.283-4.545-0.85c-1.364-0.566-2.53-1.358-3.503-2.375
				c-0.971-1.018-1.722-2.23-2.253-3.642c-0.533-1.411-0.798-2.959-0.798-4.647c0-1.687,0.271-3.243,0.814-4.665
				c0.543-1.421,1.306-2.646,2.289-3.676c0.982-1.028,2.156-1.831,3.52-2.41c1.364-0.578,2.866-0.867,4.509-0.867
				c1.757,0,3.225,0.272,4.405,0.815c1.178,0.543,2.103,1.15,2.773,1.821c0.394,0.393,0.688,0.786,0.885,1.179
				c0.196,0.393,0.295,0.705,0.295,0.936c0,0.23-0.048,0.417-0.139,0.554c-0.092,0.139-0.203,0.248-0.33,0.329
				c-0.127,0.082-0.243,0.133-0.347,0.157c-0.104,0.024-0.168,0.024-0.19,0c-0.602-1.249-1.556-2.276-2.861-3.087
				c-1.307-0.809-2.826-1.212-4.561-1.212c-1.364,0-2.613,0.249-3.745,0.746c-1.133,0.498-2.11,1.196-2.931,2.098
				c-0.821,0.901-1.456,1.972-1.908,3.208c-0.449,1.236-0.675,2.583-0.675,4.04c0,1.458,0.226,2.798,0.675,4.024
				c0.452,1.225,1.087,2.283,1.908,3.172c0.82,0.891,1.809,1.589,2.964,2.097c1.157,0.51,2.429,0.764,3.817,0.764
				c1.039,0,1.975-0.133,2.808-0.398c0.832-0.265,1.567-0.624,2.203-1.075c0.635-0.452,1.167-0.965,1.595-1.543
				s0.745-1.18,0.953-1.804c0.023-0.022,0.093-0.022,0.208,0c0.116,0.024,0.244,0.069,0.382,0.139
				c0.139,0.069,0.265,0.179,0.382,0.329c0.115,0.151,0.172,0.331,0.172,0.539c0,0.253-0.119,0.637-0.363,1.145
				c-0.242,0.508-0.631,1.017-1.161,1.525c-0.671,0.671-1.62,1.277-2.845,1.82C233.687,176.27,232.218,176.542,230.509,176.542z"/>
			<path fill="#3093CC" d="M242.576,175.5v-15.64c0-0.022,0.052-0.057,0.157-0.104c0.103-0.046,0.236-0.069,0.397-0.069
				c0.3,0,0.555,0.111,0.764,0.331c0.208,0.22,0.311,0.664,0.311,1.334v2.081c0.348-1.388,0.909-2.398,1.684-3.035
				c0.773-0.635,1.717-0.953,2.825-0.953c0.671,0,1.225,0.126,1.665,0.381c0.439,0.255,0.66,0.59,0.66,1.005
				c0,0.325-0.069,0.556-0.209,0.694c-0.139,0.139-0.231,0.197-0.277,0.174c-0.23-0.185-0.514-0.342-0.85-0.468
				c-0.336-0.128-0.711-0.192-1.128-0.192c-1.479,0-2.572,0.671-3.276,2.011c-0.706,1.342-1.057,3.123-1.057,5.341v7.109
				c0,0.301-0.07,0.51-0.209,0.625s-0.312,0.174-0.521,0.174h-0.174C242.83,176.299,242.576,176.033,242.576,175.5z"/>
			<path fill="#3093CC" d="M260.61,176.542c-1.227,0-2.353-0.219-3.382-0.658c-1.027-0.438-1.912-1.042-2.652-1.804
				c-0.739-0.763-1.317-1.666-1.733-2.706c-0.417-1.04-0.625-2.174-0.625-3.399s0.208-2.358,0.625-3.398
				c0.416-1.041,0.994-1.941,1.733-2.704c0.74-0.764,1.625-1.358,2.652-1.786c1.029-0.428,2.155-0.642,3.382-0.642
				c1.226,0,2.346,0.219,3.364,0.658c1.018,0.439,1.896,1.041,2.636,1.803c0.741,0.764,1.318,1.671,1.735,2.722
				c0.415,1.053,0.622,2.192,0.622,3.417c0,1.203-0.207,2.324-0.622,3.364c-0.417,1.042-0.994,1.942-1.735,2.706
				c-0.74,0.762-1.618,1.358-2.636,1.786C262.955,176.328,261.835,176.542,260.61,176.542z M260.61,175.084
				c0.972,0,1.861-0.179,2.671-0.537c0.809-0.358,1.515-0.85,2.115-1.475c0.602-0.623,1.068-1.37,1.404-2.236
				c0.335-0.867,0.503-1.797,0.503-2.792c0-1.017-0.168-1.96-0.503-2.826c-0.336-0.867-0.797-1.618-1.386-2.254
				c-0.591-0.636-1.296-1.139-2.117-1.509c-0.82-0.369-1.716-0.555-2.688-0.555c-0.971,0-1.868,0.181-2.687,0.539
				c-0.821,0.358-1.532,0.855-2.134,1.49c-0.602,0.636-1.069,1.382-1.404,2.237s-0.503,1.792-0.503,2.808
				c0,0.995,0.168,1.925,0.503,2.792c0.335,0.866,0.803,1.625,1.404,2.272c0.602,0.647,1.312,1.15,2.134,1.509
				C258.741,174.906,259.639,175.084,260.61,175.084z"/>
			<path fill="#3093CC" d="M277.569,176.542c-1.457,0-2.666-0.191-3.624-0.572c-0.961-0.382-1.694-0.828-2.203-1.336
				c-0.3-0.3-0.508-0.554-0.625-0.763c-0.115-0.208-0.172-0.404-0.172-0.59c0-0.183,0.044-0.333,0.139-0.45
				c0.092-0.115,0.19-0.208,0.295-0.278c0.103-0.07,0.201-0.115,0.294-0.139c0.092-0.021,0.15-0.033,0.174-0.033
				c0.507,0.786,1.23,1.444,2.168,1.975c0.937,0.533,2.144,0.798,3.622,0.798c1.503,0,2.666-0.3,3.486-0.901
				c0.821-0.601,1.23-1.364,1.23-2.289c0-0.555-0.12-1.011-0.363-1.369c-0.242-0.358-0.589-0.652-1.039-0.886
				c-0.453-0.23-0.989-0.426-1.614-0.589c-0.623-0.161-1.316-0.322-2.08-0.486c-0.671-0.139-1.353-0.294-2.046-0.467
				c-0.693-0.173-1.318-0.422-1.874-0.746c-0.554-0.323-1.011-0.74-1.369-1.248s-0.537-1.167-0.537-1.978
				c0-0.693,0.149-1.334,0.451-1.923c0.3-0.591,0.717-1.093,1.247-1.51c0.533-0.416,1.175-0.739,1.925-0.971
				c0.751-0.23,1.591-0.346,2.516-0.346c1.294,0,2.38,0.179,3.26,0.538c0.877,0.358,1.561,0.779,2.046,1.265
				c0.416,0.417,0.623,0.821,0.623,1.214c0,0.163-0.046,0.307-0.139,0.433c-0.092,0.128-0.188,0.225-0.295,0.295
				c-0.103,0.069-0.202,0.116-0.294,0.139c-0.092,0.023-0.15,0.023-0.172,0c-0.417-0.716-1.064-1.312-1.943-1.786
				c-0.88-0.474-1.907-0.711-3.086-0.711c-1.435,0-2.549,0.296-3.348,0.884c-0.797,0.59-1.195,1.335-1.195,2.238
				c0,0.508,0.114,0.936,0.347,1.283c0.23,0.346,0.56,0.636,0.988,0.867c0.427,0.23,0.948,0.428,1.56,0.589
				c0.613,0.163,1.288,0.325,2.03,0.486c0.692,0.139,1.397,0.3,2.113,0.486c0.717,0.185,1.364,0.445,1.943,0.781
				c0.578,0.334,1.052,0.761,1.421,1.282c0.37,0.521,0.556,1.185,0.556,1.995c0,1.435-0.572,2.596-1.717,3.484
				C281.122,176.097,279.556,176.542,277.569,176.542z"/>
			<path fill="#3093CC" d="M292.585,176.542c-1.457,0-2.665-0.191-3.624-0.572c-0.961-0.382-1.694-0.828-2.203-1.336
				c-0.3-0.3-0.508-0.554-0.625-0.763c-0.115-0.208-0.172-0.404-0.172-0.59c0-0.183,0.045-0.333,0.14-0.45
				c0.091-0.115,0.189-0.208,0.294-0.278c0.103-0.07,0.201-0.115,0.294-0.139c0.092-0.021,0.15-0.033,0.174-0.033
				c0.508,0.786,1.23,1.444,2.168,1.975c0.937,0.533,2.144,0.798,3.622,0.798c1.503,0,2.666-0.3,3.486-0.901
				c0.821-0.601,1.23-1.364,1.23-2.289c0-0.555-0.121-1.011-0.363-1.369s-0.589-0.652-1.039-0.886
				c-0.453-0.23-0.989-0.426-1.614-0.589c-0.623-0.161-1.316-0.322-2.08-0.486c-0.671-0.139-1.353-0.294-2.046-0.467
				c-0.693-0.173-1.318-0.422-1.874-0.746c-0.554-0.323-1.011-0.74-1.369-1.248s-0.537-1.167-0.537-1.978
				c0-0.693,0.149-1.334,0.451-1.923c0.3-0.591,0.717-1.093,1.247-1.51c0.533-0.416,1.175-0.739,1.925-0.971
				c0.752-0.23,1.591-0.346,2.516-0.346c1.294,0,2.38,0.179,3.26,0.538c0.877,0.358,1.561,0.779,2.046,1.265
				c0.416,0.417,0.623,0.821,0.623,1.214c0,0.163-0.046,0.307-0.139,0.433c-0.092,0.128-0.188,0.225-0.294,0.295
				c-0.104,0.069-0.203,0.116-0.295,0.139c-0.092,0.023-0.15,0.023-0.173,0c-0.416-0.716-1.063-1.312-1.942-1.786
				c-0.879-0.474-1.907-0.711-3.086-0.711c-1.435,0-2.549,0.296-3.348,0.884c-0.797,0.59-1.195,1.335-1.195,2.238
				c0,0.508,0.115,0.936,0.347,1.283c0.23,0.346,0.56,0.636,0.987,0.867c0.429,0.23,0.949,0.428,1.561,0.589
				c0.613,0.163,1.289,0.325,2.03,0.486c0.692,0.139,1.397,0.3,2.113,0.486c0.717,0.185,1.364,0.445,1.943,0.781
				c0.578,0.334,1.052,0.761,1.421,1.282c0.369,0.521,0.556,1.185,0.556,1.995c0,1.435-0.572,2.596-1.717,3.484
				C296.139,176.097,294.573,176.542,292.585,176.542z"/>
		</g>
		<g>
			<path fill="#3093CC" d="M80.98,196.861v-13.152c0-1.136,0.555-1.691,1.565-1.691H83.1c1.061,0,1.616,0.556,1.616,1.691v4.973
				h7.068v-4.973c0-1.136,0.555-1.691,1.565-1.691h0.53c1.085,0,1.641,0.556,1.641,1.691v13.152c0,1.111-0.555,1.691-1.641,1.691
				h-0.53c-1.01,0-1.565-0.581-1.565-1.691v-5.023h-7.068v5.023c0,1.111-0.555,1.691-1.616,1.691h-0.555
				C81.535,198.553,80.98,197.972,80.98,196.861z"/>
			<path fill="#3093CC" d="M104.203,196.18c1.868,0,2.903-0.833,3.483-1.817c0.025-0.05,1.717,0.177,1.717,1.616
				c0,1.312-1.894,2.802-5.326,2.802c-4.014,0-6.664-2.499-6.664-6.386c0-3.761,2.701-6.538,6.437-6.538
				c3.635,0,6.134,2.55,6.134,6.159v0.252c-0.025,0.631-0.202,0.984-0.858,0.984h-8.481
				C100.897,195.094,102.285,196.18,104.203,196.18z M106.677,191.182c-0.076-1.716-1.161-2.852-2.877-2.852
				c-1.666,0-2.928,1.186-3.155,2.852H106.677z"/>
			<path fill="#3093CC" d="M116.876,188.531c-1.717,0-2.6,0.934-3.055,1.893c0,0.051-2.297,0.126-2.297-1.515
				c0-1.54,1.817-3.054,5.579-3.054c3.887,0,5.806,1.767,5.806,5.074v7.295c0,0.177-0.656,0.404-1.338,0.404
				c-1.111,0-1.893-0.606-2.095-1.969c-0.883,1.287-2.423,2.07-4.266,2.07c-2.575,0-4.14-1.464-4.14-3.56
				c0-2.827,2.524-4.114,7.926-4.19h0.404C119.4,189.39,118.517,188.531,116.876,188.531z M119.4,193.63v-0.707l-0.656,0.025
				c-2.802,0.076-4.266,0.631-4.266,1.969c0,0.909,0.732,1.489,1.918,1.489C118.163,196.407,119.4,195.246,119.4,193.63z"/>
			<path fill="#3093CC" d="M125.332,196.861v-15.55c0-0.126,0.631-0.404,1.338-0.404c1.06,0,2.221,0.555,2.221,2.853v13.101
				c0,1.288-0.656,1.691-1.565,1.691h-0.378C126.014,198.553,125.332,198.174,125.332,196.861z"/>
			<path fill="#3093CC" d="M131.921,188.91c-1.01,0-1.489-0.429-1.489-1.237v-0.227c0-0.858,0.479-1.312,1.489-1.312h0.606v-1.565
				c0-1.162,0.605-1.717,1.615-1.717h0.303c0.959,0,1.59,0.404,1.59,1.717v1.565h2.146c1.01,0,1.438,0.429,1.438,1.262v0.202
				c0,0.858-0.454,1.312-1.489,1.312h-2.171v5.251c0,1.211,0.404,1.817,1.363,1.817c0.732,0,1.212-0.354,1.59-0.833
				c0.05-0.076,0.858,0.404,0.858,1.388c0,1.237-1.237,2.247-3.256,2.247c-2.727,0-3.988-1.439-3.988-4.215v-5.655H131.921z"/>
			<path fill="#3093CC" d="M148.834,185.855c3.23,0,4.594,2.322,4.594,5.2v5.806c0,1.288-0.656,1.691-1.564,1.691h-0.379
				c-0.959,0-1.615-0.379-1.615-1.691v-5.301c0-1.717-0.858-2.727-2.272-2.727c-1.666,0-2.726,1.111-2.726,2.878v5.149
				c0,1.288-0.656,1.691-1.565,1.691h-0.379c-0.959,0-1.615-0.379-1.615-1.691v-15.55c0-0.126,0.631-0.404,1.338-0.404
				c1.06,0,2.221,0.555,2.221,2.853v4.316C145.654,186.79,146.941,185.855,148.834,185.855z"/>
			<path fill="#3093CC" d="M159.083,195.498c0-1.035,1.287-1.969,1.413-1.868c0.984,1.187,2.853,2.247,4.872,2.247
				c1.943,0,2.979-0.732,2.979-1.994c0-1.464-1.641-1.691-3.56-2.121c-2.625-0.581-5.301-1.59-5.301-4.922
				c0-3.029,2.449-5.049,6.361-5.049c3.963,0,5.882,1.59,5.882,2.979c0,1.161-1.414,2.02-1.489,1.944
				c-0.959-1.136-2.601-2.02-4.342-2.02c-1.792,0-2.827,0.757-2.827,1.944c0,1.414,1.464,1.54,3.483,1.994
				c2.953,0.656,5.528,1.893,5.528,4.973c0,3.256-2.373,5.175-6.689,5.175C161.052,198.78,159.083,196.988,159.083,195.498z"/>
			<path fill="#3093CC" d="M173.219,192.318c0-3.812,2.701-6.462,6.614-6.462c3.887,0,6.537,2.65,6.537,6.487
				s-2.65,6.437-6.588,6.437C175.869,198.78,173.219,196.18,173.219,192.318z M183.24,192.343c0-2.146-1.438-3.71-3.433-3.71
				s-3.458,1.54-3.458,3.686c0,2.12,1.464,3.66,3.458,3.66C181.777,195.978,183.24,194.438,183.24,192.343z"/>
			<path fill="#3093CC" d="M187.507,192.318c0-3.761,2.727-6.437,6.487-6.437s5.25,2.171,5.25,3.332
				c0,1.439-1.893,1.691-1.969,1.565c-0.479-1.187-1.388-2.044-3.13-2.044c-1.943,0-3.357,1.489-3.357,3.584
				c0,2.095,1.414,3.609,3.357,3.609c1.691,0,2.65-0.858,3.13-2.044c0.051-0.126,1.969,0.076,1.969,1.59
				c0,1.161-1.564,3.307-5.25,3.307C190.183,198.78,187.507,196.104,187.507,192.318z"/>
			<path fill="#3093CC" d="M200.785,182.271c0-1.11,0.757-1.792,1.994-1.792c1.236,0,1.969,0.656,1.969,1.792
				c0,1.136-0.732,1.818-1.969,1.818C201.542,184.088,200.785,183.407,200.785,182.271z M200.987,196.861v-9.138
				c0-1.288,0.682-1.717,1.591-1.717h0.379c0.959,0,1.59,0.404,1.59,1.717v9.138c0,1.288-0.656,1.691-1.565,1.691h-0.378
				C201.668,198.553,200.987,198.174,200.987,196.861z"/>
			<path fill="#3093CC" d="M213.204,196.18c1.868,0,2.903-0.833,3.483-1.817c0.025-0.05,1.717,0.177,1.717,1.616
				c0,1.312-1.894,2.802-5.326,2.802c-4.014,0-6.664-2.499-6.664-6.386c0-3.761,2.701-6.538,6.437-6.538
				c3.635,0,6.134,2.55,6.134,6.159v0.252c-0.024,0.631-0.201,0.984-0.857,0.984h-8.482
				C209.898,195.094,211.286,196.18,213.204,196.18z M215.678,191.182c-0.075-1.716-1.161-2.852-2.877-2.852
				c-1.666,0-2.929,1.186-3.156,2.852H215.678z"/>
			<path fill="#3093CC" d="M221.152,188.91c-1.01,0-1.489-0.429-1.489-1.237v-0.227c0-0.858,0.479-1.312,1.489-1.312h0.605v-1.565
				c0-1.162,0.606-1.717,1.616-1.717h0.303c0.959,0,1.59,0.404,1.59,1.717v1.565h2.146c1.01,0,1.439,0.429,1.439,1.262v0.202
				c0,0.858-0.455,1.312-1.489,1.312h-2.171v5.251c0,1.211,0.403,1.817,1.362,1.817c0.732,0,1.212-0.354,1.591-0.833
				c0.051-0.076,0.858,0.404,0.858,1.388c0,1.237-1.237,2.247-3.257,2.247c-2.726,0-3.988-1.439-3.988-4.215v-5.655H221.152z"/>
			<path fill="#3093CC" d="M232.685,202.314l2.045-4.645c-0.581-0.076-0.935-0.277-1.161-0.782l-4.241-9.845
				c-0.075-0.202,0.858-1.035,1.944-1.035c0.833,0,1.539,0.379,1.994,1.767l2.676,7.043l2.372-7.018
				c0.43-1.389,1.187-1.792,1.969-1.792c1.01,0,1.995,0.808,1.919,0.985l-5.604,14.565c-0.53,1.338-1.237,1.742-2.02,1.742
				C233.543,203.298,232.584,202.491,232.685,202.314z"/>
		</g>
	</g>
	<path fill="#3093CC" d="M68.377,434.062c0.274,2.516,2.397,4.475,4.984,4.486l0,0c0.01,0,0.017,0.007,0.017,0.017
		s-0.007,0.017-0.017,0.017l0,0l0,0c-2.767,0.01-5.005,2.252-5.015,5.019l0,0c0,0.01-0.006,0.017-0.017,0.017
		c-0.008,0-0.016-0.007-0.016-0.017l0,0c-0.01-2.769-2.252-5.013-5.024-5.018v0c-0.009,0-0.016-0.008-0.016-0.017
		s0.007-0.018,0.016-0.018l0,0c2.673-0.004,4.853-2.092,5.013-4.726v-16.026H47.156v16.268H30.887v21.147h16.268v16.268h21.147
		v-6.958c0,0,0,0,0-0.001l0,0c-0.018-5.1-4.147-9.231-9.252-9.241v-0.001c-0.017,0-0.031-0.014-0.031-0.031
		c0-0.017,0.014-0.031,0.031-0.031l0,0c5.104-0.012,9.234-4.142,9.252-9.243l0,0c0-0.017,0.015-0.029,0.031-0.029
		c0.016,0,0.03,0.012,0.03,0.029l0,0v0.001v0c0.019,5.048,4.064,9.143,9.095,9.238h7.112v-21.147H68.377z M65.861,446.583
		L65.861,446.583L65.861,446.583c-2.768,0.012-5.005,2.253-5.015,5.02v0c0,0.009-0.007,0.016-0.017,0.016
		c-0.009,0-0.017-0.007-0.017-0.016l0,0c-0.01-2.771-2.252-5.012-5.023-5.019v-0.001c-0.01,0-0.017-0.007-0.017-0.016
		s0.007-0.017,0.017-0.018l0,0c2.771-0.006,5.014-2.249,5.023-5.018l0,0c0-0.01,0.008-0.017,0.017-0.017
		c0.009,0,0.016,0.007,0.017,0.017l0,0l0,0c0.009,2.766,2.247,5.008,5.014,5.019h0c0.009,0,0.016,0.007,0.016,0.017
		S65.869,446.583,65.861,446.583z M80.863,446.583L80.863,446.583L80.863,446.583c-2.768,0.012-5.005,2.253-5.016,5.02v0
		c0,0.009-0.007,0.016-0.016,0.016c-0.01,0-0.017-0.007-0.017-0.016l0,0c-0.009-2.771-2.251-5.012-5.024-5.019v-0.001
		c-0.009,0-0.017-0.007-0.017-0.016s0.008-0.017,0.017-0.018l0,0c2.771-0.006,5.014-2.249,5.024-5.018l0,0
		c0-0.01,0.007-0.017,0.017-0.017c0.009,0,0.015,0.007,0.016,0.017l0,0l0,0c0.011,2.766,2.249,5.008,5.016,5.019l0,0
		c0.009,0,0.016,0.007,0.016,0.017S80.872,446.583,80.863,446.583z"/>
	<g>
		<path fill="#3093CC" d="M95.246,453.507c-1.361,0-2.518-0.194-3.473-0.582c-0.955-0.387-1.696-0.854-2.225-1.402
			c-0.322-0.322-0.553-0.629-0.695-0.922c-0.141-0.294-0.212-0.543-0.212-0.752c0-0.15,0.042-0.283,0.127-0.396
			c0.085-0.114,0.175-0.208,0.27-0.283c0.094-0.077,0.188-0.128,0.282-0.157c0.094-0.029,0.152-0.033,0.171-0.014
			c0.188,0.416,0.444,0.817,0.765,1.204c0.322,0.388,0.714,0.738,1.178,1.049c0.462,0.313,1.01,0.563,1.643,0.752
			c0.633,0.19,1.348,0.284,2.141,0.284c1.513,0,2.698-0.336,3.558-1.006c0.86-0.671,1.291-1.583,1.291-2.736
			c0-0.661-0.147-1.215-0.439-1.658c-0.294-0.444-0.68-0.812-1.163-1.105c-0.482-0.293-1.04-0.529-1.673-0.71
			c-0.634-0.18-1.299-0.354-1.999-0.524c-0.7-0.169-1.39-0.364-2.07-0.581c-0.68-0.218-1.289-0.511-1.829-0.88
			c-0.539-0.367-0.969-0.835-1.29-1.403c-0.321-0.566-0.482-1.284-0.482-2.154c0-0.718,0.152-1.379,0.454-1.985
			c0.303-0.604,0.724-1.124,1.262-1.56c0.54-0.434,1.167-0.774,1.886-1.02c0.718-0.245,1.503-0.369,2.354-0.369
			c1.247,0,2.301,0.179,3.161,0.538c0.86,0.36,1.525,0.766,2,1.22c0.529,0.566,0.793,1.059,0.793,1.475
			c0,0.151-0.043,0.288-0.129,0.411c-0.083,0.123-0.174,0.217-0.268,0.283c-0.095,0.067-0.188,0.119-0.284,0.156
			c-0.095,0.038-0.151,0.047-0.17,0.029c-0.171-0.378-0.402-0.742-0.695-1.092c-0.294-0.35-0.652-0.656-1.077-0.921
			c-0.425-0.265-0.912-0.479-1.46-0.639s-1.163-0.24-1.843-0.24c-0.662,0-1.276,0.084-1.842,0.254
			c-0.568,0.17-1.056,0.417-1.46,0.737c-0.407,0.322-0.724,0.709-0.95,1.163c-0.227,0.454-0.34,0.964-0.34,1.532
			c0,0.623,0.127,1.139,0.383,1.545c0.255,0.407,0.605,0.746,1.05,1.02c0.444,0.274,0.968,0.497,1.573,0.667
			c0.604,0.17,1.266,0.341,1.984,0.511c0.738,0.169,1.461,0.374,2.169,0.609c0.709,0.237,1.347,0.548,1.914,0.936
			s1.021,0.875,1.36,1.461c0.342,0.586,0.511,1.322,0.511,2.21c0,0.756-0.146,1.446-0.438,2.07
			c-0.294,0.623-0.714,1.153-1.262,1.587c-0.549,0.436-1.201,0.775-1.957,1.021C97.042,453.384,96.191,453.507,95.246,453.507z"/>
		<path fill="#3093CC" d="M110.302,453.507c-1.002,0-1.924-0.179-2.765-0.539c-0.841-0.357-1.564-0.851-2.169-1.475
			c-0.605-0.624-1.077-1.36-1.417-2.212c-0.341-0.849-0.51-1.777-0.51-2.778c0-1.001,0.168-1.927,0.51-2.778
			c0.34-0.851,0.812-1.587,1.417-2.211c0.604-0.624,1.328-1.11,2.169-1.46c0.84-0.35,1.762-0.525,2.765-0.525
			c1.001,0,1.917,0.179,2.749,0.539c0.833,0.358,1.551,0.851,2.156,1.474c0.604,0.625,1.077,1.366,1.418,2.225
			c0.339,0.861,0.509,1.792,0.509,2.794c0,0.983-0.17,1.899-0.509,2.75c-0.341,0.851-0.813,1.587-1.418,2.212
			c-0.605,0.623-1.323,1.11-2.156,1.46C112.219,453.333,111.302,453.507,110.302,453.507z M110.302,452.316
			c0.793,0,1.521-0.146,2.183-0.44c0.661-0.292,1.238-0.694,1.729-1.205c0.492-0.51,0.875-1.12,1.148-1.828
			c0.274-0.709,0.411-1.469,0.411-2.282c0-0.832-0.137-1.603-0.411-2.31c-0.274-0.709-0.652-1.324-1.134-1.843
			c-0.481-0.521-1.059-0.932-1.729-1.234c-0.671-0.301-1.403-0.454-2.197-0.454c-0.794,0-1.526,0.148-2.197,0.441
			c-0.671,0.292-1.252,0.699-1.744,1.218c-0.492,0.521-0.875,1.129-1.148,1.829c-0.275,0.699-0.412,1.464-0.412,2.296
			c0,0.812,0.137,1.574,0.412,2.282c0.273,0.708,0.656,1.329,1.148,1.858c0.491,0.529,1.072,0.941,1.744,1.232
			C108.775,452.171,109.508,452.316,110.302,452.316z"/>
		<path fill="#3093CC" d="M125.1,453.507c-0.887,0-1.668-0.141-2.338-0.425c-0.672-0.283-1.229-0.689-1.673-1.218
			c-0.443-0.53-0.78-1.159-1.007-1.888c-0.226-0.726-0.339-1.543-0.339-2.452v-7.144c0-0.265,0.056-0.439,0.169-0.525
			c0.114-0.085,0.255-0.128,0.425-0.128h0.17c0.17,0,0.312,0.043,0.427,0.128c0.112,0.086,0.169,0.26,0.169,0.525v7.059
			c0,1.474,0.349,2.641,1.049,3.502c0.698,0.86,1.71,1.29,3.033,1.29c1.134,0,2.102-0.284,2.906-0.851
			c0.804-0.567,1.413-1.322,1.829-2.268v-8.732c0-0.265,0.056-0.439,0.17-0.525c0.113-0.085,0.254-0.128,0.426-0.128h0.169
			c0.17,0,0.312,0.043,0.425,0.128c0.114,0.086,0.17,0.26,0.17,0.525v12.786c0,0.019-0.047,0.048-0.141,0.085
			c-0.095,0.038-0.208,0.057-0.341,0.057c-0.227,0-0.424-0.089-0.595-0.269c-0.17-0.179-0.255-0.543-0.255-1.092v-1.22
			c-0.455,0.796-1.092,1.456-1.915,1.985C127.212,453.242,126.234,453.507,125.1,453.507z"/>
		<path fill="#3093CC" d="M139.248,453.507c-1.19,0-2.075-0.341-2.651-1.021c-0.577-0.68-0.865-1.729-0.865-3.147v-8.307h-1.644
			c-0.265,0-0.438-0.047-0.524-0.142c-0.085-0.095-0.128-0.227-0.128-0.397v-0.141c0-0.171,0.042-0.302,0.128-0.398
			c0.086-0.094,0.259-0.142,0.524-0.142h1.644v-2.608c0-0.264,0.057-0.444,0.17-0.538c0.113-0.095,0.255-0.142,0.426-0.142h0.17
			c0.169,0,0.306,0.047,0.412,0.142c0.102,0.094,0.155,0.274,0.155,0.538v2.608h3.885c0.264,0,0.443,0.048,0.538,0.142
			c0.095,0.096,0.143,0.227,0.143,0.398v0.141c0,0.17-0.047,0.303-0.143,0.397c-0.094,0.095-0.274,0.142-0.538,0.142h-3.885v8.165
			c0,1.115,0.176,1.919,0.524,2.41c0.35,0.492,0.921,0.737,1.716,0.737c0.491,0,0.916-0.104,1.277-0.312
			c0.358-0.208,0.66-0.492,0.906-0.851c0.038-0.018,0.123,0.024,0.255,0.127c0.132,0.104,0.198,0.288,0.198,0.555
			c0,0.113-0.033,0.244-0.1,0.396c-0.066,0.15-0.184,0.302-0.354,0.453c-0.208,0.227-0.495,0.417-0.864,0.568
			C140.254,453.432,139.795,453.507,139.248,453.507z"/>
		<path fill="#3093CC" d="M144.207,453.181c-0.112-0.084-0.168-0.26-0.168-0.524v-18.513c0-0.019,0.042-0.048,0.127-0.085
			c0.084-0.038,0.194-0.057,0.326-0.057c0.245,0,0.459,0.085,0.638,0.255c0.179,0.17,0.27,0.53,0.27,1.078v7.117
			c0.397-0.87,1.012-1.574,1.843-2.113c0.832-0.538,1.805-0.808,2.92-0.808c0.907,0,1.695,0.141,2.367,0.425
			c0.672,0.284,1.234,0.69,1.687,1.219c0.454,0.529,0.794,1.159,1.021,1.885c0.229,0.729,0.342,1.545,0.342,2.453v7.144
			c0,0.265-0.059,0.44-0.17,0.524c-0.115,0.086-0.256,0.128-0.427,0.128h-0.169c-0.17,0-0.313-0.042-0.426-0.128
			c-0.114-0.084-0.171-0.26-0.171-0.524v-7.06c0-1.493-0.354-2.665-1.063-3.515c-0.709-0.851-1.734-1.276-3.075-1.276
			c-0.681,0-1.304,0.114-1.87,0.34c-0.568,0.228-1.06,0.544-1.476,0.951c-0.416,0.407-0.742,0.897-0.978,1.474
			c-0.238,0.577-0.355,1.224-0.355,1.942v7.144c0,0.265-0.056,0.44-0.17,0.524c-0.113,0.086-0.255,0.128-0.425,0.128h-0.168
			C144.464,453.309,144.322,453.267,144.207,453.181z"/>
		<path fill="#3093CC" d="M159.957,448.957c0.273,0.69,0.656,1.285,1.148,1.787c0.49,0.5,1.072,0.888,1.743,1.163
			c0.671,0.273,1.403,0.411,2.196,0.411c0.699,0,1.311-0.08,1.83-0.241c0.52-0.16,0.973-0.368,1.36-0.623
			c0.388-0.256,0.709-0.544,0.964-0.866c0.256-0.321,0.469-0.651,0.639-0.991c0.019-0.019,0.072-0.019,0.156,0
			c0.086,0.018,0.174,0.061,0.27,0.127c0.094,0.066,0.18,0.152,0.254,0.254c0.074,0.104,0.113,0.241,0.113,0.412
			c0,0.151-0.065,0.354-0.197,0.61c-0.133,0.254-0.352,0.533-0.652,0.835c-0.417,0.417-1.025,0.8-1.83,1.15
			c-0.803,0.349-1.771,0.524-2.906,0.524c-1.02,0-1.955-0.175-2.805-0.524c-0.852-0.35-1.576-0.832-2.17-1.447
			c-0.596-0.613-1.06-1.347-1.389-2.197c-0.332-0.851-0.498-1.777-0.498-2.778s0.172-1.933,0.512-2.794
			c0.342-0.859,0.809-1.6,1.404-2.225c0.594-0.624,1.299-1.116,2.111-1.474c0.812-0.359,1.701-0.539,2.665-0.539
			c0.925,0,1.769,0.156,2.524,0.468c0.754,0.312,1.403,0.756,1.941,1.332c0.537,0.577,0.953,1.267,1.246,2.07
			c0.293,0.804,0.441,1.695,0.441,2.679v0.141c0,0.209-0.049,0.341-0.143,0.397c-0.094,0.058-0.246,0.085-0.453,0.085h-10.917
			C159.535,447.516,159.684,448.267,159.957,448.957z M169.611,445.541c-0.02-0.718-0.149-1.371-0.396-1.957
			c-0.246-0.586-0.572-1.091-0.979-1.517c-0.407-0.425-0.897-0.755-1.474-0.993c-0.576-0.236-1.206-0.354-1.886-0.354
			c-0.698,0-1.347,0.119-1.942,0.354c-0.596,0.237-1.125,0.568-1.588,0.993c-0.464,0.426-0.845,0.936-1.147,1.532
			c-0.302,0.595-0.502,1.243-0.596,1.942H169.611z"/>
		<path fill="#3093CC" d="M173.694,452.656V439.87c0-0.019,0.043-0.047,0.129-0.085c0.084-0.038,0.191-0.057,0.324-0.057
			c0.246,0,0.453,0.091,0.625,0.27c0.17,0.18,0.254,0.543,0.254,1.091v1.701c0.285-1.134,0.743-1.96,1.377-2.481
			c0.631-0.519,1.403-0.779,2.311-0.779c0.547,0,1,0.104,1.359,0.312c0.359,0.209,0.539,0.482,0.539,0.822
			c0,0.266-0.057,0.454-0.172,0.567c-0.111,0.114-0.188,0.161-0.225,0.142c-0.188-0.151-0.422-0.279-0.695-0.383
			c-0.273-0.104-0.58-0.157-0.92-0.157c-1.211,0-2.104,0.549-2.68,1.645c-0.578,1.097-0.865,2.553-0.865,4.366v5.812
			c0,0.245-0.057,0.417-0.17,0.51c-0.113,0.095-0.256,0.142-0.424,0.142h-0.145C173.902,453.309,173.694,453.092,173.694,452.656z"
			/>
		<path fill="#3093CC" d="M182.879,453.181c-0.113-0.084-0.17-0.26-0.17-0.524V439.87c0-0.019,0.043-0.047,0.129-0.085
			c0.084-0.038,0.193-0.057,0.324-0.057c0.246,0,0.457,0.091,0.625,0.27c0.168,0.18,0.254,0.543,0.254,1.091v1.219
			c0.436-0.793,1.062-1.455,1.885-1.984s1.801-0.794,2.936-0.794c0.889,0,1.67,0.141,2.338,0.425
			c0.674,0.284,1.234,0.69,1.688,1.219c0.453,0.529,0.795,1.159,1.021,1.885c0.227,0.729,0.34,1.545,0.34,2.453v7.144
			c0,0.265-0.057,0.44-0.172,0.524c-0.111,0.086-0.254,0.128-0.424,0.128h-0.17c-0.17,0-0.311-0.042-0.426-0.128
			c-0.113-0.084-0.17-0.26-0.17-0.524v-7.06c0-1.474-0.352-2.641-1.051-3.501c-0.697-0.86-1.707-1.291-3.031-1.291
			c-1.135,0-2.104,0.284-2.906,0.851c-0.803,0.568-1.412,1.324-1.828,2.269v8.732c0,0.265-0.057,0.44-0.17,0.524
			c-0.113,0.086-0.256,0.128-0.428,0.128h-0.168C183.135,453.309,182.994,453.267,182.879,453.181z"/>
		<path fill="#3093CC" d="M210.948,453.507c-1.361,0-2.6-0.232-3.717-0.695c-1.113-0.463-2.066-1.11-2.863-1.942
			c-0.793-0.832-1.408-1.823-1.842-2.977c-0.434-1.153-0.65-2.42-0.65-3.799c0-1.379,0.221-2.65,0.666-3.813
			c0.443-1.162,1.064-2.164,1.869-3.006c0.805-0.84,1.764-1.497,2.879-1.97c1.113-0.472,2.342-0.708,3.686-0.708
			c1.438,0,2.637,0.223,3.602,0.667c0.963,0.443,1.717,0.94,2.268,1.488c0.32,0.321,0.562,0.642,0.723,0.964
			c0.16,0.321,0.242,0.577,0.242,0.765s-0.041,0.34-0.113,0.453c-0.076,0.113-0.166,0.203-0.27,0.269
			c-0.105,0.067-0.199,0.109-0.285,0.128c-0.084,0.02-0.137,0.02-0.156,0c-0.492-1.02-1.27-1.861-2.338-2.524
			c-1.068-0.661-2.311-0.991-3.729-0.991c-1.115,0-2.137,0.203-3.062,0.609c-0.926,0.407-1.725,0.978-2.395,1.715
			c-0.674,0.737-1.191,1.612-1.561,2.623c-0.367,1.011-0.551,2.112-0.551,3.303c0,1.192,0.184,2.288,0.551,3.29
			c0.369,1.001,0.887,1.867,1.561,2.593c0.67,0.729,1.479,1.299,2.422,1.714c0.947,0.417,1.986,0.625,3.121,0.625
			c0.852,0,1.615-0.109,2.295-0.326c0.68-0.216,1.283-0.51,1.803-0.879c0.518-0.369,0.953-0.788,1.303-1.261
			c0.35-0.473,0.609-0.964,0.779-1.475c0.02-0.018,0.076-0.018,0.168,0c0.098,0.02,0.201,0.057,0.314,0.114
			c0.113,0.057,0.215,0.146,0.311,0.269c0.096,0.124,0.143,0.271,0.143,0.441c0,0.206-0.098,0.52-0.299,0.936
			c-0.197,0.416-0.514,0.83-0.947,1.247c-0.549,0.547-1.326,1.044-2.328,1.488C213.545,453.285,212.346,453.507,210.948,453.507z"/>
		<path fill="#3093CC" d="M220.813,452.656V439.87c0-0.019,0.041-0.047,0.129-0.085c0.084-0.038,0.191-0.057,0.324-0.057
			c0.244,0,0.455,0.091,0.625,0.27c0.17,0.18,0.254,0.543,0.254,1.091v1.701c0.283-1.134,0.742-1.96,1.377-2.481
			c0.631-0.519,1.404-0.779,2.309-0.779c0.551,0,1,0.104,1.361,0.312c0.361,0.209,0.539,0.482,0.539,0.822
			c0,0.266-0.055,0.454-0.17,0.567c-0.113,0.114-0.189,0.161-0.227,0.142c-0.188-0.151-0.42-0.279-0.695-0.383
			c-0.273-0.104-0.578-0.157-0.922-0.157c-1.207,0-2.102,0.549-2.678,1.645c-0.578,1.097-0.863,2.553-0.863,4.366v5.812
			c0,0.245-0.059,0.417-0.172,0.51c-0.113,0.095-0.256,0.142-0.428,0.142h-0.141C221.02,453.309,220.813,453.092,220.813,452.656z"
			/>
		<path fill="#3093CC" d="M235.557,453.507c-1.004,0-1.926-0.179-2.766-0.539c-0.84-0.357-1.562-0.851-2.17-1.475
			c-0.604-0.624-1.074-1.36-1.416-2.212c-0.342-0.849-0.51-1.777-0.51-2.778c0-1.001,0.168-1.927,0.51-2.778
			c0.342-0.851,0.812-1.587,1.416-2.211c0.607-0.624,1.33-1.11,2.17-1.46c0.84-0.35,1.762-0.525,2.766-0.525
			c1.002,0,1.918,0.179,2.748,0.539c0.832,0.358,1.551,0.851,2.156,1.474c0.605,0.625,1.078,1.366,1.418,2.225
			c0.34,0.861,0.51,1.792,0.51,2.794c0,0.983-0.17,1.899-0.51,2.75s-0.812,1.587-1.418,2.212c-0.605,0.623-1.324,1.11-2.156,1.46
			C237.475,453.333,236.559,453.507,235.557,453.507z M235.557,452.316c0.793,0,1.521-0.146,2.184-0.44
			c0.658-0.292,1.238-0.694,1.729-1.205c0.492-0.51,0.871-1.12,1.148-1.828c0.273-0.709,0.41-1.469,0.41-2.282
			c0-0.832-0.137-1.603-0.41-2.31c-0.277-0.709-0.654-1.324-1.135-1.843c-0.482-0.521-1.059-0.932-1.73-1.234
			c-0.668-0.301-1.402-0.454-2.195-0.454c-0.795,0-1.529,0.148-2.197,0.441c-0.672,0.292-1.252,0.699-1.744,1.218
			c-0.492,0.521-0.873,1.129-1.148,1.829c-0.273,0.699-0.412,1.464-0.412,2.296c0,0.812,0.139,1.574,0.412,2.282
			c0.275,0.708,0.656,1.329,1.148,1.858s1.072,0.941,1.744,1.232C234.028,452.171,234.762,452.316,235.557,452.316z"/>
		<path fill="#3093CC" d="M249.42,453.507c-1.189,0-2.18-0.157-2.963-0.468c-0.787-0.312-1.385-0.677-1.803-1.092
			c-0.244-0.245-0.412-0.453-0.51-0.623c-0.094-0.171-0.141-0.331-0.141-0.483c0-0.149,0.037-0.272,0.115-0.367
			c0.074-0.095,0.156-0.17,0.24-0.227c0.084-0.057,0.164-0.094,0.24-0.113c0.076-0.019,0.123-0.028,0.143-0.028
			c0.412,0.642,1.004,1.18,1.773,1.614c0.764,0.436,1.75,0.653,2.959,0.653c1.23,0,2.18-0.246,2.85-0.738
			c0.672-0.491,1.006-1.114,1.006-1.871c0-0.454-0.096-0.826-0.297-1.12c-0.197-0.292-0.48-0.533-0.85-0.724
			c-0.371-0.188-0.809-0.349-1.318-0.481c-0.51-0.132-1.076-0.263-1.699-0.397c-0.551-0.114-1.107-0.24-1.674-0.382
			c-0.566-0.141-1.078-0.345-1.533-0.609c-0.453-0.264-0.826-0.605-1.117-1.021c-0.295-0.415-0.439-0.954-0.439-1.617
			c0-0.567,0.121-1.091,0.369-1.573c0.242-0.483,0.584-0.894,1.018-1.234c0.438-0.34,0.961-0.604,1.574-0.794
			c0.613-0.188,1.301-0.283,2.057-0.283c1.057,0,1.943,0.147,2.666,0.44c0.717,0.292,1.275,0.637,1.672,1.034
			c0.34,0.341,0.508,0.671,0.508,0.993c0,0.133-0.037,0.251-0.113,0.354c-0.074,0.105-0.152,0.184-0.24,0.242
			c-0.084,0.056-0.164,0.095-0.24,0.113c-0.074,0.019-0.121,0.019-0.141,0c-0.34-0.585-0.869-1.072-1.588-1.459
			c-0.721-0.388-1.559-0.582-2.523-0.582c-1.174,0-2.084,0.242-2.738,0.722c-0.65,0.483-0.977,1.092-0.977,1.83
			c0,0.416,0.094,0.765,0.283,1.049c0.189,0.283,0.459,0.52,0.809,0.708c0.35,0.188,0.777,0.351,1.277,0.481
			c0.5,0.132,1.051,0.266,1.658,0.397c0.566,0.114,1.141,0.246,1.727,0.398c0.586,0.151,1.117,0.363,1.588,0.638
			c0.475,0.274,0.861,0.622,1.164,1.048c0.301,0.425,0.455,0.968,0.455,1.63c0,1.174-0.469,2.123-1.406,2.849
			C252.324,453.144,251.043,453.507,249.42,453.507z"/>
		<path fill="#3093CC" d="M261.698,453.507c-1.191,0-2.18-0.157-2.965-0.468c-0.783-0.312-1.385-0.677-1.799-1.092
			c-0.246-0.245-0.416-0.453-0.512-0.623c-0.094-0.171-0.141-0.331-0.141-0.483c0-0.149,0.037-0.272,0.113-0.367
			c0.076-0.095,0.154-0.17,0.242-0.227c0.082-0.057,0.164-0.094,0.238-0.113c0.074-0.019,0.123-0.028,0.141-0.028
			c0.416,0.642,1.008,1.18,1.773,1.614c0.768,0.436,1.754,0.653,2.963,0.653c1.229,0,2.18-0.246,2.85-0.738
			c0.672-0.491,1.008-1.114,1.008-1.871c0-0.454-0.1-0.826-0.299-1.12c-0.197-0.292-0.48-0.533-0.85-0.724
			c-0.369-0.188-0.811-0.349-1.32-0.481c-0.508-0.132-1.074-0.263-1.699-0.397c-0.547-0.114-1.105-0.24-1.672-0.382
			c-0.568-0.141-1.08-0.345-1.535-0.609c-0.449-0.264-0.824-0.605-1.117-1.021s-0.439-0.954-0.439-1.617
			c0-0.567,0.123-1.091,0.369-1.573c0.246-0.483,0.584-0.894,1.02-1.234c0.436-0.34,0.959-0.604,1.572-0.794
			c0.615-0.188,1.301-0.283,2.059-0.283c1.057,0,1.945,0.147,2.664,0.44c0.717,0.292,1.275,0.637,1.674,1.034
			c0.34,0.341,0.51,0.671,0.51,0.993c0,0.133-0.039,0.251-0.115,0.354c-0.074,0.105-0.154,0.184-0.24,0.242
			c-0.086,0.056-0.166,0.095-0.242,0.113c-0.074,0.019-0.123,0.019-0.139,0c-0.342-0.585-0.871-1.072-1.592-1.459
			c-0.717-0.388-1.557-0.582-2.52-0.582c-1.172,0-2.084,0.242-2.738,0.722c-0.65,0.483-0.977,1.092-0.977,1.83
			c0,0.416,0.092,0.765,0.283,1.049c0.189,0.283,0.457,0.52,0.807,0.708c0.352,0.188,0.775,0.351,1.277,0.481
			c0.502,0.132,1.053,0.266,1.66,0.397c0.564,0.114,1.141,0.246,1.727,0.398c0.586,0.151,1.115,0.363,1.588,0.638
			c0.475,0.274,0.859,0.622,1.162,1.048c0.303,0.425,0.455,0.968,0.455,1.63c0,1.174-0.469,2.123-1.404,2.849
			C264.602,453.144,263.321,453.507,261.698,453.507z"/>
	</g>
	<g>
		<path fill="#3093CC" d="M88.641,470.119v-10.752c0-0.928,0.454-1.383,1.279-1.383h0.453c0.867,0,1.322,0.455,1.322,1.383v4.065
			h5.778v-4.065c0-0.928,0.454-1.383,1.28-1.383h0.433c0.888,0,1.342,0.455,1.342,1.383v10.752c0,0.909-0.454,1.383-1.342,1.383
			h-0.433c-0.826,0-1.28-0.474-1.28-1.383v-4.106h-5.778v4.106c0,0.909-0.455,1.383-1.322,1.383H89.92
			C89.094,471.502,88.641,471.028,88.641,470.119z"/>
		<path fill="#3093CC" d="M107.626,469.562c1.528,0,2.373-0.681,2.848-1.486c0.021-0.04,1.404,0.145,1.404,1.321
			c0,1.073-1.548,2.29-4.354,2.29c-3.282,0-5.448-2.042-5.448-5.221c0-3.075,2.208-5.345,5.262-5.345
			c2.971,0,5.015,2.084,5.015,5.035v0.207c-0.021,0.516-0.166,0.805-0.703,0.805h-6.933
			C104.923,468.675,106.058,469.562,107.626,469.562z M109.648,465.477c-0.062-1.404-0.949-2.332-2.353-2.332
			c-1.362,0-2.394,0.969-2.579,2.332H109.648z"/>
		<path fill="#3093CC" d="M117.986,463.31c-1.403,0-2.126,0.763-2.498,1.547c0,0.042-1.877,0.104-1.877-1.238
			c0-1.259,1.486-2.497,4.561-2.497c3.178,0,4.746,1.445,4.746,4.148v5.964c0,0.145-0.537,0.331-1.094,0.331
			c-0.908,0-1.547-0.496-1.713-1.609c-0.723,1.053-1.98,1.691-3.487,1.691c-2.105,0-3.384-1.196-3.384-2.91
			c0-2.312,2.062-3.364,6.479-3.425h0.331C120.051,464.011,119.327,463.31,117.986,463.31z M120.051,467.479V466.9l-0.537,0.021
			c-2.291,0.062-3.488,0.516-3.488,1.609c0,0.742,0.599,1.217,1.569,1.217C119.039,469.748,120.051,468.799,120.051,467.479z"/>
		<path fill="#3093CC" d="M124.9,470.119v-12.712c0-0.103,0.516-0.33,1.094-0.33c0.867,0,1.815,0.454,1.815,2.331v10.711
			c0,1.053-0.537,1.383-1.279,1.383h-0.31C125.457,471.502,124.9,471.192,124.9,470.119z"/>
		<path fill="#3093CC" d="M130.285,463.619c-0.826,0-1.217-0.352-1.217-1.011v-0.186c0-0.701,0.392-1.073,1.217-1.073h0.496v-1.279
			c0-0.95,0.495-1.403,1.32-1.403h0.249c0.784,0,1.299,0.331,1.299,1.403v1.279h1.754c0.826,0,1.176,0.351,1.176,1.032v0.166
			c0,0.701-0.372,1.073-1.218,1.073h-1.774v4.292c0,0.99,0.33,1.486,1.114,1.486c0.599,0,0.991-0.289,1.3-0.682
			c0.042-0.062,0.703,0.33,0.703,1.136c0,1.011-1.012,1.836-2.662,1.836c-2.229,0-3.261-1.176-3.261-3.446v-4.623H130.285z"/>
		<path fill="#3093CC" d="M144.113,461.122c2.641,0,3.755,1.898,3.755,4.251v4.746c0,1.053-0.537,1.383-1.279,1.383h-0.311
			c-0.783,0-1.32-0.31-1.32-1.383v-4.333c0-1.403-0.702-2.229-1.858-2.229c-1.361,0-2.228,0.909-2.228,2.353v4.209
			c0,1.053-0.536,1.383-1.279,1.383h-0.31c-0.784,0-1.321-0.31-1.321-1.383v-12.712c0-0.103,0.516-0.33,1.094-0.33
			c0.866,0,1.816,0.454,1.816,2.331v3.529C141.513,461.885,142.565,461.122,144.113,461.122z"/>
		<path fill="#3093CC" d="M152.492,469.005c0-0.846,1.052-1.609,1.155-1.526c0.804,0.969,2.331,1.836,3.982,1.836
			c1.589,0,2.435-0.599,2.435-1.63c0-1.198-1.34-1.383-2.91-1.734c-2.146-0.474-4.332-1.299-4.332-4.023
			c0-2.477,2.001-4.128,5.199-4.128c3.24,0,4.809,1.3,4.809,2.436c0,0.95-1.156,1.651-1.217,1.589
			c-0.785-0.929-2.127-1.651-3.551-1.651c-1.464,0-2.311,0.619-2.311,1.59c0,1.155,1.196,1.258,2.848,1.63
			c2.414,0.537,4.52,1.548,4.52,4.065c0,2.662-1.939,4.23-5.469,4.23C154.102,471.688,152.492,470.223,152.492,469.005z"/>
		<path fill="#3093CC" d="M164.049,466.405c0-3.117,2.207-5.283,5.406-5.283c3.178,0,5.344,2.166,5.344,5.303
			c0,3.137-2.166,5.262-5.385,5.262C166.215,471.688,164.049,469.562,164.049,466.405z M172.241,466.425
			c0-1.754-1.177-3.033-2.808-3.033c-1.629,0-2.826,1.259-2.826,3.013c0,1.732,1.197,2.992,2.826,2.992
			C171.043,469.397,172.241,468.138,172.241,466.425z"/>
		<path fill="#3093CC" d="M175.73,466.405c0-3.075,2.229-5.263,5.302-5.263c3.076,0,4.293,1.775,4.293,2.724
			c0,1.177-1.547,1.383-1.609,1.279c-0.391-0.969-1.135-1.671-2.559-1.671c-1.59,0-2.744,1.218-2.744,2.931
			c0,1.712,1.154,2.951,2.744,2.951c1.383,0,2.168-0.702,2.559-1.671c0.041-0.104,1.609,0.062,1.609,1.3
			c0,0.95-1.279,2.703-4.293,2.703C177.916,471.688,175.73,469.5,175.73,466.405z"/>
		<path fill="#3093CC" d="M186.582,458.191c0-0.908,0.619-1.465,1.633-1.465c1.012,0,1.609,0.536,1.609,1.465
			s-0.598,1.486-1.609,1.486C187.201,459.677,186.582,459.12,186.582,458.191z M186.748,470.119v-7.47
			c0-1.053,0.559-1.404,1.303-1.404h0.309c0.783,0,1.299,0.33,1.299,1.404v7.47c0,1.053-0.537,1.383-1.279,1.383h-0.309
			C187.307,471.502,186.748,471.192,186.748,470.119z"/>
		<path fill="#3093CC" d="M196.737,469.562c1.527,0,2.375-0.681,2.848-1.486c0.021-0.04,1.404,0.145,1.404,1.321
			c0,1.073-1.547,2.29-4.354,2.29c-3.283,0-5.449-2.042-5.449-5.221c0-3.075,2.209-5.345,5.262-5.345
			c2.973,0,5.016,2.084,5.016,5.035v0.207c-0.02,0.516-0.164,0.805-0.701,0.805h-6.934
			C194.035,468.675,195.17,469.562,196.737,469.562z M198.758,465.477c-0.061-1.404-0.947-2.332-2.352-2.332
			c-1.361,0-2.393,0.969-2.578,2.332H198.758z"/>
		<path fill="#3093CC" d="M203.233,463.619c-0.824,0-1.217-0.352-1.217-1.011v-0.186c0-0.701,0.393-1.073,1.217-1.073h0.496v-1.279
			c0-0.95,0.496-1.403,1.322-1.403h0.248c0.783,0,1.299,0.331,1.299,1.403v1.279h1.754c0.824,0,1.178,0.351,1.178,1.032v0.166
			c0,0.701-0.373,1.073-1.217,1.073h-1.777v4.292c0,0.99,0.33,1.486,1.115,1.486c0.598,0,0.99-0.289,1.301-0.682
			c0.041-0.062,0.701,0.33,0.701,1.136c0,1.011-1.012,1.836-2.662,1.836c-2.229,0-3.262-1.176-3.262-3.446v-4.623H203.233z"/>
		<path fill="#3093CC" d="M212.664,474.578l1.672-3.798c-0.477-0.062-0.764-0.227-0.951-0.64l-3.467-8.048
			c-0.062-0.166,0.701-0.847,1.59-0.847c0.68,0,1.258,0.31,1.631,1.444l2.186,5.758l1.939-5.737
			c0.352-1.136,0.971-1.465,1.609-1.465c0.826,0,1.633,0.66,1.57,0.806l-4.582,11.907c-0.432,1.094-1.012,1.424-1.65,1.424
			C213.365,475.382,212.582,474.721,212.664,474.578z"/>
	</g>
	<path fill="#3093CC" d="M156.073,1045.818c0.17,1.569,1.496,2.794,3.111,2.801l0,0c0.006,0,0.011,0.004,0.011,0.01
		s-0.005,0.011-0.011,0.011l0,0l0,0c-1.728,0.007-3.125,1.406-3.131,3.134l0,0c0,0.006-0.005,0.01-0.011,0.01
		c-0.005,0-0.011-0.004-0.011-0.01l0,0c-0.005-1.729-1.405-3.13-3.136-3.134l0,0c-0.005,0-0.011-0.005-0.011-0.011
		s0.006-0.011,0.011-0.011l0,0c1.669-0.004,3.03-1.307,3.13-2.951v-10.006h-13.204v10.157h-10.157v13.203h10.157v10.156h13.204
		v-4.344l0,0l0,0c-0.012-3.185-2.59-5.764-5.777-5.771v-0.001c-0.01,0-0.019-0.008-0.019-0.02c0-0.01,0.009-0.02,0.019-0.02l0,0
		c3.188-0.007,5.766-2.585,5.777-5.771l0,0c0.001-0.011,0.009-0.019,0.02-0.019c0.01,0,0.019,0.008,0.019,0.019l0,0v0.001l0,0
		c0.012,3.151,2.538,5.708,5.679,5.768h4.44v-13.203H156.073z M154.501,1053.635L154.501,1053.635L154.501,1053.635
		c-1.729,0.008-3.126,1.407-3.132,3.135l0,0c0,0.005-0.004,0.01-0.01,0.01s-0.011-0.005-0.011-0.01l0,0
		c-0.006-1.729-1.406-3.13-3.136-3.134v-0.001c-0.006,0-0.01-0.004-0.01-0.01s0.004-0.011,0.01-0.011l0,0
		c1.73-0.004,3.13-1.404,3.136-3.134l0,0c0-0.005,0.005-0.01,0.011-0.01c0.005,0,0.01,0.005,0.01,0.01c0,0,0,0,0,0.001l0,0
		c0.006,1.728,1.404,3.126,3.131,3.133h0.001c0.005,0,0.01,0.005,0.01,0.011S154.506,1053.635,154.501,1053.635z M163.867,1053.635
		L163.867,1053.635L163.867,1053.635c-1.729,0.008-3.125,1.407-3.131,3.135l0,0c0,0.005-0.005,0.01-0.011,0.01
		c-0.005,0-0.011-0.005-0.011-0.01l0,0c-0.006-1.729-1.405-3.13-3.137-3.134v-0.001c-0.005,0-0.01-0.004-0.01-0.01
		s0.005-0.011,0.01-0.011l0,0c1.73-0.004,3.131-1.404,3.137-3.134l0,0c0.001-0.005,0.006-0.01,0.011-0.01
		c0.006,0,0.01,0.005,0.011,0.01c0,0,0,0,0,0.001l0,0c0.006,1.728,1.403,3.126,3.131,3.133l0,0c0.006,0,0.011,0.005,0.011,0.011
		S163.873,1053.635,163.867,1053.635z"/>
	<path fill="#3093CC" d="M81.403,740.303c0.23,2.117,2.019,3.767,4.195,3.775l0,0c0.009,0,0.015,0.006,0.015,0.014
		s-0.006,0.015-0.015,0.015l0,0l0,0c-2.329,0.009-4.212,1.896-4.222,4.224l0,0c0,0.009-0.005,0.015-0.014,0.015
		c-0.007,0-0.013-0.006-0.013-0.015l0,0c-0.009-2.33-1.896-4.219-4.229-4.223v-0.001c-0.008,0-0.014-0.007-0.014-0.015
		s0.006-0.014,0.014-0.014l0,0c2.249-0.004,4.085-1.762,4.22-3.979v-13.488H63.542v13.691H49.849v17.799h13.693v13.692h17.799
		v-5.856l0,0l0,0c-0.016-4.293-3.491-7.77-7.787-7.779l0,0c-0.015,0-0.027-0.012-0.027-0.027c0-0.014,0.013-0.025,0.027-0.025l0,0
		c4.295-0.01,7.771-3.486,7.787-7.78l0,0c0-0.014,0.012-0.024,0.025-0.024s0.025,0.011,0.025,0.024l0,0v0.001l0,0
		c0.016,4.25,3.421,7.695,7.654,7.775h5.986v-17.799H81.403z M79.284,750.841L79.284,750.841L79.284,750.841
		c-2.329,0.01-4.213,1.896-4.221,4.225v0.001c0,0.007-0.006,0.013-0.014,0.013s-0.014-0.006-0.014-0.013l0,0
		c-0.009-2.332-1.896-4.219-4.229-4.225v-0.001c-0.008,0-0.014-0.006-0.014-0.014s0.006-0.015,0.014-0.015l0,0
		c2.332-0.005,4.22-1.893,4.229-4.223l0,0c0-0.009,0.006-0.015,0.014-0.015s0.014,0.006,0.014,0.015l0,0l0,0
		c0.008,2.328,1.893,4.215,4.221,4.223l0,0c0.008,0,0.014,0.007,0.014,0.015S79.292,750.841,79.284,750.841z M91.911,750.841
		L91.911,750.841L91.911,750.841c-2.329,0.01-4.213,1.896-4.221,4.225v0.001c0,0.007-0.006,0.013-0.014,0.013
		s-0.014-0.006-0.014-0.013l0,0c-0.008-2.332-1.896-4.219-4.229-4.225v-0.001c-0.008,0-0.014-0.006-0.014-0.014
		s0.006-0.015,0.014-0.015l0,0c2.332-0.005,4.22-1.893,4.229-4.223l0,0c0-0.009,0.006-0.015,0.014-0.015s0.013,0.006,0.014,0.015
		l0,0l0,0c0.008,2.328,1.893,4.215,4.221,4.223l0,0c0.008,0,0.014,0.007,0.014,0.015S91.919,750.841,91.911,750.841z"/>
	<g>
		<path fill="#3093CC" d="M106.449,757.57c-1.222,0-2.263-0.174-3.12-0.522c-0.858-0.349-1.524-0.768-2-1.261
			c-0.289-0.289-0.496-0.565-0.625-0.828c-0.127-0.264-0.189-0.487-0.189-0.676c0-0.135,0.038-0.254,0.114-0.355
			c0.075-0.103,0.157-0.187,0.242-0.254c0.085-0.069,0.169-0.116,0.254-0.141c0.085-0.026,0.136-0.03,0.153-0.014
			c0.17,0.373,0.399,0.735,0.688,1.082c0.289,0.349,0.642,0.663,1.059,0.942c0.415,0.281,0.907,0.507,1.477,0.676
			c0.568,0.171,1.211,0.254,1.924,0.254c1.359,0,2.424-0.301,3.197-0.903c0.771-0.603,1.158-1.422,1.158-2.458
			c0-0.594-0.131-1.092-0.395-1.49c-0.264-0.399-0.611-0.73-1.044-0.993c-0.433-0.264-0.935-0.477-1.503-0.639
			c-0.57-0.16-1.168-0.318-1.797-0.471c-0.629-0.151-1.248-0.327-1.859-0.521c-0.611-0.195-1.158-0.459-1.643-0.791
			c-0.484-0.33-0.871-0.75-1.16-1.261c-0.289-0.509-0.433-1.153-0.433-1.936c0-0.646,0.136-1.239,0.407-1.783s0.65-1.01,1.134-1.402
			c0.485-0.389,1.049-0.695,1.694-0.916c0.646-0.22,1.351-0.331,2.115-0.331c1.12,0,2.066,0.161,2.84,0.483
			c0.771,0.323,1.371,0.688,1.797,1.096c0.475,0.509,0.713,0.952,0.713,1.325c0,0.136-0.039,0.259-0.115,0.37
			c-0.076,0.109-0.158,0.194-0.242,0.254s-0.17,0.106-0.254,0.14c-0.086,0.034-0.137,0.043-0.153,0.026
			c-0.153-0.34-0.36-0.668-0.624-0.981c-0.264-0.314-0.586-0.59-0.968-0.827c-0.382-0.238-0.82-0.431-1.312-0.573
			c-0.493-0.144-1.044-0.217-1.655-0.217c-0.596,0-1.146,0.076-1.656,0.229s-0.947,0.374-1.312,0.662
			c-0.365,0.29-0.65,0.637-0.854,1.045s-0.306,0.866-0.306,1.376c0,0.561,0.114,1.023,0.345,1.389
			c0.229,0.365,0.543,0.67,0.942,0.916c0.399,0.247,0.869,0.446,1.413,0.599c0.544,0.153,1.138,0.307,1.783,0.46
			c0.663,0.151,1.312,0.335,1.949,0.547c0.637,0.213,1.211,0.492,1.72,0.841s0.917,0.786,1.222,1.313
			c0.308,0.526,0.459,1.188,0.459,1.985c0,0.68-0.131,1.3-0.395,1.86c-0.264,0.56-0.641,1.036-1.133,1.427
			c-0.494,0.392-1.079,0.695-1.758,0.917C108.064,757.46,107.299,757.57,106.449,757.57z"/>
		<path fill="#3093CC" d="M119.978,757.57c-0.901,0-1.729-0.161-2.484-0.483c-0.756-0.321-1.405-0.765-1.948-1.326
			c-0.544-0.56-0.968-1.222-1.274-1.986c-0.307-0.764-0.458-1.598-0.458-2.497s0.151-1.731,0.458-2.496s0.73-1.427,1.274-1.987
			c0.543-0.561,1.192-0.997,1.948-1.312c0.756-0.313,1.583-0.472,2.484-0.472c0.899,0,1.723,0.161,2.471,0.483
			c0.747,0.323,1.393,0.765,1.937,1.325c0.543,0.561,0.967,1.228,1.274,1.999c0.305,0.773,0.457,1.609,0.457,2.511
			c0,0.883-0.152,1.706-0.457,2.471c-0.308,0.765-0.731,1.426-1.274,1.987c-0.544,0.561-1.189,0.998-1.937,1.312
			C121.7,757.414,120.877,757.57,119.978,757.57z M119.978,756.5c0.713,0,1.366-0.131,1.961-0.395
			c0.594-0.263,1.113-0.624,1.554-1.083c0.442-0.458,0.786-1.006,1.032-1.644c0.246-0.637,0.369-1.319,0.369-2.05
			c0-0.747-0.123-1.44-0.369-2.076c-0.246-0.638-0.586-1.189-1.02-1.657c-0.432-0.467-0.951-0.836-1.553-1.107
			c-0.604-0.271-1.262-0.408-1.975-0.408s-1.372,0.133-1.975,0.396c-0.604,0.263-1.125,0.628-1.566,1.095s-0.786,1.015-1.031,1.644
			c-0.247,0.628-0.371,1.315-0.371,2.062c0,0.73,0.124,1.415,0.371,2.051c0.245,0.637,0.59,1.194,1.031,1.67
			c0.441,0.475,0.963,0.845,1.566,1.107C118.606,756.369,119.265,756.5,119.978,756.5z"/>
		<path fill="#3093CC" d="M133.275,757.57c-0.798,0-1.498-0.128-2.101-0.383c-0.604-0.254-1.104-0.619-1.503-1.094
			c-0.399-0.477-0.701-1.042-0.906-1.695c-0.203-0.653-0.305-1.388-0.305-2.204v-6.419c0-0.238,0.051-0.395,0.152-0.472
			c0.103-0.076,0.229-0.115,0.383-0.115h0.152c0.152,0,0.28,0.039,0.383,0.115c0.102,0.077,0.152,0.233,0.152,0.472v6.343
			c0,1.324,0.314,2.373,0.943,3.146c0.627,0.773,1.536,1.159,2.725,1.159c1.02,0,1.889-0.255,2.611-0.765s1.27-1.188,1.644-2.037
			v-7.847c0-0.238,0.05-0.395,0.153-0.472c0.102-0.076,0.229-0.115,0.382-0.115h0.153c0.152,0,0.28,0.039,0.381,0.115
			c0.103,0.077,0.153,0.233,0.153,0.472v11.489c0,0.018-0.042,0.043-0.127,0.076c-0.085,0.034-0.188,0.052-0.307,0.052
			c-0.204,0-0.382-0.081-0.534-0.243c-0.152-0.16-0.229-0.487-0.229-0.98v-1.097c-0.409,0.715-0.981,1.309-1.721,1.783
			C135.173,757.332,134.294,757.57,133.275,757.57z"/>
		<path fill="#3093CC" d="M145.987,757.57c-1.069,0-1.864-0.306-2.382-0.917s-0.777-1.554-0.777-2.828v-7.465h-1.477
			c-0.238,0-0.395-0.041-0.472-0.127c-0.077-0.085-0.114-0.204-0.114-0.357v-0.126c0-0.153,0.037-0.271,0.114-0.357
			c0.077-0.085,0.233-0.128,0.472-0.128h1.477v-2.343c0-0.238,0.051-0.399,0.152-0.483c0.103-0.086,0.23-0.128,0.383-0.128h0.152
			c0.153,0,0.275,0.042,0.371,0.128c0.092,0.084,0.139,0.245,0.139,0.483v2.343h3.49c0.238,0,0.399,0.043,0.484,0.128
			c0.085,0.086,0.127,0.204,0.127,0.357v0.126c0,0.153-0.042,0.272-0.127,0.357c-0.085,0.086-0.246,0.127-0.484,0.127h-3.49v7.338
			c0,1.001,0.158,1.725,0.472,2.165c0.314,0.441,0.827,0.662,1.542,0.662c0.44,0,0.822-0.093,1.146-0.279
			c0.322-0.188,0.594-0.442,0.814-0.765c0.034-0.016,0.11,0.021,0.229,0.113c0.118,0.095,0.178,0.26,0.178,0.499
			c0,0.102-0.03,0.22-0.089,0.355c-0.06,0.136-0.166,0.271-0.318,0.406c-0.187,0.204-0.445,0.375-0.776,0.511
			C146.891,757.503,146.479,757.57,145.987,757.57z"/>
		<path fill="#3093CC" d="M150.443,757.276c-0.101-0.075-0.152-0.232-0.152-0.471v-16.635c0-0.017,0.039-0.043,0.116-0.077
			c0.075-0.034,0.173-0.051,0.292-0.051c0.221,0,0.412,0.077,0.573,0.229c0.161,0.153,0.242,0.477,0.242,0.969v6.395
			c0.356-0.781,0.909-1.413,1.655-1.898c0.748-0.483,1.623-0.726,2.625-0.726c0.815,0,1.523,0.127,2.127,0.382
			s1.109,0.62,1.516,1.096c0.407,0.475,0.713,1.04,0.918,1.693c0.203,0.655,0.306,1.389,0.306,2.205v6.419
			c0,0.238-0.052,0.396-0.153,0.471c-0.102,0.077-0.23,0.116-0.383,0.116h-0.152c-0.152,0-0.281-0.039-0.383-0.116
			c-0.102-0.075-0.152-0.232-0.152-0.471v-6.343c0-1.342-0.318-2.395-0.955-3.159c-0.638-0.765-1.559-1.146-2.764-1.146
			c-0.612,0-1.172,0.102-1.682,0.306s-0.951,0.489-1.325,0.854c-0.374,0.366-0.667,0.806-0.878,1.324
			c-0.214,0.52-0.319,1.101-0.319,1.746v6.419c0,0.238-0.05,0.396-0.153,0.471c-0.102,0.077-0.229,0.116-0.382,0.116h-0.151
			C150.674,757.393,150.546,757.354,150.443,757.276z"/>
		<path fill="#3093CC" d="M164.595,753.481c0.246,0.619,0.59,1.154,1.031,1.605c0.441,0.449,0.965,0.798,1.567,1.044
			s1.261,0.369,1.974,0.369c0.628,0,1.177-0.072,1.645-0.217c0.467-0.144,0.873-0.331,1.222-0.56
			c0.349-0.23,0.637-0.489,0.866-0.777c0.23-0.289,0.421-0.586,0.573-0.892c0.018-0.017,0.065-0.017,0.14,0
			c0.077,0.017,0.158,0.055,0.243,0.114c0.083,0.06,0.161,0.138,0.229,0.229c0.067,0.093,0.103,0.216,0.103,0.37
			c0,0.135-0.06,0.318-0.178,0.548c-0.121,0.228-0.316,0.479-0.587,0.75c-0.374,0.375-0.921,0.719-1.644,1.033
			s-1.592,0.471-2.611,0.471c-0.916,0-1.758-0.156-2.521-0.471c-0.765-0.314-1.414-0.747-1.949-1.3
			c-0.535-0.551-0.951-1.211-1.247-1.975c-0.298-0.765-0.446-1.597-0.446-2.496c0-0.901,0.152-1.737,0.459-2.511
			c0.306-0.771,0.726-1.438,1.261-1.999c0.534-0.561,1.167-1.002,1.897-1.325c0.73-0.322,1.528-0.483,2.395-0.483
			c0.831,0,1.589,0.14,2.268,0.42c0.678,0.28,1.262,0.681,1.745,1.197c0.483,0.52,0.856,1.139,1.12,1.86s0.396,1.523,0.396,2.407
			v0.127c0,0.188-0.043,0.307-0.128,0.357c-0.084,0.051-0.221,0.075-0.406,0.075H164.2
			C164.216,752.188,164.349,752.861,164.595,753.481z M173.269,750.411c-0.018-0.645-0.135-1.231-0.355-1.758
			c-0.222-0.526-0.514-0.98-0.88-1.363c-0.365-0.381-0.806-0.678-1.324-0.892c-0.519-0.212-1.083-0.318-1.694-0.318
			c-0.629,0-1.211,0.106-1.744,0.318c-0.537,0.214-1.012,0.511-1.428,0.892c-0.416,0.383-0.76,0.841-1.031,1.376
			s-0.451,1.118-0.535,1.745H173.269z"/>
		<path fill="#3093CC" d="M176.938,756.806v-11.489c0-0.017,0.038-0.042,0.116-0.077c0.074-0.033,0.172-0.051,0.291-0.051
			c0.221,0,0.408,0.082,0.562,0.242c0.153,0.162,0.228,0.488,0.228,0.981v1.528c0.256-1.02,0.668-1.762,1.237-2.229
			c0.567-0.467,1.261-0.7,2.076-0.7c0.491,0,0.899,0.093,1.222,0.279c0.323,0.188,0.485,0.435,0.485,0.739
			c0,0.239-0.052,0.408-0.153,0.51c-0.102,0.103-0.17,0.146-0.204,0.128c-0.169-0.136-0.377-0.251-0.624-0.344
			c-0.246-0.095-0.521-0.141-0.828-0.141c-1.087,0-1.891,0.492-2.407,1.477c-0.519,0.985-0.776,2.294-0.776,3.924v5.223
			c0,0.221-0.051,0.374-0.153,0.459c-0.102,0.085-0.229,0.128-0.382,0.128h-0.128C177.124,757.393,176.938,757.197,176.938,756.806z
			"/>
		<path fill="#3093CC" d="M185.191,757.276c-0.102-0.075-0.152-0.232-0.152-0.471v-11.489c0-0.017,0.039-0.042,0.115-0.077
			c0.076-0.033,0.175-0.051,0.292-0.051c0.222,0,0.409,0.082,0.562,0.242c0.152,0.162,0.229,0.488,0.229,0.981v1.095
			c0.389-0.713,0.954-1.307,1.692-1.782c0.739-0.476,1.619-0.714,2.638-0.714c0.797,0,1.499,0.127,2.102,0.382
			c0.604,0.255,1.107,0.62,1.515,1.096c0.409,0.475,0.715,1.04,0.919,1.693c0.203,0.655,0.306,1.389,0.306,2.205v6.419
			c0,0.238-0.052,0.396-0.154,0.471c-0.1,0.077-0.229,0.116-0.383,0.116h-0.152c-0.151,0-0.279-0.039-0.381-0.116
			c-0.103-0.075-0.154-0.232-0.154-0.471v-6.343c0-1.324-0.313-2.373-0.942-3.146c-0.628-0.772-1.536-1.159-2.725-1.159
			c-1.02,0-1.89,0.255-2.611,0.764c-0.722,0.51-1.27,1.189-1.644,2.038v7.847c0,0.238-0.051,0.396-0.152,0.471
			c-0.102,0.077-0.229,0.116-0.383,0.116h-0.152C185.42,757.393,185.294,757.354,185.191,757.276z"/>
		<path fill="#3093CC" d="M210.411,757.57c-1.223,0-2.336-0.208-3.339-0.624c-1.001-0.416-1.857-0.999-2.572-1.745
			c-0.713-0.747-1.266-1.638-1.655-2.676c-0.392-1.035-0.586-2.173-0.586-3.413c0-1.239,0.198-2.382,0.599-3.428
			c0.398-1.043,0.958-1.943,1.682-2.699c0.722-0.755,1.584-1.345,2.585-1.771c1.002-0.425,2.104-0.637,3.312-0.637
			c1.291,0,2.368,0.2,3.236,0.599c0.865,0.399,1.544,0.846,2.037,1.338c0.289,0.289,0.506,0.577,0.65,0.866
			c0.144,0.288,0.217,0.518,0.217,0.688c0,0.169-0.036,0.306-0.102,0.407c-0.068,0.102-0.149,0.182-0.243,0.242
			c-0.093,0.06-0.179,0.098-0.255,0.115c-0.076,0.017-0.124,0.017-0.14,0c-0.441-0.918-1.144-1.673-2.102-2.269
			c-0.96-0.594-2.076-0.891-3.351-0.891c-1.002,0-1.919,0.183-2.751,0.548c-0.832,0.366-1.55,0.879-2.152,1.541
			c-0.604,0.662-1.07,1.449-1.401,2.356c-0.33,0.908-0.497,1.897-0.497,2.968s0.167,2.056,0.497,2.955
			c0.331,0.899,0.797,1.678,1.401,2.33c0.603,0.654,1.328,1.168,2.177,1.541c0.851,0.374,1.784,0.561,2.805,0.561
			c0.763,0,1.45-0.097,2.062-0.292c0.611-0.194,1.152-0.458,1.618-0.789c0.467-0.332,0.858-0.709,1.172-1.134
			c0.314-0.425,0.547-0.866,0.7-1.325c0.018-0.017,0.067-0.017,0.152,0c0.086,0.017,0.18,0.051,0.281,0.102
			c0.102,0.052,0.193,0.132,0.28,0.242c0.084,0.11,0.126,0.242,0.126,0.396c0,0.185-0.088,0.468-0.267,0.841
			s-0.464,0.746-0.853,1.12c-0.493,0.492-1.19,0.938-2.091,1.337C212.745,757.371,211.666,757.57,210.411,757.57z"/>
		<path fill="#3093CC" d="M219.277,756.806v-11.489c0-0.017,0.037-0.042,0.114-0.077c0.076-0.033,0.174-0.051,0.293-0.051
			c0.22,0,0.407,0.082,0.561,0.242c0.152,0.162,0.229,0.488,0.229,0.981v1.528c0.256-1.02,0.667-1.762,1.236-2.229
			c0.568-0.467,1.262-0.7,2.075-0.7c0.493,0,0.899,0.093,1.224,0.279c0.323,0.188,0.485,0.435,0.485,0.739
			c0,0.239-0.052,0.408-0.154,0.51c-0.102,0.103-0.17,0.146-0.203,0.128c-0.17-0.136-0.378-0.251-0.624-0.344
			c-0.247-0.095-0.522-0.141-0.829-0.141c-1.087,0-1.89,0.492-2.406,1.477c-0.52,0.985-0.776,2.294-0.776,3.924v5.223
			c0,0.221-0.052,0.374-0.153,0.459c-0.103,0.085-0.229,0.128-0.383,0.128h-0.128C219.463,757.393,219.277,757.197,219.277,756.806z
			"/>
		<path fill="#3093CC" d="M232.523,757.57c-0.9,0-1.729-0.161-2.484-0.483c-0.755-0.321-1.404-0.765-1.948-1.326
			c-0.543-0.56-0.967-1.222-1.272-1.986c-0.308-0.764-0.459-1.598-0.459-2.497s0.151-1.731,0.459-2.496
			c0.306-0.765,0.729-1.427,1.272-1.987c0.544-0.561,1.193-0.997,1.948-1.312c0.756-0.313,1.584-0.472,2.484-0.472
			s1.724,0.161,2.471,0.483c0.748,0.323,1.394,0.765,1.938,1.325s0.968,1.228,1.273,1.999c0.306,0.773,0.458,1.609,0.458,2.511
			c0,0.883-0.152,1.706-0.458,2.471s-0.729,1.426-1.273,1.987c-0.544,0.561-1.189,0.998-1.938,1.312
			C234.246,757.414,233.423,757.57,232.523,757.57z M232.523,756.5c0.714,0,1.368-0.131,1.962-0.395
			c0.594-0.263,1.113-0.624,1.554-1.083c0.441-0.458,0.784-1.006,1.031-1.644c0.247-0.637,0.37-1.319,0.37-2.05
			c0-0.747-0.123-1.44-0.37-2.076c-0.247-0.638-0.585-1.189-1.017-1.657c-0.436-0.467-0.953-0.836-1.556-1.107
			c-0.603-0.271-1.261-0.408-1.975-0.408c-0.713,0-1.372,0.133-1.974,0.396c-0.603,0.263-1.125,0.628-1.566,1.095
			c-0.442,0.467-0.787,1.015-1.032,1.644c-0.246,0.628-0.37,1.315-0.37,2.062c0,0.73,0.124,1.415,0.37,2.051
			c0.245,0.637,0.59,1.194,1.032,1.67c0.441,0.475,0.964,0.845,1.566,1.107C231.151,756.369,231.81,756.5,232.523,756.5z"/>
		<path fill="#3093CC" d="M244.981,757.57c-1.07,0-1.958-0.141-2.663-0.421c-0.705-0.279-1.243-0.607-1.618-0.98
			c-0.22-0.222-0.373-0.408-0.459-0.56c-0.085-0.154-0.126-0.298-0.126-0.436c0-0.133,0.033-0.243,0.102-0.329
			c0.067-0.085,0.141-0.154,0.217-0.204c0.076-0.052,0.147-0.085,0.217-0.102c0.067-0.017,0.11-0.024,0.128-0.024
			c0.371,0.576,0.903,1.06,1.592,1.45c0.688,0.392,1.574,0.587,2.66,0.587c1.104,0,1.958-0.221,2.561-0.663
			c0.604-0.442,0.904-1.001,0.904-1.682c0-0.407-0.088-0.741-0.267-1.006c-0.178-0.263-0.432-0.479-0.764-0.651
			c-0.333-0.169-0.726-0.312-1.185-0.432c-0.458-0.119-0.968-0.236-1.528-0.357c-0.493-0.102-0.994-0.217-1.504-0.343
			c-0.509-0.128-0.968-0.31-1.376-0.548c-0.407-0.236-0.743-0.544-1.005-0.917c-0.265-0.373-0.395-0.856-0.395-1.453
			c0-0.509,0.108-0.98,0.331-1.413c0.22-0.434,0.526-0.802,0.915-1.108c0.392-0.305,0.864-0.543,1.415-0.714
			c0.551-0.169,1.168-0.254,1.848-0.254c0.95,0,1.748,0.132,2.395,0.396c0.645,0.263,1.146,0.572,1.502,0.929
			c0.306,0.307,0.458,0.604,0.458,0.893c0,0.119-0.033,0.225-0.102,0.317c-0.067,0.094-0.138,0.166-0.217,0.217
			c-0.075,0.051-0.147,0.085-0.216,0.102c-0.067,0.018-0.11,0.018-0.126,0c-0.307-0.525-0.782-0.963-1.428-1.312
			c-0.646-0.348-1.401-0.522-2.267-0.522c-1.055,0-1.872,0.218-2.459,0.65c-0.585,0.433-0.878,0.979-0.878,1.643
			c0,0.374,0.083,0.688,0.254,0.943c0.169,0.254,0.412,0.467,0.726,0.636c0.314,0.17,0.697,0.315,1.146,0.434
			c0.45,0.119,0.945,0.238,1.491,0.357c0.509,0.102,1.026,0.22,1.552,0.357c0.526,0.135,1.003,0.325,1.428,0.572
			c0.425,0.246,0.773,0.56,1.045,0.942c0.271,0.382,0.407,0.869,0.407,1.465c0,1.055-0.421,1.907-1.262,2.56
			C247.59,757.243,246.44,757.57,244.981,757.57z"/>
		<path fill="#3093CC" d="M256.011,757.57c-1.07,0-1.957-0.141-2.661-0.421c-0.706-0.279-1.246-0.607-1.619-0.98
			c-0.221-0.222-0.373-0.408-0.459-0.56c-0.084-0.154-0.126-0.298-0.126-0.436c0-0.133,0.033-0.243,0.102-0.329
			c0.067-0.085,0.14-0.154,0.217-0.204c0.075-0.052,0.147-0.085,0.216-0.102c0.067-0.017,0.11-0.024,0.127-0.024
			c0.373,0.576,0.904,1.06,1.593,1.45c0.688,0.392,1.575,0.587,2.661,0.587c1.104,0,1.959-0.221,2.562-0.663
			s0.903-1.001,0.903-1.682c0-0.407-0.089-0.741-0.267-1.006c-0.178-0.263-0.434-0.479-0.763-0.651
			c-0.333-0.169-0.728-0.312-1.188-0.432c-0.457-0.119-0.967-0.236-1.527-0.357c-0.492-0.102-0.993-0.217-1.502-0.343
			c-0.51-0.128-0.969-0.31-1.378-0.548c-0.405-0.236-0.741-0.544-1.006-0.917c-0.262-0.373-0.395-0.856-0.395-1.453
			c0-0.509,0.11-0.98,0.332-1.413c0.221-0.434,0.526-0.802,0.917-1.108c0.392-0.305,0.861-0.543,1.413-0.714
			c0.552-0.169,1.169-0.254,1.848-0.254c0.951,0,1.749,0.132,2.395,0.396c0.645,0.263,1.146,0.572,1.504,0.929
			c0.306,0.307,0.457,0.604,0.457,0.893c0,0.119-0.034,0.225-0.102,0.317c-0.067,0.094-0.14,0.166-0.217,0.217
			c-0.076,0.051-0.149,0.085-0.217,0.102c-0.067,0.018-0.11,0.018-0.126,0c-0.306-0.525-0.782-0.963-1.428-1.312
			c-0.646-0.348-1.4-0.522-2.267-0.522c-1.053,0-1.872,0.218-2.459,0.65c-0.586,0.433-0.878,0.979-0.878,1.643
			c0,0.374,0.084,0.688,0.255,0.943c0.17,0.254,0.41,0.467,0.725,0.636c0.315,0.17,0.697,0.315,1.146,0.434
			c0.45,0.119,0.947,0.238,1.492,0.357c0.508,0.102,1.025,0.22,1.552,0.357c0.527,0.135,1.002,0.325,1.428,0.572
			c0.425,0.246,0.772,0.56,1.043,0.942c0.271,0.382,0.409,0.869,0.409,1.465c0,1.055-0.42,1.907-1.261,2.56
			C258.622,757.243,257.471,757.57,256.011,757.57z"/>
	</g>
</g>
</svg>
